<svg xmlns="http://www.w3.org/2000/svg" viewBox="0 0 1340 652" width="100%" preserveAspectRatio="xMidYMid meet" style="width: 100%; height: 100%; min-height: 400px;"><defs><filter id="mm-shadow" x="-10%" y="-10%" width="130%" height="130%"><feDropShadow dx="0" dy="3" stdDeviation="5" flood-color="#000" flood-opacity="0.08"/></filter><linearGradient id="mm-root-grad-oidc-root" x1="0%" y1="0%" x2="100%" y2="100%"><stop offset="0%" stop-color="#1e293b"/><stop offset="100%" stop-color="#3b82f6"/></linearGradient><linearGradient id="mm-root-grad-sso-root" x1="0%" y1="0%" x2="100%" y2="100%"><stop offset="0%" stop-color="#1e293b"/><stop offset="100%" stop-color="#10b981"/></linearGradient></defs><rect width="1340" height="652" fill="#f3f4f6" rx="16"/><text x="670" y="44" text-anchor="middle" font-size="22" font-weight="700" fill="#1a1a2e" font-family="Inter, system-ui, sans-serif">Side-by-side comparison of authentication paradigms</text><line x1="670" y1="92" x2="670" y2="592" stroke="#e5e7eb" stroke-width="2" stroke-dasharray="6,4"/><path data-edge-id="mm-oidc-root-oidc-1" d="M60,312C230,312,230,152,400,152" fill="none" stroke="#3b82f6" stroke-width="3" stroke-opacity="0.4"/><path data-edge-id="mm-oidc-root-oidc-2" d="M60,312C230,312,230,232,400,232" fill="none" stroke="#3b82f6" stroke-width="3" stroke-opacity="0.4"/><path data-edge-id="mm-oidc-root-oidc-3" d="M60,312C230,312,230,312,400,312" fill="none" stroke="#3b82f6" stroke-width="3" stroke-opacity="0.4"/><path data-edge-id="mm-oidc-root-oidc-4" d="M60,312C230,312,230,392,400,392" fill="none" stroke="#3b82f6" stroke-width="3" stroke-opacity="0.4"/><path data-edge-id="mm-oidc-root-oidc-5" d="M60,312C230,312,230,472,400,472" fill="none" stroke="#3b82f6" stroke-width="3" stroke-opacity="0.4"/><g data-node-id="oidc-root" transform="translate(40, 272)" filter="url(#mm-shadow)" style="cursor: pointer;"><rect width="220" height="80" rx="16" fill="url(#mm-root-grad-oidc-root)" stroke="#3b82f6" stroke-width="3"/><text x="110" y="24" text-anchor="middle" font-size="24">🔐</text><text x="110" y="46" text-anchor="middle" dominant-baseline="auto" font-size="16" font-weight="800" fill="#f3f4f6" font-family="Inter, system-ui, sans-serif">OIDC</text><text x="110" y="62" text-anchor="middle" font-size="10" fill="#f3f4f6" opacity="0.6" font-family="Inter, system-ui, sans-serif">OpenID Connect: Authentication …</text></g><g data-node-id="oidc-1" transform="translate(400, 122)" filter="url(#mm-shadow)" style="cursor: pointer;"><rect width="180" height="60" rx="6" fill="#eff6ff" stroke="#3b82f6" stroke-width="1.5"/><rect x="0" y="0" width="4" height="60" rx="2" fill="#3b82f6"/><text x="14" y="14" font-size="16">🎫</text><text x="14" y="26" text-anchor="start" dominant-baseline="auto" font-size="12" font-weight="700" fill="#1e293b" font-family="Inter, system-ui, sans-serif">ID Token</text><text x="14" y="42" text-anchor="start" font-size="10" fill="#1e293b" opacity="0.6" font-family="Inter, system-ui, sans-serif">JWT-based token containi…</text></g><g data-node-id="oidc-2" transform="translate(400, 202)" filter="url(#mm-shadow)" style="cursor: pointer;"><rect width="180" height="60" rx="6" fill="#eff6ff" stroke="#3b82f6" stroke-width="1.5"/><rect x="0" y="0" width="4" height="60" rx="2" fill="#3b82f6"/><text x="14" y="14" font-size="16">👤</text><text x="14" y="26" text-anchor="start" dominant-baseline="auto" font-size="12" font-weight="700" fill="#1e293b" font-family="Inter, system-ui, sans-serif">UserInfo Endpoint</text><text x="14" y="42" text-anchor="start" font-size="10" fill="#1e293b" opacity="0.6" font-family="Inter, system-ui, sans-serif">Returns authenticated us…</text></g><g data-node-id="oidc-3" transform="translate(400, 282)" filter="url(#mm-shadow)" style="cursor: pointer;"><rect width="180" height="60" rx="6" fill="#eff6ff" stroke="#3b82f6" stroke-width="1.5"/><rect x="0" y="0" width="4" height="60" rx="2" fill="#3b82f6"/><text x="14" y="14" font-size="16">🔄</text><text x="14" y="26" text-anchor="start" dominant-baseline="auto" font-size="12" font-weight="700" fill="#1e293b" font-family="Inter, system-ui, sans-serif">Authorization Code F…</text><text x="14" y="42" text-anchor="start" font-size="10" fill="#1e293b" opacity="0.6" font-family="Inter, system-ui, sans-serif">Secure multi-step flow w…</text></g><g data-node-id="oidc-4" transform="translate(400, 362)" filter="url(#mm-shadow)" style="cursor: pointer;"><rect width="180" height="60" rx="6" fill="#eff6ff" stroke="#3b82f6" stroke-width="1.5"/><rect x="0" y="0" width="4" height="60" rx="2" fill="#3b82f6"/><text x="14" y="14" font-size="16">📋</text><text x="14" y="26" text-anchor="start" dominant-baseline="auto" font-size="12" font-weight="700" fill="#1e293b" font-family="Inter, system-ui, sans-serif">Standardized Claims</text><text x="14" y="42" text-anchor="start" font-size="10" fill="#1e293b" opacity="0.6" font-family="Inter, system-ui, sans-serif">Structured user attribut…</text></g><g data-node-id="oidc-5" transform="translate(400, 442)" filter="url(#mm-shadow)" style="cursor: pointer;"><rect width="180" height="60" rx="6" fill="#eff6ff" stroke="#3b82f6" stroke-width="1.5"/><rect x="0" y="0" width="4" height="60" rx="2" fill="#3b82f6"/><text x="14" y="14" font-size="16">🔗</text><text x="14" y="26" text-anchor="start" dominant-baseline="auto" font-size="12" font-weight="700" fill="#1e293b" font-family="Inter, system-ui, sans-serif">Third-Party Apps</text><text x="14" y="42" text-anchor="start" font-size="10" fill="#1e293b" opacity="0.6" font-family="Inter, system-ui, sans-serif">Enables secure sign-in a…</text></g><text x="320" y="82" text-anchor="middle" font-size="13" font-weight="600" fill="#3b82f6" font-family="Inter, system-ui, sans-serif">OIDC</text><path data-edge-id="mm-sso-root-sso-1" d="M760,312C930,312,930,152,1100,152" fill="none" stroke="#10b981" stroke-width="3" stroke-opacity="0.4"/><path data-edge-id="mm-sso-root-sso-2" d="M760,312C930,312,930,232,1100,232" fill="none" stroke="#10b981" stroke-width="3" stroke-opacity="0.4"/><path data-edge-id="mm-sso-root-sso-3" d="M760,312C930,312,930,312,1100,312" fill="none" stroke="#10b981" stroke-width="3" stroke-opacity="0.4"/><path data-edge-id="mm-sso-root-sso-4" d="M760,312C930,312,930,392,1100,392" fill="none" stroke="#10b981" stroke-width="3" stroke-opacity="0.4"/><path data-edge-id="mm-sso-root-sso-5" d="M760,312C930,312,930,472,1100,472" fill="none" stroke="#10b981" stroke-width="3" stroke-opacity="0.4"/><g data-node-id="sso-root" transform="translate(740, 272)" filter="url(#mm-shadow)" style="cursor: pointer;"><rect width="220" height="80" rx="16" fill="url(#mm-root-grad-sso-root)" stroke="#10b981" stroke-width="3"/><text x="110" y="24" text-anchor="middle" font-size="24">🔑</text><text x="110" y="46" text-anchor="middle" dominant-baseline="auto" font-size="16" font-weight="800" fill="#f3f4f6" font-family="Inter, system-ui, sans-serif">SSO</text><text x="110" y="62" text-anchor="middle" font-size="10" fill="#f3f4f6" opacity="0.6" font-family="Inter, system-ui, sans-serif">Single Sign-On: Pattern enablin…</text></g><g data-node-id="sso-1" transform="translate(1100, 122)" filter="url(#mm-shadow)" style="cursor: pointer;"><rect width="180" height="60" rx="6" fill="#f0fdf4" stroke="#10b981" stroke-width="1.5"/><rect x="0" y="0" width="4" height="60" rx="2" fill="#10b981"/><text x="14" y="14" font-size="16">✅</text><text x="14" y="26" text-anchor="start" dominant-baseline="auto" font-size="12" font-weight="700" fill="#1e293b" font-family="Inter, system-ui, sans-serif">Single Login Point</text><text x="14" y="42" text-anchor="start" font-size="10" fill="#1e293b" opacity="0.6" font-family="Inter, system-ui, sans-serif">User authenticates once,…</text></g><g data-node-id="sso-2" transform="translate(1100, 202)" filter="url(#mm-shadow)" style="cursor: pointer;"><rect width="180" height="60" rx="6" fill="#f0fdf4" stroke="#10b981" stroke-width="1.5"/><rect x="0" y="0" width="4" height="60" rx="2" fill="#10b981"/><text x="14" y="14" font-size="16">🎟️</text><text x="14" y="26" text-anchor="start" dominant-baseline="auto" font-size="12" font-weight="700" fill="#1e293b" font-family="Inter, system-ui, sans-serif">Session Management</text><text x="14" y="42" text-anchor="start" font-size="10" fill="#1e293b" opacity="0.6" font-family="Inter, system-ui, sans-serif">Centralized session toke…</text></g><g data-node-id="sso-3" transform="translate(1100, 282)" filter="url(#mm-shadow)" style="cursor: pointer;"><rect width="180" height="60" rx="6" fill="#f0fdf4" stroke="#10b981" stroke-width="1.5"/><rect x="0" y="0" width="4" height="60" rx="2" fill="#10b981"/><text x="14" y="14" font-size="16">🏢</text><text x="14" y="26" text-anchor="start" dominant-baseline="auto" font-size="12" font-weight="700" fill="#1e293b" font-family="Inter, system-ui, sans-serif">App Federation</text><text x="14" y="42" text-anchor="start" font-size="10" fill="#1e293b" opacity="0.6" font-family="Inter, system-ui, sans-serif">Multiple apps trust a ce…</text></g><g data-node-id="sso-4" transform="translate(1100, 362)" filter="url(#mm-shadow)" style="cursor: pointer;"><rect width="180" height="60" rx="6" fill="#f0fdf4" stroke="#10b981" stroke-width="1.5"/><rect x="0" y="0" width="4" height="60" rx="2" fill="#10b981"/><text x="14" y="14" font-size="16">📡</text><text x="14" y="26" text-anchor="start" dominant-baseline="auto" font-size="12" font-weight="700" fill="#1e293b" font-family="Inter, system-ui, sans-serif">Protocol Agnostic</text><text x="14" y="42" text-anchor="start" font-size="10" fill="#1e293b" opacity="0.6" font-family="Inter, system-ui, sans-serif">Can implement with SAML,…</text></g><g data-node-id="sso-5" transform="translate(1100, 442)" filter="url(#mm-shadow)" style="cursor: pointer;"><rect width="180" height="60" rx="6" fill="#f0fdf4" stroke="#10b981" stroke-width="1.5"/><rect x="0" y="0" width="4" height="60" rx="2" fill="#10b981"/><text x="14" y="14" font-size="16">🏭</text><text x="14" y="26" text-anchor="start" dominant-baseline="auto" font-size="12" font-weight="700" fill="#1e293b" font-family="Inter, system-ui, sans-serif">Enterprise Adoption</text><text x="14" y="42" text-anchor="start" font-size="10" fill="#1e293b" opacity="0.6" font-family="Inter, system-ui, sans-serif">Common in corporate envi…</text></g><text x="1020" y="82" text-anchor="middle" font-size="13" font-weight="600" fill="#10b981" font-family="Inter, system-ui, sans-serif">SSO</text></svg>