<svg xmlns="http://www.w3.org/2000/svg" xmlns:xlink="http://www.w3.org/1999/xlink" width="300" zoomAndPan="magnify" viewBox="0 0 224.87999 56.249996" height="75" preserveAspectRatio="xMidYMid meet" version="1.0"><defs><filter x="0%" y="0%" width="100%" height="100%" id="6c51bbb369"><feColorMatrix values="0 0 0 0 1 0 0 0 0 1 0 0 0 0 1 0 0 0 1 0" color-interpolation-filters="sRGB"/></filter><g/><clipPath id="e98a10f6ac"><path d="M 1.421875 0 L 223.339844 0 L 223.339844 55.511719 L 1.421875 55.511719 Z M 1.421875 0 " clip-rule="nonzero"/></clipPath><clipPath id="33bb74bfab"><path d="M 0.421875 0 L 222.339844 0 L 222.339844 55.511719 L 0.421875 55.511719 Z M 0.421875 0 " clip-rule="nonzero"/></clipPath><clipPath id="42ae68e8d5"><path d="M 32.746094 0 L 190.390625 0 L 190.390625 55.511719 L 32.746094 55.511719 Z M 32.746094 0 " clip-rule="nonzero"/></clipPath><linearGradient x1="43.637001" gradientTransform="matrix(0.741068, 0, 0, 0.737077, 0.408112, 15.010333)" y1="12.5" x2="256.363011" gradientUnits="userSpaceOnUse" y2="12.5" id="7e78347a86"><stop stop-opacity="1" stop-color="rgb(36.468506%, 87.838745%, 90.19928%)" offset="0"/><stop stop-opacity="1" stop-color="rgb(36.468506%, 87.838745%, 90.19928%)" offset="0.125"/><stop stop-opacity="1" stop-color="rgb(36.468506%, 87.838745%, 90.19928%)" offset="0.1875"/><stop stop-opacity="1" stop-color="rgb(36.468506%, 87.838745%, 90.19928%)" offset="0.21875"/><stop stop-opacity="1" stop-color="rgb(36.468506%, 87.838745%, 90.19928%)" offset="0.234375"/><stop stop-opacity="1" stop-color="rgb(36.468506%, 87.838745%, 90.19928%)" offset="0.242188"/><stop stop-opacity="1" stop-color="rgb(36.314392%, 87.590027%, 90.104675%)" offset="0.246094"/><stop stop-opacity="1" stop-color="rgb(36.161804%, 87.342834%, 90.010071%)" offset="0.25"/><stop stop-opacity="1" stop-color="rgb(35.881042%, 86.891174%, 89.837646%)" offset="0.253906"/><stop stop-opacity="1" stop-color="rgb(35.601807%, 86.439514%, 89.666748%)" offset="0.257813"/><stop stop-opacity="1" stop-color="rgb(35.321045%, 85.987854%, 89.494324%)" offset="0.261719"/><stop stop-opacity="1" stop-color="rgb(35.041809%, 85.536194%, 89.323425%)" offset="0.265625"/><stop stop-opacity="1" stop-color="rgb(34.761047%, 85.084534%, 89.151001%)" offset="0.269531"/><stop stop-opacity="1" stop-color="rgb(34.480286%, 84.632874%, 88.980103%)" offset="0.273438"/><stop stop-opacity="1" stop-color="rgb(34.199524%, 84.181213%, 88.807678%)" offset="0.277344"/><stop stop-opacity="1" stop-color="rgb(33.920288%, 83.729553%, 88.63678%)" offset="0.28125"/><stop stop-opacity="1" stop-color="rgb(33.639526%, 83.276367%, 88.464355%)" offset="0.285156"/><stop stop-opacity="1" stop-color="rgb(33.360291%, 82.824707%, 88.293457%)" offset="0.289063"/><stop stop-opacity="1" stop-color="rgb(33.079529%, 82.373047%, 88.121033%)" offset="0.292969"/><stop stop-opacity="1" stop-color="rgb(32.800293%, 81.921387%, 87.950134%)" offset="0.296875"/><stop stop-opacity="1" stop-color="rgb(32.519531%, 81.469727%, 87.77771%)" offset="0.300781"/><stop stop-opacity="1" stop-color="rgb(32.240295%, 81.018066%, 87.606812%)" offset="0.304688"/><stop stop-opacity="1" stop-color="rgb(31.959534%, 80.566406%, 87.434387%)" offset="0.308594"/><stop stop-opacity="1" stop-color="rgb(31.680298%, 80.114746%, 87.263489%)" offset="0.3125"/><stop stop-opacity="1" stop-color="rgb(31.399536%, 79.663086%, 87.091064%)" offset="0.316406"/><stop stop-opacity="1" stop-color="rgb(31.1203%, 79.211426%, 86.91864%)" offset="0.320313"/><stop stop-opacity="1" stop-color="rgb(30.839539%, 78.759766%, 86.746216%)" offset="0.324219"/><stop stop-opacity="1" stop-color="rgb(30.558777%, 78.308105%, 86.575317%)" offset="0.328125"/><stop stop-opacity="1" stop-color="rgb(30.278015%, 77.854919%, 86.402893%)" offset="0.332031"/><stop stop-opacity="1" stop-color="rgb(29.998779%, 77.403259%, 86.231995%)" offset="0.335938"/><stop stop-opacity="1" stop-color="rgb(29.718018%, 76.951599%, 86.05957%)" offset="0.339844"/><stop stop-opacity="1" stop-color="rgb(29.438782%, 76.499939%, 85.888672%)" offset="0.34375"/><stop stop-opacity="1" stop-color="rgb(29.15802%, 76.048279%, 85.716248%)" offset="0.347656"/><stop stop-opacity="1" stop-color="rgb(28.878784%, 75.596619%, 85.545349%)" offset="0.351563"/><stop stop-opacity="1" stop-color="rgb(28.598022%, 75.144958%, 85.372925%)" offset="0.355469"/><stop stop-opacity="1" stop-color="rgb(28.318787%, 74.693298%, 85.202026%)" offset="0.359375"/><stop stop-opacity="1" stop-color="rgb(28.038025%, 74.241638%, 85.029602%)" offset="0.363281"/><stop stop-opacity="1" stop-color="rgb(27.758789%, 73.789978%, 84.858704%)" offset="0.367188"/><stop stop-opacity="1" stop-color="rgb(27.478027%, 73.338318%, 84.686279%)" offset="0.371094"/><stop stop-opacity="1" stop-color="rgb(27.197266%, 72.886658%, 84.515381%)" offset="0.375"/><stop stop-opacity="1" stop-color="rgb(26.916504%, 72.434998%, 84.342957%)" offset="0.378906"/><stop stop-opacity="1" stop-color="rgb(26.637268%, 71.983337%, 84.172058%)" offset="0.382813"/><stop stop-opacity="1" stop-color="rgb(26.356506%, 71.530151%, 83.999634%)" offset="0.386719"/><stop stop-opacity="1" stop-color="rgb(26.077271%, 71.078491%, 83.828735%)" offset="0.390625"/><stop stop-opacity="1" stop-color="rgb(25.796509%, 70.626831%, 83.656311%)" offset="0.394531"/><stop stop-opacity="1" stop-color="rgb(25.517273%, 70.175171%, 83.483887%)" offset="0.398438"/><stop stop-opacity="1" stop-color="rgb(25.236511%, 69.723511%, 83.311462%)" offset="0.402344"/><stop stop-opacity="1" stop-color="rgb(24.957275%, 69.271851%, 83.140564%)" offset="0.40625"/><stop stop-opacity="1" stop-color="rgb(24.676514%, 68.82019%, 82.96814%)" offset="0.410156"/><stop stop-opacity="1" stop-color="rgb(24.397278%, 68.36853%, 82.797241%)" offset="0.414063"/><stop stop-opacity="1" stop-color="rgb(24.116516%, 67.91687%, 82.624817%)" offset="0.417969"/><stop stop-opacity="1" stop-color="rgb(23.83728%, 67.46521%, 82.453918%)" offset="0.421875"/><stop stop-opacity="1" stop-color="rgb(23.556519%, 67.01355%, 82.281494%)" offset="0.425781"/><stop stop-opacity="1" stop-color="rgb(23.275757%, 66.56189%, 82.110596%)" offset="0.429688"/><stop stop-opacity="1" stop-color="rgb(22.994995%, 66.108704%, 81.938171%)" offset="0.433594"/><stop stop-opacity="1" stop-color="rgb(22.715759%, 65.657043%, 81.767273%)" offset="0.4375"/><stop stop-opacity="1" stop-color="rgb(22.434998%, 65.205383%, 81.594849%)" offset="0.441406"/><stop stop-opacity="1" stop-color="rgb(22.155762%, 64.753723%, 81.42395%)" offset="0.445313"/><stop stop-opacity="1" stop-color="rgb(21.875%, 64.302063%, 81.251526%)" offset="0.449219"/><stop stop-opacity="1" stop-color="rgb(21.595764%, 63.850403%, 81.080627%)" offset="0.453125"/><stop stop-opacity="1" stop-color="rgb(21.315002%, 63.398743%, 80.908203%)" offset="0.457031"/><stop stop-opacity="1" stop-color="rgb(21.035767%, 62.947083%, 80.737305%)" offset="0.460938"/><stop stop-opacity="1" stop-color="rgb(20.755005%, 62.495422%, 80.56488%)" offset="0.464844"/><stop stop-opacity="1" stop-color="rgb(20.475769%, 62.043762%, 80.392456%)" offset="0.46875"/><stop stop-opacity="1" stop-color="rgb(20.195007%, 61.592102%, 80.220032%)" offset="0.472656"/><stop stop-opacity="1" stop-color="rgb(19.914246%, 61.140442%, 80.049133%)" offset="0.476563"/><stop stop-opacity="1" stop-color="rgb(19.633484%, 60.687256%, 79.876709%)" offset="0.480469"/><stop stop-opacity="1" stop-color="rgb(19.354248%, 60.235596%, 79.705811%)" offset="0.484375"/><stop stop-opacity="1" stop-color="rgb(19.073486%, 59.783936%, 79.533386%)" offset="0.488281"/><stop stop-opacity="1" stop-color="rgb(18.79425%, 59.332275%, 79.362488%)" offset="0.492188"/><stop stop-opacity="1" stop-color="rgb(18.513489%, 58.880615%, 79.190063%)" offset="0.496094"/><stop stop-opacity="1" stop-color="rgb(18.234253%, 58.428955%, 79.019165%)" offset="0.5"/><stop stop-opacity="1" stop-color="rgb(17.953491%, 57.977295%, 78.846741%)" offset="0.503906"/><stop stop-opacity="1" stop-color="rgb(17.674255%, 57.525635%, 78.675842%)" offset="0.507813"/><stop stop-opacity="1" stop-color="rgb(17.393494%, 57.073975%, 78.503418%)" offset="0.511719"/><stop stop-opacity="1" stop-color="rgb(17.114258%, 56.622314%, 78.33252%)" offset="0.515625"/><stop stop-opacity="1" stop-color="rgb(16.833496%, 56.170654%, 78.160095%)" offset="0.519531"/><stop stop-opacity="1" stop-color="rgb(16.55426%, 55.718994%, 77.989197%)" offset="0.523438"/><stop stop-opacity="1" stop-color="rgb(16.273499%, 55.267334%, 77.816772%)" offset="0.527344"/><stop stop-opacity="1" stop-color="rgb(15.992737%, 54.815674%, 77.645874%)" offset="0.53125"/><stop stop-opacity="1" stop-color="rgb(15.711975%, 54.362488%, 77.47345%)" offset="0.535156"/><stop stop-opacity="1" stop-color="rgb(15.432739%, 53.910828%, 77.302551%)" offset="0.539063"/><stop stop-opacity="1" stop-color="rgb(15.151978%, 53.459167%, 77.130127%)" offset="0.542969"/><stop stop-opacity="1" stop-color="rgb(14.872742%, 53.007507%, 76.957703%)" offset="0.546875"/><stop stop-opacity="1" stop-color="rgb(14.59198%, 52.555847%, 76.785278%)" offset="0.550781"/><stop stop-opacity="1" stop-color="rgb(14.312744%, 52.104187%, 76.61438%)" offset="0.554688"/><stop stop-opacity="1" stop-color="rgb(14.031982%, 51.652527%, 76.441956%)" offset="0.558594"/><stop stop-opacity="1" stop-color="rgb(13.752747%, 51.200867%, 76.271057%)" offset="0.5625"/><stop stop-opacity="1" stop-color="rgb(13.471985%, 50.749207%, 76.098633%)" offset="0.566406"/><stop stop-opacity="1" stop-color="rgb(13.192749%, 50.297546%, 75.927734%)" offset="0.570313"/><stop stop-opacity="1" stop-color="rgb(12.911987%, 49.845886%, 75.75531%)" offset="0.574219"/><stop stop-opacity="1" stop-color="rgb(12.631226%, 49.394226%, 75.584412%)" offset="0.578125"/><stop stop-opacity="1" stop-color="rgb(12.350464%, 48.94104%, 75.411987%)" offset="0.582031"/><stop stop-opacity="1" stop-color="rgb(12.071228%, 48.48938%, 75.241089%)" offset="0.585938"/><stop stop-opacity="1" stop-color="rgb(11.790466%, 48.03772%, 75.068665%)" offset="0.589844"/><stop stop-opacity="1" stop-color="rgb(11.51123%, 47.58606%, 74.897766%)" offset="0.59375"/><stop stop-opacity="1" stop-color="rgb(11.230469%, 47.134399%, 74.725342%)" offset="0.597656"/><stop stop-opacity="1" stop-color="rgb(10.951233%, 46.682739%, 74.554443%)" offset="0.601562"/><stop stop-opacity="1" stop-color="rgb(10.670471%, 46.231079%, 74.382019%)" offset="0.605469"/><stop stop-opacity="1" stop-color="rgb(10.391235%, 45.779419%, 74.211121%)" offset="0.609375"/><stop stop-opacity="1" stop-color="rgb(10.110474%, 45.327759%, 74.038696%)" offset="0.613281"/><stop stop-opacity="1" stop-color="rgb(9.831238%, 44.876099%, 73.866272%)" offset="0.617188"/><stop stop-opacity="1" stop-color="rgb(9.550476%, 44.424438%, 73.693848%)" offset="0.621094"/><stop stop-opacity="1" stop-color="rgb(9.27124%, 43.972778%, 73.522949%)" offset="0.625"/><stop stop-opacity="1" stop-color="rgb(8.990479%, 43.521118%, 73.350525%)" offset="0.628906"/><stop stop-opacity="1" stop-color="rgb(8.709717%, 43.069458%, 73.179626%)" offset="0.632813"/><stop stop-opacity="1" stop-color="rgb(8.428955%, 42.616272%, 73.007202%)" offset="0.636719"/><stop stop-opacity="1" stop-color="rgb(8.149719%, 42.164612%, 72.836304%)" offset="0.640625"/><stop stop-opacity="1" stop-color="rgb(7.868958%, 41.712952%, 72.663879%)" offset="0.644531"/><stop stop-opacity="1" stop-color="rgb(7.589722%, 41.261292%, 72.492981%)" offset="0.648438"/><stop stop-opacity="1" stop-color="rgb(7.30896%, 40.809631%, 72.320557%)" offset="0.652344"/><stop stop-opacity="1" stop-color="rgb(7.029724%, 40.357971%, 72.149658%)" offset="0.65625"/><stop stop-opacity="1" stop-color="rgb(6.748962%, 39.906311%, 71.977234%)" offset="0.660156"/><stop stop-opacity="1" stop-color="rgb(6.469727%, 39.454651%, 71.806335%)" offset="0.664063"/><stop stop-opacity="1" stop-color="rgb(6.188965%, 39.002991%, 71.633911%)" offset="0.667969"/><stop stop-opacity="1" stop-color="rgb(5.909729%, 38.551331%, 71.463013%)" offset="0.671875"/><stop stop-opacity="1" stop-color="rgb(5.628967%, 38.09967%, 71.290588%)" offset="0.675781"/><stop stop-opacity="1" stop-color="rgb(5.348206%, 37.64801%, 71.11969%)" offset="0.679688"/><stop stop-opacity="1" stop-color="rgb(5.067444%, 37.194824%, 70.947266%)" offset="0.683594"/><stop stop-opacity="1" stop-color="rgb(4.788208%, 36.743164%, 70.776367%)" offset="0.6875"/><stop stop-opacity="1" stop-color="rgb(4.507446%, 36.291504%, 70.603943%)" offset="0.691406"/><stop stop-opacity="1" stop-color="rgb(4.22821%, 35.839844%, 70.431519%)" offset="0.695312"/><stop stop-opacity="1" stop-color="rgb(3.947449%, 35.388184%, 70.259094%)" offset="0.699219"/><stop stop-opacity="1" stop-color="rgb(3.668213%, 34.936523%, 70.088196%)" offset="0.703125"/><stop stop-opacity="1" stop-color="rgb(3.387451%, 34.484863%, 69.915771%)" offset="0.707031"/><stop stop-opacity="1" stop-color="rgb(3.108215%, 34.033203%, 69.744873%)" offset="0.710938"/><stop stop-opacity="1" stop-color="rgb(2.827454%, 33.581543%, 69.572449%)" offset="0.714844"/><stop stop-opacity="1" stop-color="rgb(2.548218%, 33.129883%, 69.40155%)" offset="0.71875"/><stop stop-opacity="1" stop-color="rgb(2.267456%, 32.678223%, 69.229126%)" offset="0.722656"/><stop stop-opacity="1" stop-color="rgb(1.98822%, 32.226562%, 69.058228%)" offset="0.726563"/><stop stop-opacity="1" stop-color="rgb(1.707458%, 31.773376%, 68.885803%)" offset="0.730469"/><stop stop-opacity="1" stop-color="rgb(1.426697%, 31.321716%, 68.714905%)" offset="0.734375"/><stop stop-opacity="1" stop-color="rgb(1.145935%, 30.870056%, 68.54248%)" offset="0.738281"/><stop stop-opacity="1" stop-color="rgb(0.866699%, 30.418396%, 68.371582%)" offset="0.742188"/><stop stop-opacity="1" stop-color="rgb(0.585938%, 29.966736%, 68.199158%)" offset="0.746094"/><stop stop-opacity="1" stop-color="rgb(0.306702%, 29.515076%, 68.028259%)" offset="0.75"/><stop stop-opacity="1" stop-color="rgb(0.152588%, 29.266357%, 67.933655%)" offset="0.753906"/><stop stop-opacity="1" stop-color="rgb(0%, 29.019165%, 67.83905%)" offset="0.757812"/><stop stop-opacity="1" stop-color="rgb(0%, 29.019165%, 67.83905%)" offset="0.765625"/><stop stop-opacity="1" stop-color="rgb(0%, 29.019165%, 67.83905%)" offset="0.78125"/><stop stop-opacity="1" stop-color="rgb(0%, 29.019165%, 67.83905%)" offset="0.8125"/><stop stop-opacity="1" stop-color="rgb(0%, 29.019165%, 67.83905%)" offset="0.875"/><stop stop-opacity="1" stop-color="rgb(0%, 29.019165%, 67.83905%)" offset="1"/></linearGradient><clipPath id="bc7893f759"><rect x="0" width="223" y="0" height="56"/></clipPath><clipPath id="52cb88b082"><path d="M 0.421875 0 L 222.339844 0 L 222.339844 55.511719 L 0.421875 55.511719 Z M 0.421875 0 " clip-rule="nonzero"/></clipPath><clipPath id="b925e65f41"><rect x="0" width="223" y="0" height="56"/></clipPath><clipPath id="2358d8190b"><rect x="0" width="223" y="0" height="56"/></clipPath><mask id="2add56f0b8"><g filter="url(#6c51bbb369)"><g transform="matrix(1, 0, 0, 1, 0.000000000000000222, 0.000000000000004134)"><g clip-path="url(#2358d8190b)"><g clip-path="url(#52cb88b082)"><g transform="matrix(1, 0, 0, 1, 0.000000000000000222, 0.000000000000004134)"><g clip-path="url(#b925e65f41)"><g fill="#000000" fill-opacity="1"><g transform="translate(71.161713, 32.726551)"><g><path d="M 9.609375 -3.8125 C 9.535156 -3.601562 9.5 -3.414062 9.5 -3.25 C 9.5 -3 9.578125 -2.800781 9.734375 -2.65625 C 9.898438 -2.507812 10.125 -2.4375 10.40625 -2.4375 C 10.894531 -2.4375 11.414062 -2.65625 11.96875 -3.09375 C 12.53125 -3.539062 12.972656 -4.21875 13.296875 -5.125 L 16.921875 -15.328125 C 17.109375 -15.816406 17.363281 -16.179688 17.6875 -16.421875 C 18.019531 -16.671875 18.363281 -16.796875 18.71875 -16.796875 C 19.09375 -16.796875 19.425781 -16.671875 19.71875 -16.421875 C 20.019531 -16.179688 20.171875 -15.828125 20.171875 -15.359375 C 20.171875 -15.253906 20.160156 -15.132812 20.140625 -15 C 20.128906 -14.875 20.097656 -14.742188 20.046875 -14.609375 L 16.40625 -4.5 C 16.03125 -3.445312 15.492188 -2.585938 14.796875 -1.921875 C 14.097656 -1.253906 13.34375 -0.765625 12.53125 -0.453125 C 11.71875 -0.148438 10.929688 0 10.171875 0 C 9.441406 0 8.78125 -0.132812 8.1875 -0.40625 C 7.601562 -0.675781 7.144531 -1.050781 6.8125 -1.53125 C 6.332031 -1.050781 5.769531 -0.675781 5.125 -0.40625 C 4.488281 -0.132812 3.851562 0 3.21875 0 C 2.582031 0 2.003906 -0.128906 1.484375 -0.390625 C 0.972656 -0.648438 0.566406 -1.007812 0.265625 -1.46875 C -0.0234375 -1.9375 -0.171875 -2.472656 -0.171875 -3.078125 C -0.171875 -3.285156 -0.15625 -3.492188 -0.125 -3.703125 C -0.09375 -3.921875 -0.0390625 -4.128906 0.03125 -4.328125 L 3.921875 -15.328125 C 4.109375 -15.816406 4.363281 -16.179688 4.6875 -16.421875 C 5.019531 -16.671875 5.363281 -16.796875 5.71875 -16.796875 C 6.09375 -16.796875 6.429688 -16.664062 6.734375 -16.40625 C 7.046875 -16.15625 7.203125 -15.800781 7.203125 -15.34375 C 7.203125 -15.101562 7.15625 -14.859375 7.0625 -14.609375 L 3.234375 -3.890625 C 3.191406 -3.785156 3.164062 -3.679688 3.15625 -3.578125 C 3.144531 -3.484375 3.140625 -3.394531 3.140625 -3.3125 C 3.140625 -3.09375 3.195312 -2.910156 3.3125 -2.765625 C 3.4375 -2.617188 3.609375 -2.546875 3.828125 -2.546875 C 4.179688 -2.546875 4.546875 -2.664062 4.921875 -2.90625 C 5.304688 -3.15625 5.664062 -3.488281 6 -3.90625 C 6.332031 -4.320312 6.585938 -4.78125 6.765625 -5.28125 L 10.390625 -15.328125 C 10.566406 -15.816406 10.816406 -16.179688 11.140625 -16.421875 C 11.472656 -16.671875 11.820312 -16.796875 12.1875 -16.796875 C 12.5625 -16.796875 12.894531 -16.671875 13.1875 -16.421875 C 13.488281 -16.179688 13.640625 -15.828125 13.640625 -15.359375 C 13.640625 -15.253906 13.628906 -15.132812 13.609375 -15 C 13.585938 -14.875 13.550781 -14.742188 13.5 -14.609375 Z M 9.609375 -3.8125 "/></g></g></g><g fill="#000000" fill-opacity="1"><g transform="translate(89.143918, 32.726551)"><g><path d="M 11.03125 -5.609375 C 11.132812 -5.929688 11.296875 -6.160156 11.515625 -6.296875 C 11.742188 -6.441406 11.976562 -6.515625 12.21875 -6.515625 C 12.53125 -6.515625 12.804688 -6.425781 13.046875 -6.25 C 13.296875 -6.070312 13.421875 -5.832031 13.421875 -5.53125 C 13.421875 -5.425781 13.398438 -5.304688 13.359375 -5.171875 C 12.898438 -3.828125 12.375 -2.78125 11.78125 -2.03125 C 11.1875 -1.28125 10.566406 -0.753906 9.921875 -0.453125 C 9.273438 -0.148438 8.644531 0 8.03125 0 C 7.488281 0 6.972656 -0.101562 6.484375 -0.3125 C 5.992188 -0.519531 5.597656 -0.828125 5.296875 -1.234375 C 4.992188 -1.648438 4.84375 -2.160156 4.84375 -2.765625 C 4.84375 -3.148438 4.914062 -3.578125 5.0625 -4.046875 L 6.484375 -8.078125 C 6.535156 -8.179688 6.5625 -8.300781 6.5625 -8.4375 C 6.5625 -8.613281 6.5 -8.765625 6.375 -8.890625 C 6.25 -9.015625 6.09375 -9.078125 5.90625 -9.078125 C 5.601562 -9.078125 5.300781 -8.953125 5 -8.703125 C 4.695312 -8.460938 4.441406 -8.15625 4.234375 -7.78125 L 1.890625 -1.15625 C 1.753906 -0.757812 1.550781 -0.46875 1.28125 -0.28125 C 1.019531 -0.09375 0.75 0 0.46875 0 C 0.144531 0 -0.148438 -0.125 -0.421875 -0.375 C -0.691406 -0.625 -0.828125 -0.96875 -0.828125 -1.40625 C -0.828125 -1.65625 -0.785156 -1.910156 -0.703125 -2.171875 L 3.953125 -15.328125 C 4.128906 -15.835938 4.34375 -16.207031 4.59375 -16.4375 C 4.84375 -16.675781 5.15625 -16.796875 5.53125 -16.796875 C 5.851562 -16.796875 6.144531 -16.679688 6.40625 -16.453125 C 6.675781 -16.234375 6.8125 -15.921875 6.8125 -15.515625 C 6.8125 -15.390625 6.789062 -15.253906 6.75 -15.109375 C 6.707031 -14.960938 6.660156 -14.8125 6.609375 -14.65625 L 5.390625 -11.109375 C 5.785156 -11.273438 6.203125 -11.359375 6.640625 -11.359375 C 7.160156 -11.359375 7.628906 -11.234375 8.046875 -10.984375 C 8.472656 -10.742188 8.804688 -10.414062 9.046875 -10 C 9.296875 -9.582031 9.421875 -9.117188 9.421875 -8.609375 C 9.421875 -8.441406 9.40625 -8.269531 9.375 -8.09375 C 9.351562 -7.914062 9.3125 -7.738281 9.25 -7.5625 L 7.65625 -3.0625 C 7.625 -2.976562 7.609375 -2.894531 7.609375 -2.8125 C 7.609375 -2.664062 7.660156 -2.539062 7.765625 -2.4375 C 7.878906 -2.34375 8.023438 -2.296875 8.203125 -2.296875 C 8.640625 -2.296875 9.113281 -2.554688 9.625 -3.078125 C 10.132812 -3.609375 10.601562 -4.453125 11.03125 -5.609375 Z M 11.03125 -5.609375 "/></g></g></g><g fill="#000000" fill-opacity="1"><g transform="translate(99.024384, 32.726551)"><g><path d="M 12.125 -6.53125 C 12.40625 -6.53125 12.648438 -6.445312 12.859375 -6.28125 C 13.078125 -6.113281 13.1875 -5.863281 13.1875 -5.53125 C 13.1875 -5.363281 13.140625 -5.148438 13.046875 -4.890625 C 12.960938 -4.628906 12.847656 -4.316406 12.703125 -3.953125 C 12.296875 -2.898438 11.804688 -2.085938 11.234375 -1.515625 C 10.660156 -0.953125 10.066406 -0.554688 9.453125 -0.328125 C 8.835938 -0.109375 8.257812 0 7.71875 0 C 7.519531 0 7.253906 -0.0234375 6.921875 -0.078125 C 6.597656 -0.128906 6.269531 -0.226562 5.9375 -0.375 C 5.613281 -0.519531 5.347656 -0.742188 5.140625 -1.046875 C 4.785156 -0.722656 4.382812 -0.46875 3.9375 -0.28125 C 3.488281 -0.09375 3.039062 0 2.59375 0 C 2.019531 0 1.507812 -0.128906 1.0625 -0.390625 C 0.613281 -0.660156 0.257812 -1.015625 0 -1.453125 C -0.269531 -1.898438 -0.40625 -2.390625 -0.40625 -2.921875 C -0.40625 -3.097656 -0.382812 -3.273438 -0.34375 -3.453125 C -0.3125 -3.628906 -0.269531 -3.800781 -0.21875 -3.96875 L 1.609375 -9.171875 C 1.867188 -9.921875 2.304688 -10.472656 2.921875 -10.828125 C 3.535156 -11.179688 4.160156 -11.359375 4.796875 -11.359375 C 5.285156 -11.359375 5.710938 -11.296875 6.078125 -11.171875 C 6.453125 -11.054688 6.738281 -10.9375 6.9375 -10.8125 C 7.09375 -11.0625 7.300781 -11.242188 7.5625 -11.359375 C 7.820312 -11.484375 8.085938 -11.546875 8.359375 -11.546875 C 8.710938 -11.546875 9.035156 -11.4375 9.328125 -11.21875 C 9.617188 -11 9.765625 -10.675781 9.765625 -10.25 C 9.765625 -10.0625 9.726562 -9.847656 9.65625 -9.609375 L 7.484375 -3.34375 C 7.421875 -3.113281 7.390625 -2.925781 7.390625 -2.78125 C 7.390625 -2.457031 7.5625 -2.296875 7.90625 -2.296875 C 8.207031 -2.296875 8.523438 -2.394531 8.859375 -2.59375 C 9.203125 -2.800781 9.539062 -3.132812 9.875 -3.59375 C 10.21875 -4.0625 10.507812 -4.6875 10.75 -5.46875 C 10.863281 -5.84375 11.050781 -6.113281 11.3125 -6.28125 C 11.582031 -6.445312 11.851562 -6.53125 12.125 -6.53125 Z M 5.75 -6.734375 C 5.90625 -7.222656 5.984375 -7.601562 5.984375 -7.875 C 5.984375 -8.207031 5.894531 -8.457031 5.71875 -8.625 C 5.550781 -8.800781 5.378906 -8.890625 5.203125 -8.890625 C 5.046875 -8.890625 4.847656 -8.816406 4.609375 -8.671875 C 4.367188 -8.523438 4.160156 -8.15625 3.984375 -7.5625 L 2.75 -3.671875 C 2.71875 -3.585938 2.6875 -3.488281 2.65625 -3.375 C 2.632812 -3.269531 2.625 -3.148438 2.625 -3.015625 C 2.625 -2.535156 2.835938 -2.296875 3.265625 -2.296875 C 3.472656 -2.296875 3.726562 -2.394531 4.03125 -2.59375 C 4.34375 -2.800781 4.601562 -3.21875 4.8125 -3.84375 Z M 5.75 -6.734375 "/></g></g></g><g fill="#000000" fill-opacity="1"><g transform="translate(108.69216, 32.726551)"><g><path d="M 6.90625 -5.453125 C 7.019531 -5.765625 7.195312 -5.988281 7.4375 -6.125 C 7.675781 -6.269531 7.914062 -6.34375 8.15625 -6.34375 C 8.457031 -6.34375 8.726562 -6.257812 8.96875 -6.09375 C 9.207031 -5.925781 9.328125 -5.691406 9.328125 -5.390625 C 9.328125 -5.335938 9.316406 -5.273438 9.296875 -5.203125 C 9.285156 -5.140625 9.269531 -5.078125 9.25 -5.015625 C 8.695312 -3.421875 7.925781 -2.1875 6.9375 -1.3125 C 5.945312 -0.4375 4.832031 0 3.59375 0 C 2.9375 0 2.320312 -0.117188 1.75 -0.359375 C 1.175781 -0.609375 0.710938 -0.96875 0.359375 -1.4375 C 0.015625 -1.90625 -0.15625 -2.472656 -0.15625 -3.140625 C -0.15625 -3.535156 -0.078125 -3.96875 0.078125 -4.4375 L 0.078125 -4.40625 L 1.703125 -9.078125 L 1.0625 -9.078125 C 0.800781 -9.078125 0.59375 -9.175781 0.4375 -9.375 C 0.289062 -9.570312 0.21875 -9.804688 0.21875 -10.078125 C 0.21875 -10.390625 0.332031 -10.679688 0.5625 -10.953125 C 0.800781 -11.222656 1.179688 -11.359375 1.703125 -11.359375 L 2.515625 -11.359375 L 4.0625 -15.671875 C 4.175781 -16.003906 4.359375 -16.273438 4.609375 -16.484375 C 4.859375 -16.691406 5.144531 -16.796875 5.46875 -16.796875 C 5.894531 -16.796875 6.226562 -16.664062 6.46875 -16.40625 C 6.707031 -16.15625 6.828125 -15.851562 6.828125 -15.5 C 6.828125 -15.394531 6.804688 -15.269531 6.765625 -15.125 L 5.46875 -11.359375 L 6.34375 -11.359375 C 6.71875 -11.359375 6.988281 -11.265625 7.15625 -11.078125 C 7.320312 -10.890625 7.40625 -10.664062 7.40625 -10.40625 C 7.40625 -10.082031 7.273438 -9.78125 7.015625 -9.5 C 6.765625 -9.21875 6.394531 -9.078125 5.90625 -9.078125 L 4.640625 -9.078125 L 2.75 -3.671875 C 2.738281 -3.609375 2.722656 -3.535156 2.703125 -3.453125 C 2.679688 -3.378906 2.671875 -3.3125 2.671875 -3.25 C 2.671875 -2.988281 2.769531 -2.765625 2.96875 -2.578125 C 3.164062 -2.390625 3.441406 -2.296875 3.796875 -2.296875 C 4.359375 -2.296875 4.921875 -2.554688 5.484375 -3.078125 C 6.046875 -3.609375 6.519531 -4.398438 6.90625 -5.453125 Z M 6.90625 -5.453125 "/></g></g></g><g fill="#000000" fill-opacity="1"><g transform="translate(114.531424, 32.726551)"><g><path d="M 10.265625 -5.46875 C 10.367188 -5.757812 10.523438 -5.960938 10.734375 -6.078125 C 10.953125 -6.203125 11.175781 -6.265625 11.40625 -6.265625 C 11.71875 -6.265625 12.003906 -6.171875 12.265625 -5.984375 C 12.535156 -5.804688 12.671875 -5.578125 12.671875 -5.296875 C 12.671875 -5.253906 12.671875 -5.210938 12.671875 -5.171875 C 12.671875 -5.128906 12.65625 -5.085938 12.625 -5.046875 C 12.175781 -3.742188 11.554688 -2.710938 10.765625 -1.953125 C 9.984375 -1.203125 9.085938 -0.664062 8.078125 -0.34375 C 7.078125 -0.0195312 6.015625 0.140625 4.890625 0.140625 C 3.753906 0.140625 2.789062 -0.00390625 2 -0.296875 C 1.207031 -0.597656 0.601562 -1.003906 0.1875 -1.515625 C -0.21875 -2.023438 -0.421875 -2.597656 -0.421875 -3.234375 C -0.421875 -3.640625 -0.347656 -4.054688 -0.203125 -4.484375 C -0.0664062 -4.910156 0.144531 -5.285156 0.4375 -5.609375 C 0.726562 -5.941406 1.085938 -6.160156 1.515625 -6.265625 C 1.898438 -6.984375 2.289062 -7.710938 2.6875 -8.453125 C 3.082031 -9.203125 3.46875 -9.941406 3.84375 -10.671875 C 4.03125 -11.046875 4.289062 -11.328125 4.625 -11.515625 C 4.96875 -11.703125 5.320312 -11.796875 5.6875 -11.796875 C 6.175781 -11.796875 6.566406 -11.628906 6.859375 -11.296875 C 7.148438 -10.972656 7.296875 -10.601562 7.296875 -10.1875 C 7.296875 -9.90625 7.203125 -9.625 7.015625 -9.34375 C 6.828125 -9.070312 6.597656 -8.878906 6.328125 -8.765625 C 6.367188 -8.460938 6.472656 -8.148438 6.640625 -7.828125 C 6.804688 -7.503906 6.984375 -7.175781 7.171875 -6.84375 C 7.441406 -6.394531 7.695312 -5.910156 7.9375 -5.390625 C 8.1875 -4.867188 8.3125 -4.320312 8.3125 -3.75 C 8.3125 -3.625 8.304688 -3.503906 8.296875 -3.390625 C 8.285156 -3.273438 8.265625 -3.148438 8.234375 -3.015625 C 8.691406 -3.273438 9.085938 -3.609375 9.421875 -4.015625 C 9.753906 -4.421875 10.035156 -4.90625 10.265625 -5.46875 Z M 4.140625 -6 C 4.304688 -5.832031 4.425781 -5.640625 4.5 -5.421875 C 4.582031 -5.210938 4.625 -5 4.625 -4.78125 C 4.625 -4.300781 4.46875 -3.863281 4.15625 -3.46875 C 3.84375 -3.070312 3.40625 -2.875 2.84375 -2.875 C 2.78125 -2.875 2.707031 -2.878906 2.625 -2.890625 C 2.550781 -2.898438 2.476562 -2.910156 2.40625 -2.921875 C 2.5 -2.671875 2.679688 -2.472656 2.953125 -2.328125 C 3.222656 -2.191406 3.519531 -2.125 3.84375 -2.125 C 4.363281 -2.15625 4.742188 -2.332031 4.984375 -2.65625 C 5.234375 -2.988281 5.359375 -3.378906 5.359375 -3.828125 C 5.359375 -4.273438 5.257812 -4.722656 5.0625 -5.171875 C 4.863281 -5.617188 4.613281 -6.015625 4.3125 -6.359375 Z M 4.140625 -6 "/></g></g></g><g fill="#000000" fill-opacity="1"><g transform="translate(123.696458, 32.726551)"><g><path d="M 10.796875 -5.578125 C 10.898438 -5.890625 11.078125 -6.117188 11.328125 -6.265625 C 11.578125 -6.421875 11.832031 -6.5 12.09375 -6.5 C 12.382812 -6.5 12.644531 -6.414062 12.875 -6.25 C 13.113281 -6.09375 13.234375 -5.859375 13.234375 -5.546875 C 13.234375 -5.421875 13.203125 -5.273438 13.140625 -5.109375 C 12.703125 -3.859375 12.1875 -2.859375 11.59375 -2.109375 C 11 -1.359375 10.367188 -0.816406 9.703125 -0.484375 C 9.035156 -0.160156 8.375 0 7.71875 0 C 7.175781 0 6.664062 -0.101562 6.1875 -0.3125 C 5.707031 -0.519531 5.320312 -0.828125 5.03125 -1.234375 C 4.75 -1.640625 4.609375 -2.140625 4.609375 -2.734375 C 4.609375 -2.929688 4.628906 -3.132812 4.671875 -3.34375 C 4.710938 -3.5625 4.773438 -3.78125 4.859375 -4 L 6.265625 -7.984375 C 6.328125 -8.179688 6.359375 -8.34375 6.359375 -8.46875 C 6.359375 -8.65625 6.300781 -8.800781 6.1875 -8.90625 C 6.082031 -9.019531 5.941406 -9.078125 5.765625 -9.078125 C 5.492188 -9.078125 5.195312 -8.957031 4.875 -8.71875 C 4.5625 -8.488281 4.28125 -8.128906 4.03125 -7.640625 C 3.800781 -7.023438 3.554688 -6.335938 3.296875 -5.578125 C 3.035156 -4.828125 2.769531 -4.078125 2.5 -3.328125 C 2.238281 -2.578125 1.992188 -1.882812 1.765625 -1.25 C 1.617188 -0.8125 1.375 -0.488281 1.03125 -0.28125 C 0.6875 -0.0703125 0.347656 0.03125 0.015625 0.03125 C -0.285156 0.03125 -0.554688 -0.0546875 -0.796875 -0.234375 C -1.035156 -0.410156 -1.15625 -0.679688 -1.15625 -1.046875 C -1.15625 -1.210938 -1.128906 -1.375 -1.078125 -1.53125 L 2.140625 -10.5625 C 2.242188 -10.832031 2.410156 -11.03125 2.640625 -11.15625 C 2.878906 -11.289062 3.132812 -11.359375 3.40625 -11.359375 C 3.664062 -11.359375 3.90625 -11.3125 4.125 -11.21875 C 4.34375 -11.125 4.476562 -10.988281 4.53125 -10.8125 C 5.019531 -11.175781 5.640625 -11.359375 6.390625 -11.359375 C 6.898438 -11.359375 7.367188 -11.238281 7.796875 -11 C 8.234375 -10.757812 8.582031 -10.4375 8.84375 -10.03125 C 9.113281 -9.625 9.25 -9.160156 9.25 -8.640625 C 9.25 -8.335938 9.175781 -7.984375 9.03125 -7.578125 L 7.53125 -3.28125 C 7.457031 -3.0625 7.421875 -2.90625 7.421875 -2.8125 C 7.421875 -2.46875 7.601562 -2.296875 7.96875 -2.296875 C 8.414062 -2.296875 8.890625 -2.550781 9.390625 -3.0625 C 9.898438 -3.570312 10.367188 -4.410156 10.796875 -5.578125 Z M 10.796875 -5.578125 "/></g></g></g><g fill="#000000" fill-opacity="1"><g transform="translate(133.364234, 32.726551)"><g><path d="M 13.21875 -5.6875 C 13.332031 -5.976562 13.507812 -6.191406 13.75 -6.328125 C 14 -6.460938 14.253906 -6.53125 14.515625 -6.53125 C 14.804688 -6.53125 15.0625 -6.453125 15.28125 -6.296875 C 15.507812 -6.148438 15.625 -5.925781 15.625 -5.625 C 15.625 -5.507812 15.59375 -5.367188 15.53125 -5.203125 C 15.09375 -4.066406 14.546875 -3.113281 13.890625 -2.34375 C 13.234375 -1.570312 12.523438 -0.988281 11.765625 -0.59375 C 11.003906 -0.195312 10.234375 0 9.453125 0 C 8.523438 0 7.738281 -0.28125 7.09375 -0.84375 C 6.445312 -1.40625 6.023438 -2.15625 5.828125 -3.09375 L 4.203125 -0.640625 C 4.054688 -0.421875 3.878906 -0.257812 3.671875 -0.15625 C 3.460938 -0.0507812 3.25 0 3.03125 0 C 2.707031 0 2.414062 -0.101562 2.15625 -0.3125 C 1.894531 -0.53125 1.765625 -0.800781 1.765625 -1.125 C 1.765625 -1.394531 1.878906 -1.6875 2.109375 -2 L 5.234375 -6.4375 C 5.109375 -7.007812 4.941406 -7.457031 4.734375 -7.78125 C 4.535156 -8.101562 4.359375 -8.328125 4.203125 -8.453125 C 4.148438 -8.328125 4.070312 -8.125 3.96875 -7.84375 C 3.863281 -7.5625 3.753906 -7.257812 3.640625 -6.9375 C 3.535156 -6.613281 3.429688 -6.316406 3.328125 -6.046875 C 3.234375 -5.773438 3.171875 -5.582031 3.140625 -5.46875 C 3.003906 -5.113281 2.8125 -4.851562 2.5625 -4.6875 C 2.3125 -4.519531 2.054688 -4.4375 1.796875 -4.4375 C 1.503906 -4.4375 1.238281 -4.523438 1 -4.703125 C 0.769531 -4.878906 0.65625 -5.117188 0.65625 -5.421875 C 0.65625 -5.554688 0.679688 -5.679688 0.734375 -5.796875 C 0.953125 -6.390625 1.128906 -6.882812 1.265625 -7.28125 C 1.398438 -7.675781 1.53125 -8.050781 1.65625 -8.40625 C 1.789062 -8.769531 1.945312 -9.191406 2.125 -9.671875 C 2.34375 -10.234375 2.679688 -10.65625 3.140625 -10.9375 C 3.597656 -11.21875 4.070312 -11.359375 4.5625 -11.359375 C 5.238281 -11.359375 5.78125 -11.132812 6.1875 -10.6875 C 6.601562 -10.238281 6.976562 -9.570312 7.3125 -8.6875 C 7.570312 -9.050781 7.910156 -9.394531 8.328125 -9.71875 C 8.742188 -10.050781 9.191406 -10.316406 9.671875 -10.515625 C 10.148438 -10.722656 10.601562 -10.828125 11.03125 -10.828125 C 11.59375 -10.828125 12.046875 -10.671875 12.390625 -10.359375 C 12.734375 -10.046875 12.90625 -9.625 12.90625 -9.09375 C 12.90625 -8.65625 12.742188 -8.300781 12.421875 -8.03125 C 12.097656 -7.757812 11.734375 -7.625 11.328125 -7.625 C 10.816406 -7.625 10.40625 -7.8125 10.09375 -8.1875 C 9.5 -7.726562 8.785156 -6.875 7.953125 -5.625 C 8.054688 -4.738281 8.171875 -4.054688 8.296875 -3.578125 C 8.421875 -3.097656 8.597656 -2.769531 8.828125 -2.59375 C 9.066406 -2.425781 9.375 -2.34375 9.75 -2.34375 C 10.332031 -2.34375 10.941406 -2.613281 11.578125 -3.15625 C 12.222656 -3.707031 12.769531 -4.550781 13.21875 -5.6875 Z M 13.21875 -5.6875 "/></g></g></g><g fill="#000000" fill-opacity="1"><g transform="translate(145.390987, 32.726551)"><g><path d="M 6.90625 -5.453125 C 7.019531 -5.765625 7.195312 -5.988281 7.4375 -6.125 C 7.675781 -6.269531 7.914062 -6.34375 8.15625 -6.34375 C 8.457031 -6.34375 8.726562 -6.257812 8.96875 -6.09375 C 9.207031 -5.925781 9.328125 -5.691406 9.328125 -5.390625 C 9.328125 -5.335938 9.316406 -5.273438 9.296875 -5.203125 C 9.285156 -5.140625 9.269531 -5.078125 9.25 -5.015625 C 8.695312 -3.421875 7.925781 -2.1875 6.9375 -1.3125 C 5.945312 -0.4375 4.832031 0 3.59375 0 C 2.9375 0 2.320312 -0.117188 1.75 -0.359375 C 1.175781 -0.609375 0.710938 -0.96875 0.359375 -1.4375 C 0.015625 -1.90625 -0.15625 -2.472656 -0.15625 -3.140625 C -0.15625 -3.535156 -0.078125 -3.96875 0.078125 -4.4375 L 0.078125 -4.40625 L 1.703125 -9.078125 L 1.0625 -9.078125 C 0.800781 -9.078125 0.59375 -9.175781 0.4375 -9.375 C 0.289062 -9.570312 0.21875 -9.804688 0.21875 -10.078125 C 0.21875 -10.390625 0.332031 -10.679688 0.5625 -10.953125 C 0.800781 -11.222656 1.179688 -11.359375 1.703125 -11.359375 L 2.515625 -11.359375 L 4.0625 -15.671875 C 4.175781 -16.003906 4.359375 -16.273438 4.609375 -16.484375 C 4.859375 -16.691406 5.144531 -16.796875 5.46875 -16.796875 C 5.894531 -16.796875 6.226562 -16.664062 6.46875 -16.40625 C 6.707031 -16.15625 6.828125 -15.851562 6.828125 -15.5 C 6.828125 -15.394531 6.804688 -15.269531 6.765625 -15.125 L 5.46875 -11.359375 L 6.34375 -11.359375 C 6.71875 -11.359375 6.988281 -11.265625 7.15625 -11.078125 C 7.320312 -10.890625 7.40625 -10.664062 7.40625 -10.40625 C 7.40625 -10.082031 7.273438 -9.78125 7.015625 -9.5 C 6.765625 -9.21875 6.394531 -9.078125 5.90625 -9.078125 L 4.640625 -9.078125 L 2.75 -3.671875 C 2.738281 -3.609375 2.722656 -3.535156 2.703125 -3.453125 C 2.679688 -3.378906 2.671875 -3.3125 2.671875 -3.25 C 2.671875 -2.988281 2.769531 -2.765625 2.96875 -2.578125 C 3.164062 -2.390625 3.441406 -2.296875 3.796875 -2.296875 C 4.359375 -2.296875 4.921875 -2.554688 5.484375 -3.078125 C 6.046875 -3.609375 6.519531 -4.398438 6.90625 -5.453125 Z M 6.90625 -5.453125 "/></g></g></g></g></g></g></g></g></g></mask><clipPath id="186bf17437"><path d="M 32.746094 0 L 190.390625 0 L 190.390625 55.511719 L 32.746094 55.511719 Z M 32.746094 0 " clip-rule="nonzero"/></clipPath><clipPath id="0429c0177c"><rect x="0" width="223" y="0" height="56"/></clipPath><clipPath id="6edaf92530"><rect x="0" width="223" y="0" height="56"/></clipPath><clipPath id="dc7168967b"><path d="M 1.421875 17.488281 L 223.339844 17.488281 L 223.339844 55.511719 L 1.421875 55.511719 Z M 1.421875 17.488281 " clip-rule="nonzero"/></clipPath><clipPath id="d653064144"><path d="M 0.421875 0.488281 L 222.339844 0.488281 L 222.339844 38.511719 L 0.421875 38.511719 Z M 0.421875 0.488281 " clip-rule="nonzero"/></clipPath><clipPath id="677809eeea"><path d="M 12.414062 0.488281 L 212.242188 0.488281 L 212.242188 38.511719 L 12.414062 38.511719 Z M 12.414062 0.488281 " clip-rule="nonzero"/></clipPath><linearGradient x1="14.936" gradientTransform="matrix(0.739766, 0, 0, 0.740108, 1.363672, 18.253108)" y1="8" x2="285.06301" gradientUnits="userSpaceOnUse" y2="8" id="870ce70cfe"><stop stop-opacity="1" stop-color="rgb(54.899597%, 32.159424%, 100%)" offset="0"/><stop stop-opacity="1" stop-color="rgb(54.899597%, 32.159424%, 100%)" offset="0.0625"/><stop stop-opacity="1" stop-color="rgb(54.84314%, 32.325745%, 99.969482%)" offset="0.09375"/><stop stop-opacity="1" stop-color="rgb(54.696655%, 32.759094%, 99.893188%)" offset="0.0976562"/><stop stop-opacity="1" stop-color="rgb(54.608154%, 33.026123%, 99.847412%)" offset="0.101562"/><stop stop-opacity="1" stop-color="rgb(54.518127%, 33.291626%, 99.80011%)" offset="0.105469"/><stop stop-opacity="1" stop-color="rgb(54.429626%, 33.558655%, 99.754333%)" offset="0.109375"/><stop stop-opacity="1" stop-color="rgb(54.3396%, 33.824158%, 99.707031%)" offset="0.113281"/><stop stop-opacity="1" stop-color="rgb(54.251099%, 34.091187%, 99.661255%)" offset="0.117187"/><stop stop-opacity="1" stop-color="rgb(54.161072%, 34.356689%, 99.613953%)" offset="0.121094"/><stop stop-opacity="1" stop-color="rgb(54.072571%, 34.623718%, 99.568176%)" offset="0.125"/><stop stop-opacity="1" stop-color="rgb(53.982544%, 34.890747%, 99.520874%)" offset="0.128906"/><stop stop-opacity="1" stop-color="rgb(53.892517%, 35.157776%, 99.475098%)" offset="0.132812"/><stop stop-opacity="1" stop-color="rgb(53.80249%, 35.423279%, 99.427795%)" offset="0.136719"/><stop stop-opacity="1" stop-color="rgb(53.713989%, 35.690308%, 99.382019%)" offset="0.140625"/><stop stop-opacity="1" stop-color="rgb(53.623962%, 35.955811%, 99.334717%)" offset="0.144531"/><stop stop-opacity="1" stop-color="rgb(53.535461%, 36.222839%, 99.28894%)" offset="0.148438"/><stop stop-opacity="1" stop-color="rgb(53.445435%, 36.488342%, 99.241638%)" offset="0.152344"/><stop stop-opacity="1" stop-color="rgb(53.356934%, 36.755371%, 99.195862%)" offset="0.15625"/><stop stop-opacity="1" stop-color="rgb(53.266907%, 37.020874%, 99.14856%)" offset="0.160156"/><stop stop-opacity="1" stop-color="rgb(53.178406%, 37.287903%, 99.102783%)" offset="0.164062"/><stop stop-opacity="1" stop-color="rgb(53.088379%, 37.553406%, 99.055481%)" offset="0.167969"/><stop stop-opacity="1" stop-color="rgb(52.999878%, 37.820435%, 99.009705%)" offset="0.171875"/><stop stop-opacity="1" stop-color="rgb(52.909851%, 38.087463%, 98.962402%)" offset="0.175781"/><stop stop-opacity="1" stop-color="rgb(52.819824%, 38.354492%, 98.916626%)" offset="0.179688"/><stop stop-opacity="1" stop-color="rgb(52.729797%, 38.619995%, 98.869324%)" offset="0.183594"/><stop stop-opacity="1" stop-color="rgb(52.641296%, 38.887024%, 98.823547%)" offset="0.1875"/><stop stop-opacity="1" stop-color="rgb(52.55127%, 39.152527%, 98.776245%)" offset="0.191406"/><stop stop-opacity="1" stop-color="rgb(52.462769%, 39.419556%, 98.730469%)" offset="0.195312"/><stop stop-opacity="1" stop-color="rgb(52.372742%, 39.685059%, 98.683167%)" offset="0.199219"/><stop stop-opacity="1" stop-color="rgb(52.284241%, 39.952087%, 98.63739%)" offset="0.203125"/><stop stop-opacity="1" stop-color="rgb(52.194214%, 40.21759%, 98.590088%)" offset="0.207031"/><stop stop-opacity="1" stop-color="rgb(52.105713%, 40.484619%, 98.544312%)" offset="0.210937"/><stop stop-opacity="1" stop-color="rgb(52.015686%, 40.751648%, 98.497009%)" offset="0.214844"/><stop stop-opacity="1" stop-color="rgb(51.925659%, 41.018677%, 98.451233%)" offset="0.21875"/><stop stop-opacity="1" stop-color="rgb(51.835632%, 41.28418%, 98.403931%)" offset="0.222656"/><stop stop-opacity="1" stop-color="rgb(51.747131%, 41.551208%, 98.358154%)" offset="0.226562"/><stop stop-opacity="1" stop-color="rgb(51.657104%, 41.816711%, 98.310852%)" offset="0.230469"/><stop stop-opacity="1" stop-color="rgb(51.568604%, 42.08374%, 98.265076%)" offset="0.234375"/><stop stop-opacity="1" stop-color="rgb(51.478577%, 42.349243%, 98.217773%)" offset="0.238281"/><stop stop-opacity="1" stop-color="rgb(51.390076%, 42.616272%, 98.171997%)" offset="0.242187"/><stop stop-opacity="1" stop-color="rgb(51.300049%, 42.881775%, 98.124695%)" offset="0.246094"/><stop stop-opacity="1" stop-color="rgb(51.211548%, 43.148804%, 98.078918%)" offset="0.25"/><stop stop-opacity="1" stop-color="rgb(51.121521%, 43.414307%, 98.031616%)" offset="0.253906"/><stop stop-opacity="1" stop-color="rgb(51.03302%, 43.681335%, 97.98584%)" offset="0.257812"/><stop stop-opacity="1" stop-color="rgb(50.942993%, 43.948364%, 97.938538%)" offset="0.261719"/><stop stop-opacity="1" stop-color="rgb(50.852966%, 44.215393%, 97.892761%)" offset="0.265625"/><stop stop-opacity="1" stop-color="rgb(50.762939%, 44.480896%, 97.845459%)" offset="0.269531"/><stop stop-opacity="1" stop-color="rgb(50.674438%, 44.747925%, 97.799683%)" offset="0.273438"/><stop stop-opacity="1" stop-color="rgb(50.584412%, 45.013428%, 97.75238%)" offset="0.277344"/><stop stop-opacity="1" stop-color="rgb(50.495911%, 45.280457%, 97.706604%)" offset="0.28125"/><stop stop-opacity="1" stop-color="rgb(50.405884%, 45.545959%, 97.659302%)" offset="0.285156"/><stop stop-opacity="1" stop-color="rgb(50.317383%, 45.812988%, 97.613525%)" offset="0.289062"/><stop stop-opacity="1" stop-color="rgb(50.227356%, 46.078491%, 97.566223%)" offset="0.292969"/><stop stop-opacity="1" stop-color="rgb(50.138855%, 46.34552%, 97.520447%)" offset="0.296875"/><stop stop-opacity="1" stop-color="rgb(50.048828%, 46.612549%, 97.473145%)" offset="0.300781"/><stop stop-opacity="1" stop-color="rgb(49.958801%, 46.879578%, 97.427368%)" offset="0.304687"/><stop stop-opacity="1" stop-color="rgb(49.868774%, 47.145081%, 97.380066%)" offset="0.308594"/><stop stop-opacity="1" stop-color="rgb(49.780273%, 47.412109%, 97.33429%)" offset="0.3125"/><stop stop-opacity="1" stop-color="rgb(49.690247%, 47.677612%, 97.286987%)" offset="0.316406"/><stop stop-opacity="1" stop-color="rgb(49.601746%, 47.944641%, 97.241211%)" offset="0.320312"/><stop stop-opacity="1" stop-color="rgb(49.511719%, 48.210144%, 97.193909%)" offset="0.324219"/><stop stop-opacity="1" stop-color="rgb(49.423218%, 48.477173%, 97.148132%)" offset="0.328125"/><stop stop-opacity="1" stop-color="rgb(49.333191%, 48.742676%, 97.10083%)" offset="0.332031"/><stop stop-opacity="1" stop-color="rgb(49.24469%, 49.009705%, 97.055054%)" offset="0.335937"/><stop stop-opacity="1" stop-color="rgb(49.154663%, 49.275208%, 97.007751%)" offset="0.339844"/><stop stop-opacity="1" stop-color="rgb(49.066162%, 49.542236%, 96.961975%)" offset="0.34375"/><stop stop-opacity="1" stop-color="rgb(48.976135%, 49.809265%, 96.914673%)" offset="0.347656"/><stop stop-opacity="1" stop-color="rgb(48.886108%, 50.076294%, 96.868896%)" offset="0.351562"/><stop stop-opacity="1" stop-color="rgb(48.796082%, 50.341797%, 96.821594%)" offset="0.355469"/><stop stop-opacity="1" stop-color="rgb(48.707581%, 50.608826%, 96.775818%)" offset="0.359375"/><stop stop-opacity="1" stop-color="rgb(48.617554%, 50.874329%, 96.728516%)" offset="0.363281"/><stop stop-opacity="1" stop-color="rgb(48.529053%, 51.141357%, 96.682739%)" offset="0.367187"/><stop stop-opacity="1" stop-color="rgb(48.439026%, 51.40686%, 96.635437%)" offset="0.371094"/><stop stop-opacity="1" stop-color="rgb(48.350525%, 51.673889%, 96.589661%)" offset="0.375"/><stop stop-opacity="1" stop-color="rgb(48.260498%, 51.939392%, 96.542358%)" offset="0.378906"/><stop stop-opacity="1" stop-color="rgb(48.171997%, 52.206421%, 96.496582%)" offset="0.382812"/><stop stop-opacity="1" stop-color="rgb(48.08197%, 52.471924%, 96.44928%)" offset="0.386719"/><stop stop-opacity="1" stop-color="rgb(47.991943%, 52.738953%, 96.403503%)" offset="0.390625"/><stop stop-opacity="1" stop-color="rgb(47.901917%, 53.005981%, 96.356201%)" offset="0.394531"/><stop stop-opacity="1" stop-color="rgb(47.813416%, 53.27301%, 96.310425%)" offset="0.398438"/><stop stop-opacity="1" stop-color="rgb(47.723389%, 53.538513%, 96.263123%)" offset="0.402344"/><stop stop-opacity="1" stop-color="rgb(47.634888%, 53.805542%, 96.21582%)" offset="0.40625"/><stop stop-opacity="1" stop-color="rgb(47.544861%, 54.071045%, 96.168518%)" offset="0.410156"/><stop stop-opacity="1" stop-color="rgb(47.45636%, 54.338074%, 96.122742%)" offset="0.414063"/><stop stop-opacity="1" stop-color="rgb(47.366333%, 54.603577%, 96.075439%)" offset="0.417969"/><stop stop-opacity="1" stop-color="rgb(47.277832%, 54.870605%, 96.029663%)" offset="0.421875"/><stop stop-opacity="1" stop-color="rgb(47.187805%, 55.136108%, 95.982361%)" offset="0.425781"/><stop stop-opacity="1" stop-color="rgb(47.099304%, 55.403137%, 95.936584%)" offset="0.429688"/><stop stop-opacity="1" stop-color="rgb(47.009277%, 55.670166%, 95.889282%)" offset="0.433594"/><stop stop-opacity="1" stop-color="rgb(46.91925%, 55.937195%, 95.843506%)" offset="0.4375"/><stop stop-opacity="1" stop-color="rgb(46.829224%, 56.202698%, 95.796204%)" offset="0.441406"/><stop stop-opacity="1" stop-color="rgb(46.740723%, 56.469727%, 95.750427%)" offset="0.445313"/><stop stop-opacity="1" stop-color="rgb(46.650696%, 56.735229%, 95.703125%)" offset="0.449219"/><stop stop-opacity="1" stop-color="rgb(46.562195%, 57.002258%, 95.657349%)" offset="0.453125"/><stop stop-opacity="1" stop-color="rgb(46.472168%, 57.267761%, 95.610046%)" offset="0.457031"/><stop stop-opacity="1" stop-color="rgb(46.383667%, 57.53479%, 95.56427%)" offset="0.460938"/><stop stop-opacity="1" stop-color="rgb(46.29364%, 57.800293%, 95.516968%)" offset="0.464844"/><stop stop-opacity="1" stop-color="rgb(46.205139%, 58.067322%, 95.471191%)" offset="0.46875"/><stop stop-opacity="1" stop-color="rgb(46.115112%, 58.332825%, 95.423889%)" offset="0.472656"/><stop stop-opacity="1" stop-color="rgb(46.025085%, 58.599854%, 95.378113%)" offset="0.476562"/><stop stop-opacity="1" stop-color="rgb(45.935059%, 58.866882%, 95.330811%)" offset="0.480469"/><stop stop-opacity="1" stop-color="rgb(45.846558%, 59.133911%, 95.285034%)" offset="0.484375"/><stop stop-opacity="1" stop-color="rgb(45.756531%, 59.399414%, 95.237732%)" offset="0.488281"/><stop stop-opacity="1" stop-color="rgb(45.66803%, 59.666443%, 95.191956%)" offset="0.492188"/><stop stop-opacity="1" stop-color="rgb(45.578003%, 59.931946%, 95.144653%)" offset="0.496094"/><stop stop-opacity="1" stop-color="rgb(45.489502%, 60.198975%, 95.098877%)" offset="0.5"/><stop stop-opacity="1" stop-color="rgb(45.399475%, 60.464478%, 95.051575%)" offset="0.503906"/><stop stop-opacity="1" stop-color="rgb(45.310974%, 60.731506%, 95.005798%)" offset="0.507813"/><stop stop-opacity="1" stop-color="rgb(45.220947%, 60.997009%, 94.958496%)" offset="0.511719"/><stop stop-opacity="1" stop-color="rgb(45.132446%, 61.264038%, 94.91272%)" offset="0.515625"/><stop stop-opacity="1" stop-color="rgb(45.042419%, 61.531067%, 94.865417%)" offset="0.519531"/><stop stop-opacity="1" stop-color="rgb(44.952393%, 61.798096%, 94.819641%)" offset="0.523438"/><stop stop-opacity="1" stop-color="rgb(44.862366%, 62.063599%, 94.772339%)" offset="0.527344"/><stop stop-opacity="1" stop-color="rgb(44.773865%, 62.330627%, 94.726562%)" offset="0.53125"/><stop stop-opacity="1" stop-color="rgb(44.683838%, 62.59613%, 94.67926%)" offset="0.535156"/><stop stop-opacity="1" stop-color="rgb(44.595337%, 62.863159%, 94.633484%)" offset="0.539063"/><stop stop-opacity="1" stop-color="rgb(44.50531%, 63.128662%, 94.586182%)" offset="0.542969"/><stop stop-opacity="1" stop-color="rgb(44.416809%, 63.395691%, 94.540405%)" offset="0.546875"/><stop stop-opacity="1" stop-color="rgb(44.326782%, 63.661194%, 94.493103%)" offset="0.550781"/><stop stop-opacity="1" stop-color="rgb(44.238281%, 63.928223%, 94.447327%)" offset="0.554688"/><stop stop-opacity="1" stop-color="rgb(44.148254%, 64.193726%, 94.400024%)" offset="0.558594"/><stop stop-opacity="1" stop-color="rgb(44.058228%, 64.460754%, 94.354248%)" offset="0.5625"/><stop stop-opacity="1" stop-color="rgb(43.968201%, 64.727783%, 94.306946%)" offset="0.566406"/><stop stop-opacity="1" stop-color="rgb(43.8797%, 64.994812%, 94.261169%)" offset="0.570312"/><stop stop-opacity="1" stop-color="rgb(43.789673%, 65.260315%, 94.213867%)" offset="0.574219"/><stop stop-opacity="1" stop-color="rgb(43.701172%, 65.527344%, 94.168091%)" offset="0.578125"/><stop stop-opacity="1" stop-color="rgb(43.611145%, 65.792847%, 94.120789%)" offset="0.582031"/><stop stop-opacity="1" stop-color="rgb(43.522644%, 66.059875%, 94.075012%)" offset="0.585938"/><stop stop-opacity="1" stop-color="rgb(43.432617%, 66.325378%, 94.02771%)" offset="0.589844"/><stop stop-opacity="1" stop-color="rgb(43.344116%, 66.592407%, 93.981934%)" offset="0.59375"/><stop stop-opacity="1" stop-color="rgb(43.254089%, 66.85791%, 93.934631%)" offset="0.597656"/><stop stop-opacity="1" stop-color="rgb(43.165588%, 67.124939%, 93.888855%)" offset="0.601562"/><stop stop-opacity="1" stop-color="rgb(43.075562%, 67.391968%, 93.841553%)" offset="0.605469"/><stop stop-opacity="1" stop-color="rgb(42.985535%, 67.658997%, 93.795776%)" offset="0.609375"/><stop stop-opacity="1" stop-color="rgb(42.895508%, 67.9245%, 93.748474%)" offset="0.613281"/><stop stop-opacity="1" stop-color="rgb(42.807007%, 68.191528%, 93.702698%)" offset="0.617188"/><stop stop-opacity="1" stop-color="rgb(42.71698%, 68.457031%, 93.655396%)" offset="0.621094"/><stop stop-opacity="1" stop-color="rgb(42.628479%, 68.72406%, 93.609619%)" offset="0.625"/><stop stop-opacity="1" stop-color="rgb(42.538452%, 68.989563%, 93.562317%)" offset="0.628906"/><stop stop-opacity="1" stop-color="rgb(42.449951%, 69.256592%, 93.516541%)" offset="0.632812"/><stop stop-opacity="1" stop-color="rgb(42.359924%, 69.522095%, 93.469238%)" offset="0.636719"/><stop stop-opacity="1" stop-color="rgb(42.271423%, 69.789124%, 93.423462%)" offset="0.640625"/><stop stop-opacity="1" stop-color="rgb(42.181396%, 70.054626%, 93.37616%)" offset="0.644531"/><stop stop-opacity="1" stop-color="rgb(42.09137%, 70.321655%, 93.330383%)" offset="0.648438"/><stop stop-opacity="1" stop-color="rgb(42.001343%, 70.588684%, 93.283081%)" offset="0.652344"/><stop stop-opacity="1" stop-color="rgb(41.912842%, 70.855713%, 93.237305%)" offset="0.65625"/><stop stop-opacity="1" stop-color="rgb(41.822815%, 71.121216%, 93.190002%)" offset="0.660156"/><stop stop-opacity="1" stop-color="rgb(41.734314%, 71.388245%, 93.144226%)" offset="0.664062"/><stop stop-opacity="1" stop-color="rgb(41.644287%, 71.653748%, 93.096924%)" offset="0.667969"/><stop stop-opacity="1" stop-color="rgb(41.555786%, 71.920776%, 93.051147%)" offset="0.671875"/><stop stop-opacity="1" stop-color="rgb(41.465759%, 72.186279%, 93.003845%)" offset="0.675781"/><stop stop-opacity="1" stop-color="rgb(41.377258%, 72.453308%, 92.958069%)" offset="0.679688"/><stop stop-opacity="1" stop-color="rgb(41.287231%, 72.718811%, 92.910767%)" offset="0.683594"/><stop stop-opacity="1" stop-color="rgb(41.19873%, 72.98584%, 92.86499%)" offset="0.6875"/><stop stop-opacity="1" stop-color="rgb(41.108704%, 73.251343%, 92.817688%)" offset="0.691406"/><stop stop-opacity="1" stop-color="rgb(41.018677%, 73.518372%, 92.771912%)" offset="0.695312"/><stop stop-opacity="1" stop-color="rgb(40.92865%, 73.7854%, 92.724609%)" offset="0.699219"/><stop stop-opacity="1" stop-color="rgb(40.840149%, 74.052429%, 92.678833%)" offset="0.703125"/><stop stop-opacity="1" stop-color="rgb(40.750122%, 74.317932%, 92.631531%)" offset="0.707031"/><stop stop-opacity="1" stop-color="rgb(40.661621%, 74.584961%, 92.585754%)" offset="0.710938"/><stop stop-opacity="1" stop-color="rgb(40.571594%, 74.850464%, 92.538452%)" offset="0.714844"/><stop stop-opacity="1" stop-color="rgb(40.483093%, 75.117493%, 92.492676%)" offset="0.71875"/><stop stop-opacity="1" stop-color="rgb(40.393066%, 75.382996%, 92.445374%)" offset="0.722656"/><stop stop-opacity="1" stop-color="rgb(40.304565%, 75.650024%, 92.399597%)" offset="0.726562"/><stop stop-opacity="1" stop-color="rgb(40.214539%, 75.915527%, 92.352295%)" offset="0.730469"/><stop stop-opacity="1" stop-color="rgb(40.124512%, 76.182556%, 92.306519%)" offset="0.734375"/><stop stop-opacity="1" stop-color="rgb(40.034485%, 76.449585%, 92.259216%)" offset="0.738281"/><stop stop-opacity="1" stop-color="rgb(39.945984%, 76.716614%, 92.21344%)" offset="0.742188"/><stop stop-opacity="1" stop-color="rgb(39.855957%, 76.982117%, 92.166138%)" offset="0.746094"/><stop stop-opacity="1" stop-color="rgb(39.767456%, 77.249146%, 92.120361%)" offset="0.75"/><stop stop-opacity="1" stop-color="rgb(39.677429%, 77.514648%, 92.073059%)" offset="0.753906"/><stop stop-opacity="1" stop-color="rgb(39.588928%, 77.781677%, 92.027283%)" offset="0.757812"/><stop stop-opacity="1" stop-color="rgb(39.498901%, 78.04718%, 91.97998%)" offset="0.761719"/><stop stop-opacity="1" stop-color="rgb(39.4104%, 78.314209%, 91.934204%)" offset="0.765625"/><stop stop-opacity="1" stop-color="rgb(39.320374%, 78.579712%, 91.886902%)" offset="0.769531"/><stop stop-opacity="1" stop-color="rgb(39.231873%, 78.846741%, 91.841125%)" offset="0.773437"/><stop stop-opacity="1" stop-color="rgb(39.141846%, 79.112244%, 91.793823%)" offset="0.777344"/><stop stop-opacity="1" stop-color="rgb(39.051819%, 79.379272%, 91.748047%)" offset="0.78125"/><stop stop-opacity="1" stop-color="rgb(38.961792%, 79.646301%, 91.700745%)" offset="0.785156"/><stop stop-opacity="1" stop-color="rgb(38.873291%, 79.91333%, 91.654968%)" offset="0.789062"/><stop stop-opacity="1" stop-color="rgb(38.783264%, 80.178833%, 91.607666%)" offset="0.792969"/><stop stop-opacity="1" stop-color="rgb(38.694763%, 80.445862%, 91.56189%)" offset="0.796875"/><stop stop-opacity="1" stop-color="rgb(38.604736%, 80.711365%, 91.514587%)" offset="0.800781"/><stop stop-opacity="1" stop-color="rgb(38.516235%, 80.978394%, 91.468811%)" offset="0.804687"/><stop stop-opacity="1" stop-color="rgb(38.426208%, 81.243896%, 91.421509%)" offset="0.808594"/><stop stop-opacity="1" stop-color="rgb(38.337708%, 81.510925%, 91.374207%)" offset="0.8125"/><stop stop-opacity="1" stop-color="rgb(38.247681%, 81.776428%, 91.326904%)" offset="0.816406"/><stop stop-opacity="1" stop-color="rgb(38.157654%, 82.043457%, 91.281128%)" offset="0.820312"/><stop stop-opacity="1" stop-color="rgb(38.067627%, 82.310486%, 91.233826%)" offset="0.824219"/><stop stop-opacity="1" stop-color="rgb(37.979126%, 82.577515%, 91.188049%)" offset="0.828125"/><stop stop-opacity="1" stop-color="rgb(37.889099%, 82.843018%, 91.140747%)" offset="0.832031"/><stop stop-opacity="1" stop-color="rgb(37.800598%, 83.110046%, 91.094971%)" offset="0.835937"/><stop stop-opacity="1" stop-color="rgb(37.710571%, 83.375549%, 91.047668%)" offset="0.839844"/><stop stop-opacity="1" stop-color="rgb(37.62207%, 83.642578%, 91.001892%)" offset="0.84375"/><stop stop-opacity="1" stop-color="rgb(37.532043%, 83.908081%, 90.95459%)" offset="0.847656"/><stop stop-opacity="1" stop-color="rgb(37.443542%, 84.17511%, 90.908813%)" offset="0.851562"/><stop stop-opacity="1" stop-color="rgb(37.353516%, 84.440613%, 90.861511%)" offset="0.855469"/><stop stop-opacity="1" stop-color="rgb(37.265015%, 84.707642%, 90.815735%)" offset="0.859375"/><stop stop-opacity="1" stop-color="rgb(37.174988%, 84.973145%, 90.768433%)" offset="0.863281"/><stop stop-opacity="1" stop-color="rgb(37.084961%, 85.240173%, 90.722656%)" offset="0.867187"/><stop stop-opacity="1" stop-color="rgb(36.994934%, 85.507202%, 90.675354%)" offset="0.871094"/><stop stop-opacity="1" stop-color="rgb(36.906433%, 85.774231%, 90.629578%)" offset="0.875"/><stop stop-opacity="1" stop-color="rgb(36.816406%, 86.039734%, 90.582275%)" offset="0.878906"/><stop stop-opacity="1" stop-color="rgb(36.727905%, 86.306763%, 90.536499%)" offset="0.882813"/><stop stop-opacity="1" stop-color="rgb(36.637878%, 86.572266%, 90.489197%)" offset="0.886719"/><stop stop-opacity="1" stop-color="rgb(36.549377%, 86.839294%, 90.44342%)" offset="0.890625"/><stop stop-opacity="1" stop-color="rgb(36.459351%, 87.104797%, 90.396118%)" offset="0.894531"/><stop stop-opacity="1" stop-color="rgb(36.37085%, 87.371826%, 90.350342%)" offset="0.898438"/><stop stop-opacity="1" stop-color="rgb(36.280823%, 87.637329%, 90.30304%)" offset="0.902344"/><stop stop-opacity="1" stop-color="rgb(36.190796%, 87.904358%, 90.257263%)" offset="0.90625"/><stop stop-opacity="1" stop-color="rgb(36.134338%, 88.070679%, 90.228271%)" offset="0.9375"/><stop stop-opacity="1" stop-color="rgb(36.079407%, 88.238525%, 90.19928%)" offset="1"/></linearGradient><clipPath id="d83342c7e1"><rect x="0" width="223" y="0" height="39"/></clipPath><clipPath id="b70cb34c37"><path d="M 0.421875 0.488281 L 222.339844 0.488281 L 222.339844 38.511719 L 0.421875 38.511719 Z M 0.421875 0.488281 " clip-rule="nonzero"/></clipPath><clipPath id="c6309037cf"><rect x="0" width="223" y="0" height="39"/></clipPath><clipPath id="60711b6582"><rect x="0" width="223" y="0" height="39"/></clipPath><mask id="c4a719ebdf"><g filter="url(#6c51bbb369)"><g transform="matrix(1, 0, 0, 1, 0.000000000000000222, 0.000000000000003553)"><g clip-path="url(#60711b6582)"><g clip-path="url(#b70cb34c37)"><g transform="matrix(1, 0, 0, 1, 0.000000000000000222, 0.000000000000003553)"><g clip-path="url(#c6309037cf)"><g fill="#000000" fill-opacity="1"><g transform="translate(30.127338, 27.134502)"><g><path d="M 0.609375 0 L 0.609375 -6.21875 L 1.734375 -6.21875 L 1.734375 0 Z M 0.609375 0 "/></g></g></g><g fill="#000000" fill-opacity="1"><g transform="translate(34.248498, 27.134502)"><g><path d="M 0.609375 0 L 0.609375 -6.21875 L 1.734375 -6.21875 L 4.65625 -1.84375 L 4.65625 -6.21875 L 5.796875 -6.21875 L 5.796875 0 L 4.65625 0 L 1.734375 -4.359375 L 1.734375 0 Z M 0.609375 0 "/></g></g></g><g fill="#000000" fill-opacity="1"><g transform="translate(42.428557, 27.134502)"><g><path d="M 0.609375 0 L 0.609375 -6.21875 L 1.734375 -6.21875 L 4.65625 -1.84375 L 4.65625 -6.21875 L 5.796875 -6.21875 L 5.796875 0 L 4.65625 0 L 1.734375 -4.359375 L 1.734375 0 Z M 0.609375 0 "/></g></g></g><g fill="#000000" fill-opacity="1"><g transform="translate(50.608616, 27.134502)"><g><path d="M 3.515625 0.109375 C 2.890625 0.109375 2.34375 -0.0234375 1.875 -0.296875 C 1.414062 -0.566406 1.054688 -0.941406 0.796875 -1.421875 C 0.535156 -1.910156 0.40625 -2.472656 0.40625 -3.109375 C 0.40625 -3.742188 0.535156 -4.300781 0.796875 -4.78125 C 1.054688 -5.257812 1.414062 -5.632812 1.875 -5.90625 C 2.34375 -6.175781 2.890625 -6.3125 3.515625 -6.3125 C 4.128906 -6.3125 4.671875 -6.175781 5.140625 -5.90625 C 5.609375 -5.632812 5.972656 -5.257812 6.234375 -4.78125 C 6.492188 -4.300781 6.625 -3.742188 6.625 -3.109375 C 6.625 -2.472656 6.492188 -1.910156 6.234375 -1.421875 C 5.972656 -0.941406 5.609375 -0.566406 5.140625 -0.296875 C 4.671875 -0.0234375 4.128906 0.109375 3.515625 0.109375 Z M 3.515625 -0.921875 C 4.109375 -0.921875 4.578125 -1.113281 4.921875 -1.5 C 5.273438 -1.882812 5.453125 -2.421875 5.453125 -3.109375 C 5.453125 -3.785156 5.273438 -4.316406 4.921875 -4.703125 C 4.578125 -5.097656 4.109375 -5.296875 3.515625 -5.296875 C 2.921875 -5.296875 2.445312 -5.097656 2.09375 -4.703125 C 1.738281 -4.316406 1.5625 -3.785156 1.5625 -3.109375 C 1.5625 -2.421875 1.738281 -1.882812 2.09375 -1.5 C 2.445312 -1.113281 2.921875 -0.921875 3.515625 -0.921875 Z M 3.515625 -0.921875 "/></g></g></g><g fill="#000000" fill-opacity="1"><g transform="translate(59.206117, 27.134502)"><g><path d="M 2.40625 0 L 0.140625 -6.21875 L 1.34375 -6.21875 L 3.109375 -1.15625 L 4.875 -6.21875 L 6.078125 -6.21875 L 3.796875 0 Z M 2.40625 0 "/></g></g></g><g fill="#000000" fill-opacity="1"><g transform="translate(66.400332, 27.134502)"><g><path d="M 0.203125 0 L 2.46875 -6.21875 L 3.75 -6.21875 L 6.03125 0 L 4.8125 0 L 4.328125 -1.4375 L 1.90625 -1.4375 L 1.390625 0 Z M 2.203125 -2.328125 L 4.015625 -2.328125 L 3.109375 -4.90625 Z M 2.203125 -2.328125 "/></g></g></g><g fill="#000000" fill-opacity="1"><g transform="translate(73.745529, 27.134502)"><g><path d="M 2.046875 0 L 2.046875 -5.296875 L 0.234375 -5.296875 L 0.234375 -6.21875 L 5 -6.21875 L 5 -5.296875 L 3.1875 -5.296875 L 3.1875 0 Z M 2.046875 0 "/></g></g></g><g fill="#000000" fill-opacity="1"><g transform="translate(80.770985, 27.134502)"><g><path d="M 0.609375 0 L 0.609375 -6.21875 L 4.65625 -6.21875 L 4.65625 -5.296875 L 1.734375 -5.296875 L 1.734375 -3.59375 L 4.390625 -3.59375 L 4.390625 -2.703125 L 1.734375 -2.703125 L 1.734375 -0.921875 L 4.65625 -0.921875 L 4.65625 0 Z M 0.609375 0 "/></g></g></g><g fill="#000000" fill-opacity="1"><g transform="translate(87.680976, 27.134502)"><g><path d="M 1.0625 0.0625 C 0.851562 0.0625 0.679688 0 0.546875 -0.125 C 0.421875 -0.257812 0.359375 -0.421875 0.359375 -0.609375 C 0.359375 -0.796875 0.421875 -0.953125 0.546875 -1.078125 C 0.679688 -1.210938 0.851562 -1.28125 1.0625 -1.28125 C 1.269531 -1.28125 1.441406 -1.210938 1.578125 -1.078125 C 1.710938 -0.953125 1.78125 -0.796875 1.78125 -0.609375 C 1.78125 -0.421875 1.710938 -0.257812 1.578125 -0.125 C 1.441406 0 1.269531 0.0625 1.0625 0.0625 Z M 1.0625 0.0625 "/></g></g></g><g fill="#000000" fill-opacity="1"><g transform="translate(91.588971, 27.134502)"><g/></g></g><g fill="#000000" fill-opacity="1"><g transform="translate(95.479201, 27.134502)"><g><path d="M 0.609375 0 L 0.609375 -6.21875 L 1.734375 -6.21875 L 1.734375 0 Z M 0.609375 0 "/></g></g></g><g fill="#000000" fill-opacity="1"><g transform="translate(99.600361, 27.134502)"><g><path d="M 0.609375 0 L 0.609375 -6.21875 L 1.734375 -6.21875 L 4.65625 -1.84375 L 4.65625 -6.21875 L 5.796875 -6.21875 L 5.796875 0 L 4.65625 0 L 1.734375 -4.359375 L 1.734375 0 Z M 0.609375 0 "/></g></g></g><g fill="#000000" fill-opacity="1"><g transform="translate(107.78042, 27.134502)"><g><path d="M 2.71875 0.109375 C 2.269531 0.109375 1.867188 0.03125 1.515625 -0.125 C 1.171875 -0.28125 0.894531 -0.503906 0.6875 -0.796875 C 0.488281 -1.097656 0.382812 -1.457031 0.375 -1.875 L 1.578125 -1.875 C 1.585938 -1.582031 1.691406 -1.335938 1.890625 -1.140625 C 2.085938 -0.941406 2.363281 -0.84375 2.71875 -0.84375 C 3.019531 -0.84375 3.257812 -0.914062 3.4375 -1.0625 C 3.613281 -1.207031 3.703125 -1.398438 3.703125 -1.640625 C 3.703125 -1.898438 3.625 -2.097656 3.46875 -2.234375 C 3.3125 -2.378906 3.101562 -2.492188 2.84375 -2.578125 C 2.582031 -2.671875 2.300781 -2.765625 2 -2.859375 C 1.519531 -3.023438 1.15625 -3.238281 0.90625 -3.5 C 0.65625 -3.757812 0.53125 -4.109375 0.53125 -4.546875 C 0.53125 -4.910156 0.617188 -5.222656 0.796875 -5.484375 C 0.972656 -5.753906 1.21875 -5.957031 1.53125 -6.09375 C 1.84375 -6.238281 2.207031 -6.3125 2.625 -6.3125 C 3.03125 -6.3125 3.390625 -6.238281 3.703125 -6.09375 C 4.023438 -5.945312 4.273438 -5.738281 4.453125 -5.46875 C 4.640625 -5.207031 4.738281 -4.894531 4.75 -4.53125 L 3.53125 -4.53125 C 3.519531 -4.75 3.429688 -4.941406 3.265625 -5.109375 C 3.109375 -5.273438 2.882812 -5.359375 2.59375 -5.359375 C 2.351562 -5.367188 2.144531 -5.304688 1.96875 -5.171875 C 1.800781 -5.046875 1.71875 -4.863281 1.71875 -4.625 C 1.71875 -4.414062 1.78125 -4.25 1.90625 -4.125 C 2.039062 -4.007812 2.21875 -3.910156 2.4375 -3.828125 C 2.664062 -3.742188 2.925781 -3.65625 3.21875 -3.5625 C 3.53125 -3.457031 3.8125 -3.332031 4.0625 -3.1875 C 4.320312 -3.039062 4.523438 -2.847656 4.671875 -2.609375 C 4.828125 -2.378906 4.90625 -2.082031 4.90625 -1.71875 C 4.90625 -1.394531 4.820312 -1.09375 4.65625 -0.8125 C 4.488281 -0.539062 4.242188 -0.316406 3.921875 -0.140625 C 3.597656 0.0234375 3.195312 0.109375 2.71875 0.109375 Z M 2.71875 0.109375 "/></g></g></g><g fill="#000000" fill-opacity="1"><g transform="translate(114.859159, 27.134502)"><g><path d="M 0.609375 0 L 0.609375 -6.21875 L 2.90625 -6.21875 C 3.394531 -6.21875 3.800781 -6.132812 4.125 -5.96875 C 4.457031 -5.800781 4.703125 -5.570312 4.859375 -5.28125 C 5.023438 -4.988281 5.109375 -4.660156 5.109375 -4.296875 C 5.109375 -3.960938 5.03125 -3.648438 4.875 -3.359375 C 4.71875 -3.066406 4.476562 -2.832031 4.15625 -2.65625 C 3.832031 -2.488281 3.414062 -2.40625 2.90625 -2.40625 L 1.734375 -2.40625 L 1.734375 0 Z M 1.734375 -3.328125 L 2.828125 -3.328125 C 3.222656 -3.328125 3.507812 -3.414062 3.6875 -3.59375 C 3.863281 -3.769531 3.953125 -4.003906 3.953125 -4.296875 C 3.953125 -4.609375 3.863281 -4.851562 3.6875 -5.03125 C 3.507812 -5.207031 3.222656 -5.296875 2.828125 -5.296875 L 1.734375 -5.296875 Z M 1.734375 -3.328125 "/></g></g></g><g fill="#000000" fill-opacity="1"><g transform="translate(122.026721, 27.134502)"><g><path d="M 0.609375 0 L 0.609375 -6.21875 L 1.734375 -6.21875 L 1.734375 0 Z M 0.609375 0 "/></g></g></g><g fill="#000000" fill-opacity="1"><g transform="translate(126.147881, 27.134502)"><g><path d="M 0.609375 0 L 0.609375 -6.21875 L 2.890625 -6.21875 C 3.378906 -6.21875 3.785156 -6.128906 4.109375 -5.953125 C 4.429688 -5.785156 4.671875 -5.554688 4.828125 -5.265625 C 4.992188 -4.984375 5.078125 -4.671875 5.078125 -4.328125 C 5.078125 -3.941406 4.976562 -3.59375 4.78125 -3.28125 C 4.582031 -2.96875 4.273438 -2.738281 3.859375 -2.59375 L 5.140625 0 L 3.828125 0 L 2.6875 -2.453125 L 1.734375 -2.453125 L 1.734375 0 Z M 1.734375 -3.28125 L 2.8125 -3.28125 C 3.1875 -3.28125 3.460938 -3.367188 3.640625 -3.546875 C 3.816406 -3.734375 3.90625 -3.976562 3.90625 -4.28125 C 3.90625 -4.582031 3.816406 -4.820312 3.640625 -5 C 3.472656 -5.175781 3.191406 -5.265625 2.796875 -5.265625 L 1.734375 -5.265625 Z M 1.734375 -3.28125 "/></g></g></g><g fill="#000000" fill-opacity="1"><g transform="translate(133.457549, 27.134502)"><g><path d="M 0.609375 0 L 0.609375 -6.21875 L 4.65625 -6.21875 L 4.65625 -5.296875 L 1.734375 -5.296875 L 1.734375 -3.59375 L 4.390625 -3.59375 L 4.390625 -2.703125 L 1.734375 -2.703125 L 1.734375 -0.921875 L 4.65625 -0.921875 L 4.65625 0 Z M 0.609375 0 "/></g></g></g><g fill="#000000" fill-opacity="1"><g transform="translate(140.36754, 27.134502)"><g><path d="M 1.0625 0.0625 C 0.851562 0.0625 0.679688 0 0.546875 -0.125 C 0.421875 -0.257812 0.359375 -0.421875 0.359375 -0.609375 C 0.359375 -0.796875 0.421875 -0.953125 0.546875 -1.078125 C 0.679688 -1.210938 0.851562 -1.28125 1.0625 -1.28125 C 1.269531 -1.28125 1.441406 -1.210938 1.578125 -1.078125 C 1.710938 -0.953125 1.78125 -0.796875 1.78125 -0.609375 C 1.78125 -0.421875 1.710938 -0.257812 1.578125 -0.125 C 1.441406 0 1.269531 0.0625 1.0625 0.0625 Z M 1.0625 0.0625 "/></g></g></g><g fill="#000000" fill-opacity="1"><g transform="translate(144.275535, 27.134502)"><g/></g></g><g fill="#000000" fill-opacity="1"><g transform="translate(148.165765, 27.134502)"><g><path d="M 0.609375 0 L 0.609375 -6.21875 L 1.734375 -6.21875 L 1.734375 0 Z M 0.609375 0 "/></g></g></g><g fill="#000000" fill-opacity="1"><g transform="translate(152.286925, 27.134502)"><g><path d="M 0.609375 0 L 0.609375 -6.21875 L 1.953125 -6.21875 L 3.9375 -2.265625 L 5.890625 -6.21875 L 7.234375 -6.21875 L 7.234375 0 L 6.09375 0 L 6.09375 -4.28125 L 4.359375 -0.890625 L 3.46875 -0.890625 L 1.734375 -4.28125 L 1.734375 0 Z M 0.609375 0 "/></g></g></g><g fill="#000000" fill-opacity="1"><g transform="translate(161.905811, 27.134502)"><g><path d="M 0.609375 0 L 0.609375 -6.21875 L 2.90625 -6.21875 C 3.394531 -6.21875 3.800781 -6.132812 4.125 -5.96875 C 4.457031 -5.800781 4.703125 -5.570312 4.859375 -5.28125 C 5.023438 -4.988281 5.109375 -4.660156 5.109375 -4.296875 C 5.109375 -3.960938 5.03125 -3.648438 4.875 -3.359375 C 4.71875 -3.066406 4.476562 -2.832031 4.15625 -2.65625 C 3.832031 -2.488281 3.414062 -2.40625 2.90625 -2.40625 L 1.734375 -2.40625 L 1.734375 0 Z M 1.734375 -3.328125 L 2.828125 -3.328125 C 3.222656 -3.328125 3.507812 -3.414062 3.6875 -3.59375 C 3.863281 -3.769531 3.953125 -4.003906 3.953125 -4.296875 C 3.953125 -4.609375 3.863281 -4.851562 3.6875 -5.03125 C 3.507812 -5.207031 3.222656 -5.296875 2.828125 -5.296875 L 1.734375 -5.296875 Z M 1.734375 -3.328125 "/></g></g></g><g fill="#000000" fill-opacity="1"><g transform="translate(168.407259, 27.134502)"><g><path d="M 0.203125 0 L 2.46875 -6.21875 L 3.75 -6.21875 L 6.03125 0 L 4.8125 0 L 4.328125 -1.4375 L 1.90625 -1.4375 L 1.390625 0 Z M 2.203125 -2.328125 L 4.015625 -2.328125 L 3.109375 -4.90625 Z M 2.203125 -2.328125 "/></g></g></g><g fill="#000000" fill-opacity="1"><g transform="translate(176.054434, 27.134502)"><g><path d="M 3.421875 0.109375 C 2.785156 0.109375 2.242188 -0.0234375 1.796875 -0.296875 C 1.347656 -0.566406 1.003906 -0.941406 0.765625 -1.421875 C 0.523438 -1.898438 0.40625 -2.457031 0.40625 -3.09375 C 0.40625 -3.726562 0.523438 -4.285156 0.765625 -4.765625 C 1.003906 -5.253906 1.347656 -5.632812 1.796875 -5.90625 C 2.242188 -6.175781 2.785156 -6.3125 3.421875 -6.3125 C 4.160156 -6.3125 4.769531 -6.125 5.25 -5.75 C 5.726562 -5.382812 6.023438 -4.867188 6.140625 -4.203125 L 4.890625 -4.203125 C 4.816406 -4.546875 4.648438 -4.8125 4.390625 -5 C 4.140625 -5.195312 3.8125 -5.296875 3.40625 -5.296875 C 2.820312 -5.296875 2.367188 -5.097656 2.046875 -4.703125 C 1.722656 -4.316406 1.5625 -3.78125 1.5625 -3.09375 C 1.5625 -2.414062 1.722656 -1.882812 2.046875 -1.5 C 2.367188 -1.113281 2.820312 -0.921875 3.40625 -0.921875 C 3.8125 -0.921875 4.140625 -1.007812 4.390625 -1.1875 C 4.648438 -1.363281 4.816406 -1.613281 4.890625 -1.9375 L 6.140625 -1.9375 C 6.023438 -1.289062 5.726562 -0.785156 5.25 -0.421875 C 4.769531 -0.0664062 4.160156 0.109375 3.421875 0.109375 Z M 3.421875 0.109375 "/></g></g></g><g fill="#000000" fill-opacity="1"><g transform="translate(184.296664, 27.134502)"><g><path d="M 2.046875 0 L 2.046875 -5.296875 L 0.234375 -5.296875 L 0.234375 -6.21875 L 5 -6.21875 L 5 -5.296875 L 3.1875 -5.296875 L 3.1875 0 Z M 2.046875 0 "/></g></g></g><g fill="#000000" fill-opacity="1"><g transform="translate(190.611588, 27.134502)"><g><path d="M 1.0625 0.0625 C 0.851562 0.0625 0.679688 0 0.546875 -0.125 C 0.421875 -0.257812 0.359375 -0.421875 0.359375 -0.609375 C 0.359375 -0.796875 0.421875 -0.953125 0.546875 -1.078125 C 0.679688 -1.210938 0.851562 -1.28125 1.0625 -1.28125 C 1.269531 -1.28125 1.441406 -1.210938 1.578125 -1.078125 C 1.710938 -0.953125 1.78125 -0.796875 1.78125 -0.609375 C 1.78125 -0.421875 1.710938 -0.257812 1.578125 -0.125 C 1.441406 0 1.269531 0.0625 1.0625 0.0625 Z M 1.0625 0.0625 "/></g></g></g></g></g></g></g></g></g></mask><clipPath id="c4349cae61"><path d="M 12.414062 0.488281 L 212.242188 0.488281 L 212.242188 38.511719 L 12.414062 38.511719 Z M 12.414062 0.488281 " clip-rule="nonzero"/></clipPath><clipPath id="1d18936900"><rect x="0" width="223" y="0" height="39"/></clipPath><clipPath id="cb24aa71c2"><rect x="0" width="223" y="0" height="39"/></clipPath></defs><g clip-path="url(#e98a10f6ac)"><g transform="matrix(1, 0, 0, 1, 1, 0.000000000000004134)"><g clip-path="url(#6edaf92530)"><g clip-path="url(#33bb74bfab)"><g mask="url(#2add56f0b8)"><g transform="matrix(1, 0, 0, 1, 0.000000000000000222, 0.000000000000004134)"><g clip-path="url(#0429c0177c)"><g clip-path="url(#186bf17437)"><path fill="url(#7e78347a86)" d="M 32.746094 0 L 32.746094 55.511719 L 190.390625 55.511719 L 190.390625 0 Z M 32.746094 0 " fill-rule="nonzero"/></g></g></g></g></g></g></g></g><g clip-path="url(#dc7168967b)"><g transform="matrix(1, 0, 0, 1, 1, 17)"><g clip-path="url(#cb24aa71c2)"><g clip-path="url(#d653064144)"><g mask="url(#c4a719ebdf)"><g transform="matrix(1, 0, 0, 1, 0.000000000000000222, 0.000000000000003553)"><g clip-path="url(#1d18936900)"><g clip-path="url(#c4349cae61)"><path fill="url(#870ce70cfe)" d="M 12.414062 0.488281 L 12.414062 38.511719 L 212.242188 38.511719 L 212.242188 0.488281 Z M 12.414062 0.488281 " fill-rule="nonzero"/></g></g></g></g></g></g></g></g></svg>