<svg xmlns="http://www.w3.org/2000/svg" xmlns:xlink="http://www.w3.org/1999/xlink" width="140" zoomAndPan="magnify" viewBox="0 0 104.88 30.000001" height="40" preserveAspectRatio="xMidYMid meet" version="1.0"><defs><filter x="0%" y="0%" width="100%" height="100%" id="838549d289"><feColorMatrix values="0 0 0 0 1 0 0 0 0 1 0 0 0 0 1 0 0 0 1 0" color-interpolation-filters="sRGB"/></filter><g/><clipPath id="142a3b9982"><path d="M 1.632812 0 L 103.128906 0 L 103.128906 29.03125 L 1.632812 29.03125 Z M 1.632812 0 " clip-rule="nonzero"/></clipPath><clipPath id="8824e863d0"><path d="M 0.632812 0 L 102.128906 0 L 102.128906 29.03125 L 0.632812 29.03125 Z M 0.632812 0 " clip-rule="nonzero"/></clipPath><clipPath id="e5288cca10"><path d="M 4.847656 0 L 97.746094 0 L 97.746094 29.03125 L 4.847656 29.03125 Z M 4.847656 0 " clip-rule="nonzero"/></clipPath><linearGradient x1="5.869" gradientTransform="matrix(0.724365, 0, 0, 0.725691, 0.596958, 6.018024)" y1="7.5" x2="134.115994" gradientUnits="userSpaceOnUse" y2="7.5" id="d37b54712f"><stop stop-opacity="1" stop-color="rgb(36.468506%, 87.838745%, 90.19928%)" offset="0"/><stop stop-opacity="1" stop-color="rgb(36.468506%, 87.838745%, 90.19928%)" offset="0.125"/><stop stop-opacity="1" stop-color="rgb(36.468506%, 87.838745%, 90.19928%)" offset="0.1875"/><stop stop-opacity="1" stop-color="rgb(36.468506%, 87.838745%, 90.19928%)" offset="0.21875"/><stop stop-opacity="1" stop-color="rgb(36.468506%, 87.838745%, 90.19928%)" offset="0.234375"/><stop stop-opacity="1" stop-color="rgb(36.468506%, 87.838745%, 90.19928%)" offset="0.242187"/><stop stop-opacity="1" stop-color="rgb(36.312866%, 87.588501%, 90.103149%)" offset="0.246094"/><stop stop-opacity="1" stop-color="rgb(36.158752%, 87.338257%, 90.008545%)" offset="0.25"/><stop stop-opacity="1" stop-color="rgb(35.877991%, 86.886597%, 89.836121%)" offset="0.253906"/><stop stop-opacity="1" stop-color="rgb(35.598755%, 86.434937%, 89.665222%)" offset="0.257812"/><stop stop-opacity="1" stop-color="rgb(35.317993%, 85.983276%, 89.492798%)" offset="0.261719"/><stop stop-opacity="1" stop-color="rgb(35.038757%, 85.531616%, 89.321899%)" offset="0.265625"/><stop stop-opacity="1" stop-color="rgb(34.757996%, 85.079956%, 89.149475%)" offset="0.269531"/><stop stop-opacity="1" stop-color="rgb(34.47876%, 84.628296%, 88.978577%)" offset="0.273438"/><stop stop-opacity="1" stop-color="rgb(34.197998%, 84.176636%, 88.806152%)" offset="0.277344"/><stop stop-opacity="1" stop-color="rgb(33.917236%, 83.724976%, 88.635254%)" offset="0.28125"/><stop stop-opacity="1" stop-color="rgb(33.636475%, 83.273315%, 88.46283%)" offset="0.285156"/><stop stop-opacity="1" stop-color="rgb(33.357239%, 82.821655%, 88.291931%)" offset="0.289062"/><stop stop-opacity="1" stop-color="rgb(33.076477%, 82.369995%, 88.119507%)" offset="0.292969"/><stop stop-opacity="1" stop-color="rgb(32.797241%, 81.918335%, 87.948608%)" offset="0.296875"/><stop stop-opacity="1" stop-color="rgb(32.516479%, 81.465149%, 87.776184%)" offset="0.300781"/><stop stop-opacity="1" stop-color="rgb(32.237244%, 81.013489%, 87.605286%)" offset="0.304687"/><stop stop-opacity="1" stop-color="rgb(31.956482%, 80.561829%, 87.432861%)" offset="0.308594"/><stop stop-opacity="1" stop-color="rgb(31.677246%, 80.110168%, 87.261963%)" offset="0.3125"/><stop stop-opacity="1" stop-color="rgb(31.396484%, 79.658508%, 87.089539%)" offset="0.316406"/><stop stop-opacity="1" stop-color="rgb(31.117249%, 79.206848%, 86.91864%)" offset="0.320312"/><stop stop-opacity="1" stop-color="rgb(30.836487%, 78.755188%, 86.746216%)" offset="0.324219"/><stop stop-opacity="1" stop-color="rgb(30.557251%, 78.303528%, 86.573792%)" offset="0.328125"/><stop stop-opacity="1" stop-color="rgb(30.276489%, 77.851868%, 86.401367%)" offset="0.332031"/><stop stop-opacity="1" stop-color="rgb(29.997253%, 77.400208%, 86.230469%)" offset="0.335937"/><stop stop-opacity="1" stop-color="rgb(29.716492%, 76.948547%, 86.058044%)" offset="0.339844"/><stop stop-opacity="1" stop-color="rgb(29.437256%, 76.496887%, 85.887146%)" offset="0.34375"/><stop stop-opacity="1" stop-color="rgb(29.156494%, 76.045227%, 85.714722%)" offset="0.347656"/><stop stop-opacity="1" stop-color="rgb(28.877258%, 75.593567%, 85.543823%)" offset="0.351562"/><stop stop-opacity="1" stop-color="rgb(28.596497%, 75.141907%, 85.371399%)" offset="0.355469"/><stop stop-opacity="1" stop-color="rgb(28.317261%, 74.690247%, 85.2005%)" offset="0.359375"/><stop stop-opacity="1" stop-color="rgb(28.036499%, 74.238586%, 85.028076%)" offset="0.363281"/><stop stop-opacity="1" stop-color="rgb(27.755737%, 73.786926%, 84.857178%)" offset="0.367187"/><stop stop-opacity="1" stop-color="rgb(27.474976%, 73.335266%, 84.684753%)" offset="0.371094"/><stop stop-opacity="1" stop-color="rgb(27.19574%, 72.883606%, 84.513855%)" offset="0.375"/><stop stop-opacity="1" stop-color="rgb(26.914978%, 72.431946%, 84.341431%)" offset="0.378906"/><stop stop-opacity="1" stop-color="rgb(26.635742%, 71.980286%, 84.170532%)" offset="0.382812"/><stop stop-opacity="1" stop-color="rgb(26.35498%, 71.528625%, 83.998108%)" offset="0.386719"/><stop stop-opacity="1" stop-color="rgb(26.075745%, 71.076965%, 83.827209%)" offset="0.390625"/><stop stop-opacity="1" stop-color="rgb(25.794983%, 70.625305%, 83.654785%)" offset="0.394531"/><stop stop-opacity="1" stop-color="rgb(25.515747%, 70.173645%, 83.483887%)" offset="0.398437"/><stop stop-opacity="1" stop-color="rgb(25.234985%, 69.721985%, 83.311462%)" offset="0.402344"/><stop stop-opacity="1" stop-color="rgb(24.95575%, 69.270325%, 83.140564%)" offset="0.40625"/><stop stop-opacity="1" stop-color="rgb(24.674988%, 68.818665%, 82.96814%)" offset="0.410156"/><stop stop-opacity="1" stop-color="rgb(24.395752%, 68.367004%, 82.797241%)" offset="0.414062"/><stop stop-opacity="1" stop-color="rgb(24.11499%, 67.915344%, 82.624817%)" offset="0.417969"/><stop stop-opacity="1" stop-color="rgb(23.835754%, 67.463684%, 82.453918%)" offset="0.421875"/><stop stop-opacity="1" stop-color="rgb(23.554993%, 67.010498%, 82.281494%)" offset="0.425781"/><stop stop-opacity="1" stop-color="rgb(23.275757%, 66.558838%, 82.110596%)" offset="0.429687"/><stop stop-opacity="1" stop-color="rgb(22.994995%, 66.107178%, 81.938171%)" offset="0.433594"/><stop stop-opacity="1" stop-color="rgb(22.715759%, 65.655518%, 81.765747%)" offset="0.4375"/><stop stop-opacity="1" stop-color="rgb(22.434998%, 65.203857%, 81.593323%)" offset="0.441406"/><stop stop-opacity="1" stop-color="rgb(22.154236%, 64.752197%, 81.422424%)" offset="0.445312"/><stop stop-opacity="1" stop-color="rgb(21.873474%, 64.300537%, 81.25%)" offset="0.449219"/><stop stop-opacity="1" stop-color="rgb(21.594238%, 63.848877%, 81.079102%)" offset="0.453125"/><stop stop-opacity="1" stop-color="rgb(21.313477%, 63.397217%, 80.906677%)" offset="0.457031"/><stop stop-opacity="1" stop-color="rgb(21.034241%, 62.945557%, 80.735779%)" offset="0.460937"/><stop stop-opacity="1" stop-color="rgb(20.753479%, 62.493896%, 80.563354%)" offset="0.464844"/><stop stop-opacity="1" stop-color="rgb(20.474243%, 62.042236%, 80.392456%)" offset="0.46875"/><stop stop-opacity="1" stop-color="rgb(20.193481%, 61.590576%, 80.220032%)" offset="0.472656"/><stop stop-opacity="1" stop-color="rgb(19.914246%, 61.138916%, 80.049133%)" offset="0.476562"/><stop stop-opacity="1" stop-color="rgb(19.633484%, 60.687256%, 79.876709%)" offset="0.480469"/><stop stop-opacity="1" stop-color="rgb(19.354248%, 60.235596%, 79.705811%)" offset="0.484375"/><stop stop-opacity="1" stop-color="rgb(19.073486%, 59.783936%, 79.533386%)" offset="0.488281"/><stop stop-opacity="1" stop-color="rgb(18.79425%, 59.332275%, 79.362488%)" offset="0.492187"/><stop stop-opacity="1" stop-color="rgb(18.513489%, 58.880615%, 79.190063%)" offset="0.496094"/><stop stop-opacity="1" stop-color="rgb(18.234253%, 58.428955%, 79.019165%)" offset="0.5"/><stop stop-opacity="1" stop-color="rgb(17.953491%, 57.977295%, 78.846741%)" offset="0.503906"/><stop stop-opacity="1" stop-color="rgb(17.674255%, 57.525635%, 78.675842%)" offset="0.507812"/><stop stop-opacity="1" stop-color="rgb(17.393494%, 57.073975%, 78.503418%)" offset="0.511719"/><stop stop-opacity="1" stop-color="rgb(17.114258%, 56.622314%, 78.33252%)" offset="0.515625"/><stop stop-opacity="1" stop-color="rgb(16.833496%, 56.170654%, 78.160095%)" offset="0.519531"/><stop stop-opacity="1" stop-color="rgb(16.55426%, 55.718994%, 77.989197%)" offset="0.523437"/><stop stop-opacity="1" stop-color="rgb(16.273499%, 55.267334%, 77.816772%)" offset="0.527344"/><stop stop-opacity="1" stop-color="rgb(15.992737%, 54.815674%, 77.645874%)" offset="0.53125"/><stop stop-opacity="1" stop-color="rgb(15.711975%, 54.364014%, 77.47345%)" offset="0.535156"/><stop stop-opacity="1" stop-color="rgb(15.432739%, 53.912354%, 77.302551%)" offset="0.539062"/><stop stop-opacity="1" stop-color="rgb(15.151978%, 53.460693%, 77.130127%)" offset="0.542969"/><stop stop-opacity="1" stop-color="rgb(14.872742%, 53.009033%, 76.959229%)" offset="0.546875"/><stop stop-opacity="1" stop-color="rgb(14.59198%, 52.555847%, 76.786804%)" offset="0.550781"/><stop stop-opacity="1" stop-color="rgb(14.312744%, 52.104187%, 76.61438%)" offset="0.554687"/><stop stop-opacity="1" stop-color="rgb(14.031982%, 51.652527%, 76.441956%)" offset="0.558594"/><stop stop-opacity="1" stop-color="rgb(13.752747%, 51.200867%, 76.271057%)" offset="0.5625"/><stop stop-opacity="1" stop-color="rgb(13.471985%, 50.749207%, 76.098633%)" offset="0.566406"/><stop stop-opacity="1" stop-color="rgb(13.192749%, 50.297546%, 75.927734%)" offset="0.570312"/><stop stop-opacity="1" stop-color="rgb(12.911987%, 49.845886%, 75.75531%)" offset="0.574219"/><stop stop-opacity="1" stop-color="rgb(12.632751%, 49.394226%, 75.584412%)" offset="0.578125"/><stop stop-opacity="1" stop-color="rgb(12.35199%, 48.942566%, 75.411987%)" offset="0.582031"/><stop stop-opacity="1" stop-color="rgb(12.072754%, 48.490906%, 75.241089%)" offset="0.585938"/><stop stop-opacity="1" stop-color="rgb(11.791992%, 48.039246%, 75.068665%)" offset="0.589844"/><stop stop-opacity="1" stop-color="rgb(11.512756%, 47.587585%, 74.897766%)" offset="0.59375"/><stop stop-opacity="1" stop-color="rgb(11.231995%, 47.135925%, 74.725342%)" offset="0.597656"/><stop stop-opacity="1" stop-color="rgb(10.952759%, 46.684265%, 74.554443%)" offset="0.601562"/><stop stop-opacity="1" stop-color="rgb(10.671997%, 46.232605%, 74.382019%)" offset="0.605469"/><stop stop-opacity="1" stop-color="rgb(10.391235%, 45.780945%, 74.211121%)" offset="0.609375"/><stop stop-opacity="1" stop-color="rgb(10.110474%, 45.329285%, 74.038696%)" offset="0.613281"/><stop stop-opacity="1" stop-color="rgb(9.831238%, 44.877625%, 73.867798%)" offset="0.617188"/><stop stop-opacity="1" stop-color="rgb(9.550476%, 44.425964%, 73.695374%)" offset="0.621094"/><stop stop-opacity="1" stop-color="rgb(9.27124%, 43.974304%, 73.524475%)" offset="0.625"/><stop stop-opacity="1" stop-color="rgb(8.990479%, 43.522644%, 73.352051%)" offset="0.628906"/><stop stop-opacity="1" stop-color="rgb(8.711243%, 43.070984%, 73.181152%)" offset="0.632812"/><stop stop-opacity="1" stop-color="rgb(8.430481%, 42.619324%, 73.008728%)" offset="0.636719"/><stop stop-opacity="1" stop-color="rgb(8.151245%, 42.167664%, 72.83783%)" offset="0.640625"/><stop stop-opacity="1" stop-color="rgb(7.870483%, 41.716003%, 72.665405%)" offset="0.644531"/><stop stop-opacity="1" stop-color="rgb(7.591248%, 41.264343%, 72.494507%)" offset="0.648438"/><stop stop-opacity="1" stop-color="rgb(7.310486%, 40.812683%, 72.322083%)" offset="0.652344"/><stop stop-opacity="1" stop-color="rgb(7.03125%, 40.361023%, 72.151184%)" offset="0.65625"/><stop stop-opacity="1" stop-color="rgb(6.750488%, 39.909363%, 71.97876%)" offset="0.660156"/><stop stop-opacity="1" stop-color="rgb(6.471252%, 39.457703%, 71.806335%)" offset="0.664062"/><stop stop-opacity="1" stop-color="rgb(6.190491%, 39.004517%, 71.633911%)" offset="0.667969"/><stop stop-opacity="1" stop-color="rgb(5.911255%, 38.552856%, 71.463013%)" offset="0.671875"/><stop stop-opacity="1" stop-color="rgb(5.630493%, 38.101196%, 71.290588%)" offset="0.675781"/><stop stop-opacity="1" stop-color="rgb(5.351257%, 37.649536%, 71.11969%)" offset="0.679688"/><stop stop-opacity="1" stop-color="rgb(5.070496%, 37.197876%, 70.947266%)" offset="0.683594"/><stop stop-opacity="1" stop-color="rgb(4.79126%, 36.746216%, 70.776367%)" offset="0.6875"/><stop stop-opacity="1" stop-color="rgb(4.510498%, 36.294556%, 70.603943%)" offset="0.691406"/><stop stop-opacity="1" stop-color="rgb(4.229736%, 35.842896%, 70.433044%)" offset="0.695312"/><stop stop-opacity="1" stop-color="rgb(3.948975%, 35.391235%, 70.26062%)" offset="0.699219"/><stop stop-opacity="1" stop-color="rgb(3.669739%, 34.939575%, 70.089722%)" offset="0.703125"/><stop stop-opacity="1" stop-color="rgb(3.388977%, 34.487915%, 69.917297%)" offset="0.707031"/><stop stop-opacity="1" stop-color="rgb(3.109741%, 34.036255%, 69.746399%)" offset="0.710937"/><stop stop-opacity="1" stop-color="rgb(2.828979%, 33.584595%, 69.573975%)" offset="0.714844"/><stop stop-opacity="1" stop-color="rgb(2.549744%, 33.132935%, 69.403076%)" offset="0.71875"/><stop stop-opacity="1" stop-color="rgb(2.268982%, 32.681274%, 69.230652%)" offset="0.722656"/><stop stop-opacity="1" stop-color="rgb(1.989746%, 32.229614%, 69.059753%)" offset="0.726562"/><stop stop-opacity="1" stop-color="rgb(1.708984%, 31.777954%, 68.887329%)" offset="0.730469"/><stop stop-opacity="1" stop-color="rgb(1.429749%, 31.326294%, 68.716431%)" offset="0.734375"/><stop stop-opacity="1" stop-color="rgb(1.148987%, 30.874634%, 68.544006%)" offset="0.738281"/><stop stop-opacity="1" stop-color="rgb(0.869751%, 30.422974%, 68.373108%)" offset="0.742187"/><stop stop-opacity="1" stop-color="rgb(0.588989%, 29.971313%, 68.200684%)" offset="0.746094"/><stop stop-opacity="1" stop-color="rgb(0.309753%, 29.519653%, 68.029785%)" offset="0.75"/><stop stop-opacity="1" stop-color="rgb(0.154114%, 29.269409%, 67.933655%)" offset="0.753906"/><stop stop-opacity="1" stop-color="rgb(0%, 29.019165%, 67.83905%)" offset="0.757812"/><stop stop-opacity="1" stop-color="rgb(0%, 29.019165%, 67.83905%)" offset="0.765625"/><stop stop-opacity="1" stop-color="rgb(0%, 29.019165%, 67.83905%)" offset="0.78125"/><stop stop-opacity="1" stop-color="rgb(0%, 29.019165%, 67.83905%)" offset="0.8125"/><stop stop-opacity="1" stop-color="rgb(0%, 29.019165%, 67.83905%)" offset="0.875"/><stop stop-opacity="1" stop-color="rgb(0%, 29.019165%, 67.83905%)" offset="1"/></linearGradient><clipPath id="8bdeb18d17"><rect x="0" width="103" y="0" height="30"/></clipPath><clipPath id="0074444c2a"><path d="M 0.632812 0 L 102.128906 0 L 102.128906 29.03125 L 0.632812 29.03125 Z M 0.632812 0 " clip-rule="nonzero"/></clipPath><clipPath id="0a756b41c6"><rect x="0" width="103" y="0" height="30"/></clipPath><clipPath id="c66242d378"><rect x="0" width="103" y="0" height="30"/></clipPath><mask id="750a605d24"><g filter="url(#838549d289)"><g transform="matrix(1, 0, 0, 1, 0.000000000000000222, 0.000000000000005692)"><g clip-path="url(#c66242d378)"><g clip-path="url(#0074444c2a)"><g transform="matrix(1, 0, 0, 1, 0.000000000000000222, 0.000000000000005692)"><g clip-path="url(#0a756b41c6)"><g fill="#000000" fill-opacity="1"><g transform="translate(27.61764, 15.81591)"><g><path d="M 5.6875 -2.25 C 5.632812 -2.125 5.609375 -2.015625 5.609375 -1.921875 C 5.609375 -1.773438 5.65625 -1.65625 5.75 -1.5625 C 5.851562 -1.476562 5.988281 -1.4375 6.15625 -1.4375 C 6.445312 -1.4375 6.753906 -1.566406 7.078125 -1.828125 C 7.410156 -2.097656 7.671875 -2.5 7.859375 -3.03125 L 10 -9.0625 C 10.113281 -9.351562 10.265625 -9.566406 10.453125 -9.703125 C 10.648438 -9.847656 10.859375 -9.921875 11.078125 -9.921875 C 11.296875 -9.921875 11.488281 -9.847656 11.65625 -9.703125 C 11.832031 -9.566406 11.921875 -9.359375 11.921875 -9.078125 C 11.921875 -9.015625 11.914062 -8.945312 11.90625 -8.875 C 11.894531 -8.800781 11.875 -8.722656 11.84375 -8.640625 L 9.703125 -2.671875 C 9.484375 -2.046875 9.164062 -1.535156 8.75 -1.140625 C 8.332031 -0.742188 7.882812 -0.453125 7.40625 -0.265625 C 6.925781 -0.0859375 6.460938 0 6.015625 0 C 5.578125 0 5.1875 -0.078125 4.84375 -0.234375 C 4.5 -0.398438 4.226562 -0.625 4.03125 -0.90625 C 3.75 -0.625 3.414062 -0.398438 3.03125 -0.234375 C 2.65625 -0.078125 2.28125 0 1.90625 0 C 1.53125 0 1.1875 -0.0703125 0.875 -0.21875 C 0.570312 -0.375 0.332031 -0.585938 0.15625 -0.859375 C -0.0195312 -1.140625 -0.109375 -1.457031 -0.109375 -1.8125 C -0.109375 -1.9375 -0.0976562 -2.0625 -0.078125 -2.1875 C -0.0546875 -2.3125 -0.0234375 -2.4375 0.015625 -2.5625 L 2.328125 -9.0625 C 2.429688 -9.351562 2.578125 -9.566406 2.765625 -9.703125 C 2.960938 -9.847656 3.171875 -9.921875 3.390625 -9.921875 C 3.609375 -9.921875 3.804688 -9.847656 3.984375 -9.703125 C 4.160156 -9.554688 4.25 -9.34375 4.25 -9.0625 C 4.25 -8.925781 4.222656 -8.785156 4.171875 -8.640625 L 1.90625 -2.296875 C 1.882812 -2.234375 1.867188 -2.171875 1.859375 -2.109375 C 1.859375 -2.054688 1.859375 -2.003906 1.859375 -1.953125 C 1.859375 -1.828125 1.890625 -1.722656 1.953125 -1.640625 C 2.023438 -1.554688 2.128906 -1.515625 2.265625 -1.515625 C 2.472656 -1.515625 2.6875 -1.582031 2.90625 -1.71875 C 3.132812 -1.863281 3.347656 -2.054688 3.546875 -2.296875 C 3.742188 -2.546875 3.894531 -2.820312 4 -3.125 L 6.140625 -9.0625 C 6.242188 -9.351562 6.394531 -9.566406 6.59375 -9.703125 C 6.789062 -9.847656 6.992188 -9.921875 7.203125 -9.921875 C 7.421875 -9.921875 7.617188 -9.847656 7.796875 -9.703125 C 7.972656 -9.566406 8.0625 -9.359375 8.0625 -9.078125 C 8.0625 -9.015625 8.054688 -8.945312 8.046875 -8.875 C 8.035156 -8.800781 8.015625 -8.722656 7.984375 -8.640625 Z M 5.6875 -2.25 "/></g></g></g><g fill="#000000" fill-opacity="1"><g transform="translate(38.248785, 15.81591)"><g><path d="M 6.515625 -3.3125 C 6.578125 -3.507812 6.675781 -3.648438 6.8125 -3.734375 C 6.945312 -3.816406 7.085938 -3.859375 7.234375 -3.859375 C 7.410156 -3.859375 7.570312 -3.800781 7.71875 -3.6875 C 7.863281 -3.582031 7.9375 -3.441406 7.9375 -3.265625 C 7.9375 -3.203125 7.925781 -3.128906 7.90625 -3.046875 C 7.625 -2.253906 7.304688 -1.632812 6.953125 -1.1875 C 6.609375 -0.75 6.242188 -0.441406 5.859375 -0.265625 C 5.484375 -0.0859375 5.113281 0 4.75 0 C 4.425781 0 4.117188 -0.0546875 3.828125 -0.171875 C 3.535156 -0.296875 3.300781 -0.476562 3.125 -0.71875 C 2.945312 -0.96875 2.859375 -1.273438 2.859375 -1.640625 C 2.859375 -1.867188 2.90625 -2.117188 3 -2.390625 L 3.828125 -4.78125 C 3.859375 -4.84375 3.875 -4.910156 3.875 -4.984375 C 3.875 -5.085938 3.835938 -5.175781 3.765625 -5.25 C 3.691406 -5.320312 3.597656 -5.359375 3.484375 -5.359375 C 3.304688 -5.359375 3.128906 -5.285156 2.953125 -5.140625 C 2.773438 -4.992188 2.625 -4.8125 2.5 -4.59375 L 1.125 -0.6875 C 1.039062 -0.445312 0.921875 -0.269531 0.765625 -0.15625 C 0.609375 -0.0507812 0.445312 0 0.28125 0 C 0.0820312 0 -0.09375 -0.0703125 -0.25 -0.21875 C -0.40625 -0.375 -0.484375 -0.578125 -0.484375 -0.828125 C -0.484375 -0.972656 -0.457031 -1.125 -0.40625 -1.28125 L 2.328125 -9.0625 C 2.441406 -9.363281 2.570312 -9.582031 2.71875 -9.71875 C 2.863281 -9.851562 3.046875 -9.921875 3.265625 -9.921875 C 3.460938 -9.921875 3.640625 -9.851562 3.796875 -9.71875 C 3.953125 -9.59375 4.03125 -9.410156 4.03125 -9.171875 C 4.03125 -9.097656 4.015625 -9.019531 3.984375 -8.9375 C 3.960938 -8.851562 3.9375 -8.765625 3.90625 -8.671875 L 3.1875 -6.5625 C 3.414062 -6.664062 3.660156 -6.71875 3.921875 -6.71875 C 4.234375 -6.71875 4.515625 -6.644531 4.765625 -6.5 C 5.015625 -6.351562 5.207031 -6.15625 5.34375 -5.90625 C 5.488281 -5.664062 5.5625 -5.394531 5.5625 -5.09375 C 5.5625 -4.988281 5.554688 -4.882812 5.546875 -4.78125 C 5.535156 -4.675781 5.507812 -4.570312 5.46875 -4.46875 L 4.53125 -1.8125 C 4.507812 -1.757812 4.5 -1.707031 4.5 -1.65625 C 4.5 -1.570312 4.53125 -1.5 4.59375 -1.4375 C 4.65625 -1.382812 4.738281 -1.359375 4.84375 -1.359375 C 5.101562 -1.359375 5.382812 -1.507812 5.6875 -1.8125 C 5.988281 -2.125 6.265625 -2.625 6.515625 -3.3125 Z M 6.515625 -3.3125 "/></g></g></g><g fill="#000000" fill-opacity="1"><g transform="translate(44.090177, 15.81591)"><g><path d="M 7.171875 -3.859375 C 7.335938 -3.859375 7.484375 -3.804688 7.609375 -3.703125 C 7.734375 -3.609375 7.796875 -3.460938 7.796875 -3.265625 C 7.796875 -3.171875 7.769531 -3.046875 7.71875 -2.890625 C 7.664062 -2.742188 7.597656 -2.554688 7.515625 -2.328125 C 7.265625 -1.710938 6.96875 -1.238281 6.625 -0.90625 C 6.289062 -0.570312 5.941406 -0.335938 5.578125 -0.203125 C 5.222656 -0.0664062 4.882812 0 4.5625 0 C 4.445312 0 4.289062 -0.015625 4.09375 -0.046875 C 3.90625 -0.078125 3.710938 -0.132812 3.515625 -0.21875 C 3.316406 -0.3125 3.160156 -0.445312 3.046875 -0.625 C 2.828125 -0.425781 2.585938 -0.269531 2.328125 -0.15625 C 2.066406 -0.0507812 1.800781 0 1.53125 0 C 1.195312 0 0.894531 -0.078125 0.625 -0.234375 C 0.363281 -0.390625 0.15625 -0.597656 0 -0.859375 C -0.15625 -1.128906 -0.234375 -1.421875 -0.234375 -1.734375 C -0.234375 -1.835938 -0.222656 -1.941406 -0.203125 -2.046875 C -0.179688 -2.148438 -0.15625 -2.25 -0.125 -2.34375 L 0.953125 -5.421875 C 1.097656 -5.859375 1.351562 -6.179688 1.71875 -6.390625 C 2.09375 -6.609375 2.46875 -6.71875 2.84375 -6.71875 C 3.125 -6.71875 3.375 -6.679688 3.59375 -6.609375 C 3.8125 -6.546875 3.984375 -6.472656 4.109375 -6.390625 C 4.203125 -6.535156 4.320312 -6.644531 4.46875 -6.71875 C 4.625 -6.789062 4.78125 -6.828125 4.9375 -6.828125 C 5.15625 -6.828125 5.347656 -6.757812 5.515625 -6.625 C 5.691406 -6.5 5.78125 -6.3125 5.78125 -6.0625 C 5.78125 -5.945312 5.753906 -5.820312 5.703125 -5.6875 L 4.421875 -1.984375 C 4.390625 -1.835938 4.375 -1.722656 4.375 -1.640625 C 4.375 -1.453125 4.472656 -1.359375 4.671875 -1.359375 C 4.847656 -1.359375 5.035156 -1.414062 5.234375 -1.53125 C 5.441406 -1.65625 5.644531 -1.851562 5.84375 -2.125 C 6.039062 -2.40625 6.210938 -2.773438 6.359375 -3.234375 C 6.429688 -3.453125 6.546875 -3.609375 6.703125 -3.703125 C 6.859375 -3.804688 7.015625 -3.859375 7.171875 -3.859375 Z M 3.390625 -3.984375 C 3.484375 -4.273438 3.53125 -4.5 3.53125 -4.65625 C 3.53125 -4.851562 3.476562 -5.003906 3.375 -5.109375 C 3.28125 -5.210938 3.179688 -5.265625 3.078125 -5.265625 C 2.984375 -5.265625 2.863281 -5.21875 2.71875 -5.125 C 2.582031 -5.039062 2.460938 -4.820312 2.359375 -4.46875 L 1.625 -2.171875 C 1.601562 -2.117188 1.585938 -2.0625 1.578125 -2 C 1.566406 -1.9375 1.5625 -1.863281 1.5625 -1.78125 C 1.5625 -1.5 1.6875 -1.359375 1.9375 -1.359375 C 2.050781 -1.359375 2.203125 -1.414062 2.390625 -1.53125 C 2.578125 -1.65625 2.726562 -1.90625 2.84375 -2.28125 Z M 3.390625 -3.984375 "/></g></g></g><g fill="#000000" fill-opacity="1"><g transform="translate(49.805815, 15.81591)"><g><path d="M 4.078125 -3.21875 C 4.148438 -3.40625 4.253906 -3.539062 4.390625 -3.625 C 4.535156 -3.707031 4.679688 -3.75 4.828125 -3.75 C 5.003906 -3.75 5.160156 -3.695312 5.296875 -3.59375 C 5.441406 -3.5 5.515625 -3.363281 5.515625 -3.1875 C 5.515625 -3.15625 5.507812 -3.117188 5.5 -3.078125 C 5.488281 -3.035156 5.476562 -3 5.46875 -2.96875 C 5.132812 -2.03125 4.675781 -1.300781 4.09375 -0.78125 C 3.507812 -0.257812 2.851562 0 2.125 0 C 1.738281 0 1.375 -0.0703125 1.03125 -0.21875 C 0.695312 -0.363281 0.425781 -0.570312 0.21875 -0.84375 C 0.0078125 -1.125 -0.09375 -1.460938 -0.09375 -1.859375 C -0.09375 -2.085938 -0.046875 -2.34375 0.046875 -2.625 L 0.046875 -2.609375 L 1 -5.359375 L 0.625 -5.359375 C 0.476562 -5.359375 0.359375 -5.414062 0.265625 -5.53125 C 0.171875 -5.65625 0.125 -5.796875 0.125 -5.953125 C 0.125 -6.140625 0.191406 -6.3125 0.328125 -6.46875 C 0.472656 -6.632812 0.695312 -6.71875 1 -6.71875 L 1.484375 -6.71875 L 2.40625 -9.265625 C 2.46875 -9.460938 2.570312 -9.617188 2.71875 -9.734375 C 2.875 -9.859375 3.046875 -9.921875 3.234375 -9.921875 C 3.484375 -9.921875 3.675781 -9.847656 3.8125 -9.703125 C 3.957031 -9.554688 4.03125 -9.375 4.03125 -9.15625 C 4.03125 -9.09375 4.019531 -9.019531 4 -8.9375 L 3.234375 -6.71875 L 3.75 -6.71875 C 3.96875 -6.71875 4.125 -6.660156 4.21875 -6.546875 C 4.320312 -6.429688 4.375 -6.300781 4.375 -6.15625 C 4.375 -5.96875 4.296875 -5.785156 4.140625 -5.609375 C 3.992188 -5.441406 3.773438 -5.359375 3.484375 -5.359375 L 2.75 -5.359375 L 1.625 -2.171875 C 1.613281 -2.128906 1.601562 -2.085938 1.59375 -2.046875 C 1.582031 -2.003906 1.578125 -1.960938 1.578125 -1.921875 C 1.578125 -1.765625 1.632812 -1.628906 1.75 -1.515625 C 1.875 -1.410156 2.035156 -1.359375 2.234375 -1.359375 C 2.578125 -1.359375 2.910156 -1.507812 3.234375 -1.8125 C 3.566406 -2.125 3.847656 -2.59375 4.078125 -3.21875 Z M 4.078125 -3.21875 "/></g></g></g><g fill="#000000" fill-opacity="1"><g transform="translate(53.258036, 15.81591)"><g><path d="M 6.078125 -3.234375 C 6.140625 -3.398438 6.234375 -3.519531 6.359375 -3.59375 C 6.484375 -3.664062 6.613281 -3.703125 6.75 -3.703125 C 6.925781 -3.703125 7.09375 -3.648438 7.25 -3.546875 C 7.40625 -3.441406 7.484375 -3.304688 7.484375 -3.140625 C 7.484375 -3.109375 7.484375 -3.078125 7.484375 -3.046875 C 7.484375 -3.023438 7.476562 -3.003906 7.46875 -2.984375 C 7.195312 -2.210938 6.828125 -1.601562 6.359375 -1.15625 C 5.898438 -0.707031 5.375 -0.390625 4.78125 -0.203125 C 4.1875 -0.015625 3.554688 0.078125 2.890625 0.078125 C 2.222656 0.078125 1.65625 -0.0078125 1.1875 -0.1875 C 0.71875 -0.363281 0.359375 -0.597656 0.109375 -0.890625 C -0.128906 -1.191406 -0.25 -1.53125 -0.25 -1.90625 C -0.25 -2.15625 -0.207031 -2.40625 -0.125 -2.65625 C -0.0390625 -2.90625 0.0820312 -3.125 0.25 -3.3125 C 0.425781 -3.507812 0.640625 -3.640625 0.890625 -3.703125 C 1.117188 -4.128906 1.347656 -4.5625 1.578125 -5 C 1.816406 -5.4375 2.050781 -5.875 2.28125 -6.3125 C 2.382812 -6.53125 2.535156 -6.695312 2.734375 -6.8125 C 2.941406 -6.925781 3.148438 -6.984375 3.359375 -6.984375 C 3.648438 -6.984375 3.878906 -6.882812 4.046875 -6.6875 C 4.222656 -6.488281 4.3125 -6.269531 4.3125 -6.03125 C 4.3125 -5.863281 4.253906 -5.695312 4.140625 -5.53125 C 4.035156 -5.363281 3.898438 -5.25 3.734375 -5.1875 C 3.765625 -5.007812 3.828125 -4.820312 3.921875 -4.625 C 4.023438 -4.4375 4.132812 -4.242188 4.25 -4.046875 C 4.40625 -3.785156 4.554688 -3.5 4.703125 -3.1875 C 4.847656 -2.875 4.921875 -2.550781 4.921875 -2.21875 C 4.921875 -2.144531 4.914062 -2.070312 4.90625 -2 C 4.894531 -1.9375 4.882812 -1.863281 4.875 -1.78125 C 5.132812 -1.9375 5.363281 -2.132812 5.5625 -2.375 C 5.769531 -2.613281 5.941406 -2.898438 6.078125 -3.234375 Z M 2.453125 -3.546875 C 2.546875 -3.441406 2.613281 -3.328125 2.65625 -3.203125 C 2.707031 -3.078125 2.734375 -2.953125 2.734375 -2.828125 C 2.734375 -2.546875 2.640625 -2.285156 2.453125 -2.046875 C 2.273438 -1.816406 2.019531 -1.703125 1.6875 -1.703125 C 1.644531 -1.703125 1.597656 -1.703125 1.546875 -1.703125 C 1.503906 -1.710938 1.460938 -1.722656 1.421875 -1.734375 C 1.484375 -1.585938 1.59375 -1.472656 1.75 -1.390625 C 1.90625 -1.304688 2.082031 -1.265625 2.28125 -1.265625 C 2.582031 -1.273438 2.804688 -1.375 2.953125 -1.5625 C 3.097656 -1.757812 3.171875 -1.992188 3.171875 -2.265625 C 3.171875 -2.535156 3.109375 -2.800781 2.984375 -3.0625 C 2.867188 -3.320312 2.722656 -3.554688 2.546875 -3.765625 Z M 2.453125 -3.546875 "/></g></g></g><g fill="#000000" fill-opacity="1"><g transform="translate(58.676466, 15.81591)"><g><path d="M 6.375 -3.296875 C 6.4375 -3.484375 6.539062 -3.617188 6.6875 -3.703125 C 6.84375 -3.796875 6.992188 -3.84375 7.140625 -3.84375 C 7.316406 -3.84375 7.472656 -3.796875 7.609375 -3.703125 C 7.753906 -3.609375 7.828125 -3.46875 7.828125 -3.28125 C 7.828125 -3.207031 7.804688 -3.117188 7.765625 -3.015625 C 7.503906 -2.273438 7.195312 -1.679688 6.84375 -1.234375 C 6.5 -0.796875 6.128906 -0.476562 5.734375 -0.28125 C 5.335938 -0.09375 4.945312 0 4.5625 0 C 4.238281 0 3.9375 -0.0546875 3.65625 -0.171875 C 3.375 -0.296875 3.144531 -0.476562 2.96875 -0.71875 C 2.800781 -0.96875 2.71875 -1.265625 2.71875 -1.609375 C 2.71875 -1.734375 2.726562 -1.859375 2.75 -1.984375 C 2.78125 -2.109375 2.820312 -2.238281 2.875 -2.375 L 3.703125 -4.71875 C 3.742188 -4.832031 3.765625 -4.929688 3.765625 -5.015625 C 3.765625 -5.117188 3.726562 -5.203125 3.65625 -5.265625 C 3.59375 -5.328125 3.507812 -5.359375 3.40625 -5.359375 C 3.25 -5.359375 3.078125 -5.289062 2.890625 -5.15625 C 2.703125 -5.019531 2.53125 -4.804688 2.375 -4.515625 C 2.25 -4.148438 2.109375 -3.742188 1.953125 -3.296875 C 1.796875 -2.847656 1.640625 -2.398438 1.484375 -1.953125 C 1.328125 -1.515625 1.179688 -1.113281 1.046875 -0.75 C 0.960938 -0.488281 0.816406 -0.296875 0.609375 -0.171875 C 0.410156 -0.046875 0.210938 0.015625 0.015625 0.015625 C -0.171875 0.015625 -0.332031 -0.0351562 -0.46875 -0.140625 C -0.613281 -0.242188 -0.6875 -0.40625 -0.6875 -0.625 C -0.6875 -0.71875 -0.671875 -0.8125 -0.640625 -0.90625 L 1.265625 -6.25 C 1.328125 -6.40625 1.425781 -6.519531 1.5625 -6.59375 C 1.695312 -6.675781 1.847656 -6.71875 2.015625 -6.71875 C 2.160156 -6.71875 2.296875 -6.6875 2.421875 -6.625 C 2.554688 -6.570312 2.640625 -6.492188 2.671875 -6.390625 C 2.960938 -6.609375 3.332031 -6.71875 3.78125 -6.71875 C 4.082031 -6.71875 4.359375 -6.644531 4.609375 -6.5 C 4.867188 -6.363281 5.078125 -6.171875 5.234375 -5.921875 C 5.390625 -5.679688 5.46875 -5.410156 5.46875 -5.109375 C 5.46875 -4.929688 5.425781 -4.722656 5.34375 -4.484375 L 4.453125 -1.9375 C 4.410156 -1.8125 4.390625 -1.71875 4.390625 -1.65625 C 4.390625 -1.457031 4.5 -1.359375 4.71875 -1.359375 C 4.976562 -1.359375 5.253906 -1.507812 5.546875 -1.8125 C 5.847656 -2.113281 6.125 -2.609375 6.375 -3.296875 Z M 6.375 -3.296875 "/></g></g></g><g fill="#000000" fill-opacity="1"><g transform="translate(64.392103, 15.81591)"><g><path d="M 7.8125 -3.359375 C 7.882812 -3.535156 7.988281 -3.660156 8.125 -3.734375 C 8.269531 -3.816406 8.421875 -3.859375 8.578125 -3.859375 C 8.753906 -3.859375 8.90625 -3.8125 9.03125 -3.71875 C 9.164062 -3.632812 9.234375 -3.503906 9.234375 -3.328125 C 9.234375 -3.253906 9.21875 -3.171875 9.1875 -3.078125 C 8.925781 -2.398438 8.597656 -1.832031 8.203125 -1.375 C 7.816406 -0.925781 7.398438 -0.582031 6.953125 -0.34375 C 6.503906 -0.113281 6.050781 0 5.59375 0 C 5.039062 0 4.570312 -0.164062 4.1875 -0.5 C 3.8125 -0.832031 3.5625 -1.273438 3.4375 -1.828125 L 2.484375 -0.375 C 2.398438 -0.25 2.296875 -0.15625 2.171875 -0.09375 C 2.046875 -0.03125 1.921875 0 1.796875 0 C 1.609375 0 1.4375 -0.0625 1.28125 -0.1875 C 1.125 -0.3125 1.046875 -0.46875 1.046875 -0.65625 C 1.046875 -0.820312 1.113281 -0.992188 1.25 -1.171875 L 3.09375 -3.8125 C 3.019531 -4.144531 2.921875 -4.40625 2.796875 -4.59375 C 2.679688 -4.789062 2.578125 -4.925781 2.484375 -5 C 2.453125 -4.925781 2.40625 -4.804688 2.34375 -4.640625 C 2.28125 -4.472656 2.21875 -4.289062 2.15625 -4.09375 C 2.09375 -3.90625 2.03125 -3.734375 1.96875 -3.578125 C 1.914062 -3.421875 1.878906 -3.304688 1.859375 -3.234375 C 1.773438 -3.023438 1.660156 -2.867188 1.515625 -2.765625 C 1.367188 -2.671875 1.21875 -2.625 1.0625 -2.625 C 0.882812 -2.625 0.726562 -2.675781 0.59375 -2.78125 C 0.457031 -2.882812 0.390625 -3.023438 0.390625 -3.203125 C 0.390625 -3.285156 0.40625 -3.363281 0.4375 -3.4375 C 0.5625 -3.78125 0.664062 -4.066406 0.75 -4.296875 C 0.832031 -4.535156 0.910156 -4.757812 0.984375 -4.96875 C 1.054688 -5.1875 1.148438 -5.4375 1.265625 -5.71875 C 1.390625 -6.050781 1.585938 -6.300781 1.859375 -6.46875 C 2.128906 -6.632812 2.410156 -6.71875 2.703125 -6.71875 C 3.097656 -6.71875 3.414062 -6.582031 3.65625 -6.3125 C 3.90625 -6.050781 4.128906 -5.660156 4.328125 -5.140625 C 4.472656 -5.347656 4.671875 -5.546875 4.921875 -5.734375 C 5.171875 -5.929688 5.4375 -6.09375 5.71875 -6.21875 C 6 -6.34375 6.265625 -6.40625 6.515625 -6.40625 C 6.847656 -6.40625 7.113281 -6.3125 7.3125 -6.125 C 7.519531 -5.9375 7.625 -5.6875 7.625 -5.375 C 7.625 -5.113281 7.53125 -4.898438 7.34375 -4.734375 C 7.15625 -4.578125 6.941406 -4.5 6.703125 -4.5 C 6.398438 -4.5 6.15625 -4.613281 5.96875 -4.84375 C 5.613281 -4.570312 5.191406 -4.066406 4.703125 -3.328125 C 4.765625 -2.804688 4.832031 -2.398438 4.90625 -2.109375 C 4.976562 -1.828125 5.082031 -1.632812 5.21875 -1.53125 C 5.363281 -1.4375 5.546875 -1.390625 5.765625 -1.390625 C 6.109375 -1.390625 6.46875 -1.550781 6.84375 -1.875 C 7.226562 -2.195312 7.550781 -2.691406 7.8125 -3.359375 Z M 7.8125 -3.359375 "/></g></g></g><g fill="#000000" fill-opacity="1"><g transform="translate(71.502373, 15.81591)"><g><path d="M 4.078125 -3.21875 C 4.148438 -3.40625 4.253906 -3.539062 4.390625 -3.625 C 4.535156 -3.707031 4.679688 -3.75 4.828125 -3.75 C 5.003906 -3.75 5.160156 -3.695312 5.296875 -3.59375 C 5.441406 -3.5 5.515625 -3.363281 5.515625 -3.1875 C 5.515625 -3.15625 5.507812 -3.117188 5.5 -3.078125 C 5.488281 -3.035156 5.476562 -3 5.46875 -2.96875 C 5.132812 -2.03125 4.675781 -1.300781 4.09375 -0.78125 C 3.507812 -0.257812 2.851562 0 2.125 0 C 1.738281 0 1.375 -0.0703125 1.03125 -0.21875 C 0.695312 -0.363281 0.425781 -0.570312 0.21875 -0.84375 C 0.0078125 -1.125 -0.09375 -1.460938 -0.09375 -1.859375 C -0.09375 -2.085938 -0.046875 -2.34375 0.046875 -2.625 L 0.046875 -2.609375 L 1 -5.359375 L 0.625 -5.359375 C 0.476562 -5.359375 0.359375 -5.414062 0.265625 -5.53125 C 0.171875 -5.65625 0.125 -5.796875 0.125 -5.953125 C 0.125 -6.140625 0.191406 -6.3125 0.328125 -6.46875 C 0.472656 -6.632812 0.695312 -6.71875 1 -6.71875 L 1.484375 -6.71875 L 2.40625 -9.265625 C 2.46875 -9.460938 2.570312 -9.617188 2.71875 -9.734375 C 2.875 -9.859375 3.046875 -9.921875 3.234375 -9.921875 C 3.484375 -9.921875 3.675781 -9.847656 3.8125 -9.703125 C 3.957031 -9.554688 4.03125 -9.375 4.03125 -9.15625 C 4.03125 -9.09375 4.019531 -9.019531 4 -8.9375 L 3.234375 -6.71875 L 3.75 -6.71875 C 3.96875 -6.71875 4.125 -6.660156 4.21875 -6.546875 C 4.320312 -6.429688 4.375 -6.300781 4.375 -6.15625 C 4.375 -5.96875 4.296875 -5.785156 4.140625 -5.609375 C 3.992188 -5.441406 3.773438 -5.359375 3.484375 -5.359375 L 2.75 -5.359375 L 1.625 -2.171875 C 1.613281 -2.128906 1.601562 -2.085938 1.59375 -2.046875 C 1.582031 -2.003906 1.578125 -1.960938 1.578125 -1.921875 C 1.578125 -1.765625 1.632812 -1.628906 1.75 -1.515625 C 1.875 -1.410156 2.035156 -1.359375 2.234375 -1.359375 C 2.578125 -1.359375 2.910156 -1.507812 3.234375 -1.8125 C 3.566406 -2.125 3.847656 -2.59375 4.078125 -3.21875 Z M 4.078125 -3.21875 "/></g></g></g></g></g></g></g></g></g></mask><clipPath id="bec411a9a4"><path d="M 4.847656 0 L 97.746094 0 L 97.746094 29.03125 L 4.847656 29.03125 Z M 4.847656 0 " clip-rule="nonzero"/></clipPath><clipPath id="abd01b2a1b"><rect x="0" width="103" y="0" height="30"/></clipPath><clipPath id="464cb2c66c"><rect x="0" width="103" y="0" height="30"/></clipPath><clipPath id="5d00c4ca07"><path d="M 1.632812 7 L 103.128906 7 L 103.128906 29.03125 L 1.632812 29.03125 Z M 1.632812 7 " clip-rule="nonzero"/></clipPath><clipPath id="09ed39bbee"><path d="M 0.632812 1.078125 L 102.128906 1.078125 L 102.128906 22.03125 L 0.632812 22.03125 Z M 0.632812 1.078125 " clip-rule="nonzero"/></clipPath><clipPath id="ffc1123113"><path d="M 0.632812 0.078125 L 102.128906 0.078125 L 102.128906 21.03125 L 0.632812 21.03125 Z M 0.632812 0.078125 " clip-rule="nonzero"/></clipPath><clipPath id="a27eb36c96"><path d="M 0.632812 0.078125 L 102.128906 0.078125 L 102.128906 21.03125 L 0.632812 21.03125 Z M 0.632812 0.078125 " clip-rule="nonzero"/></clipPath><linearGradient x1="-3.007154" gradientTransform="matrix(0.447807, 0, 0, 0.447465, 1.98017, 10.817161)" y1="8" x2="223.64599" gradientUnits="userSpaceOnUse" y2="8" id="73ae3e4408"><stop stop-opacity="1" stop-color="rgb(54.899597%, 32.159424%, 100%)" offset="0"/><stop stop-opacity="1" stop-color="rgb(54.888916%, 32.191467%, 99.993896%)" offset="0.03125"/><stop stop-opacity="1" stop-color="rgb(54.800415%, 32.450867%, 99.94812%)" offset="0.0351562"/><stop stop-opacity="1" stop-color="rgb(54.724121%, 32.678223%, 99.908447%)" offset="0.0390625"/><stop stop-opacity="1" stop-color="rgb(54.647827%, 32.905579%, 99.868774%)" offset="0.0429687"/><stop stop-opacity="1" stop-color="rgb(54.571533%, 33.13446%, 99.829102%)" offset="0.046875"/><stop stop-opacity="1" stop-color="rgb(54.495239%, 33.361816%, 99.789429%)" offset="0.0507812"/><stop stop-opacity="1" stop-color="rgb(54.418945%, 33.590698%, 99.749756%)" offset="0.0546875"/><stop stop-opacity="1" stop-color="rgb(54.342651%, 33.818054%, 99.708557%)" offset="0.0585937"/><stop stop-opacity="1" stop-color="rgb(54.266357%, 34.046936%, 99.668884%)" offset="0.0625"/><stop stop-opacity="1" stop-color="rgb(54.188538%, 34.274292%, 99.629211%)" offset="0.0664062"/><stop stop-opacity="1" stop-color="rgb(54.112244%, 34.503174%, 99.589539%)" offset="0.0703125"/><stop stop-opacity="1" stop-color="rgb(54.03595%, 34.73053%, 99.549866%)" offset="0.0742188"/><stop stop-opacity="1" stop-color="rgb(53.959656%, 34.959412%, 99.510193%)" offset="0.078125"/><stop stop-opacity="1" stop-color="rgb(53.883362%, 35.186768%, 99.47052%)" offset="0.0820312"/><stop stop-opacity="1" stop-color="rgb(53.807068%, 35.414124%, 99.430847%)" offset="0.0859375"/><stop stop-opacity="1" stop-color="rgb(53.730774%, 35.641479%, 99.389648%)" offset="0.0898437"/><stop stop-opacity="1" stop-color="rgb(53.65448%, 35.870361%, 99.349976%)" offset="0.09375"/><stop stop-opacity="1" stop-color="rgb(53.57666%, 36.097717%, 99.310303%)" offset="0.0976562"/><stop stop-opacity="1" stop-color="rgb(53.500366%, 36.326599%, 99.27063%)" offset="0.101562"/><stop stop-opacity="1" stop-color="rgb(53.424072%, 36.553955%, 99.230957%)" offset="0.105469"/><stop stop-opacity="1" stop-color="rgb(53.347778%, 36.782837%, 99.191284%)" offset="0.109375"/><stop stop-opacity="1" stop-color="rgb(53.271484%, 37.010193%, 99.151611%)" offset="0.113281"/><stop stop-opacity="1" stop-color="rgb(53.19519%, 37.239075%, 99.111938%)" offset="0.117187"/><stop stop-opacity="1" stop-color="rgb(53.117371%, 37.466431%, 99.072266%)" offset="0.121094"/><stop stop-opacity="1" stop-color="rgb(53.041077%, 37.693787%, 99.032593%)" offset="0.125"/><stop stop-opacity="1" stop-color="rgb(52.964783%, 37.921143%, 98.991394%)" offset="0.128906"/><stop stop-opacity="1" stop-color="rgb(52.888489%, 38.150024%, 98.951721%)" offset="0.132812"/><stop stop-opacity="1" stop-color="rgb(52.812195%, 38.37738%, 98.912048%)" offset="0.136719"/><stop stop-opacity="1" stop-color="rgb(52.735901%, 38.606262%, 98.872375%)" offset="0.140625"/><stop stop-opacity="1" stop-color="rgb(52.659607%, 38.833618%, 98.832703%)" offset="0.144531"/><stop stop-opacity="1" stop-color="rgb(52.583313%, 39.0625%, 98.79303%)" offset="0.148438"/><stop stop-opacity="1" stop-color="rgb(52.505493%, 39.289856%, 98.753357%)" offset="0.152344"/><stop stop-opacity="1" stop-color="rgb(52.429199%, 39.518738%, 98.713684%)" offset="0.15625"/><stop stop-opacity="1" stop-color="rgb(52.352905%, 39.746094%, 98.674011%)" offset="0.160156"/><stop stop-opacity="1" stop-color="rgb(52.276611%, 39.97345%, 98.634338%)" offset="0.164062"/><stop stop-opacity="1" stop-color="rgb(52.200317%, 40.200806%, 98.59314%)" offset="0.167969"/><stop stop-opacity="1" stop-color="rgb(52.124023%, 40.429688%, 98.553467%)" offset="0.171875"/><stop stop-opacity="1" stop-color="rgb(52.046204%, 40.657043%, 98.513794%)" offset="0.175781"/><stop stop-opacity="1" stop-color="rgb(51.96991%, 40.885925%, 98.474121%)" offset="0.179687"/><stop stop-opacity="1" stop-color="rgb(51.893616%, 41.113281%, 98.434448%)" offset="0.183594"/><stop stop-opacity="1" stop-color="rgb(51.817322%, 41.342163%, 98.394775%)" offset="0.1875"/><stop stop-opacity="1" stop-color="rgb(51.741028%, 41.569519%, 98.355103%)" offset="0.191406"/><stop stop-opacity="1" stop-color="rgb(51.664734%, 41.798401%, 98.31543%)" offset="0.195313"/><stop stop-opacity="1" stop-color="rgb(51.58844%, 42.025757%, 98.274231%)" offset="0.199219"/><stop stop-opacity="1" stop-color="rgb(51.512146%, 42.253113%, 98.234558%)" offset="0.203125"/><stop stop-opacity="1" stop-color="rgb(51.434326%, 42.480469%, 98.194885%)" offset="0.207031"/><stop stop-opacity="1" stop-color="rgb(51.358032%, 42.709351%, 98.155212%)" offset="0.210938"/><stop stop-opacity="1" stop-color="rgb(51.281738%, 42.936707%, 98.11554%)" offset="0.214844"/><stop stop-opacity="1" stop-color="rgb(51.205444%, 43.165588%, 98.075867%)" offset="0.21875"/><stop stop-opacity="1" stop-color="rgb(51.12915%, 43.392944%, 98.036194%)" offset="0.222656"/><stop stop-opacity="1" stop-color="rgb(51.052856%, 43.621826%, 97.996521%)" offset="0.226562"/><stop stop-opacity="1" stop-color="rgb(50.976562%, 43.849182%, 97.956848%)" offset="0.230469"/><stop stop-opacity="1" stop-color="rgb(50.900269%, 44.078064%, 97.917175%)" offset="0.234375"/><stop stop-opacity="1" stop-color="rgb(50.822449%, 44.30542%, 97.875977%)" offset="0.238281"/><stop stop-opacity="1" stop-color="rgb(50.746155%, 44.532776%, 97.836304%)" offset="0.242188"/><stop stop-opacity="1" stop-color="rgb(50.669861%, 44.760132%, 97.796631%)" offset="0.246094"/><stop stop-opacity="1" stop-color="rgb(50.593567%, 44.989014%, 97.756958%)" offset="0.25"/><stop stop-opacity="1" stop-color="rgb(50.517273%, 45.21637%, 97.717285%)" offset="0.253906"/><stop stop-opacity="1" stop-color="rgb(50.440979%, 45.445251%, 97.677612%)" offset="0.257812"/><stop stop-opacity="1" stop-color="rgb(50.363159%, 45.672607%, 97.637939%)" offset="0.261719"/><stop stop-opacity="1" stop-color="rgb(50.286865%, 45.901489%, 97.598267%)" offset="0.265625"/><stop stop-opacity="1" stop-color="rgb(50.210571%, 46.128845%, 97.557068%)" offset="0.269531"/><stop stop-opacity="1" stop-color="rgb(50.134277%, 46.357727%, 97.517395%)" offset="0.273438"/><stop stop-opacity="1" stop-color="rgb(50.057983%, 46.585083%, 97.477722%)" offset="0.277344"/><stop stop-opacity="1" stop-color="rgb(49.981689%, 46.812439%, 97.438049%)" offset="0.28125"/><stop stop-opacity="1" stop-color="rgb(49.905396%, 47.039795%, 97.398376%)" offset="0.285156"/><stop stop-opacity="1" stop-color="rgb(49.829102%, 47.268677%, 97.358704%)" offset="0.289063"/><stop stop-opacity="1" stop-color="rgb(49.751282%, 47.496033%, 97.319031%)" offset="0.292969"/><stop stop-opacity="1" stop-color="rgb(49.674988%, 47.724915%, 97.279358%)" offset="0.296875"/><stop stop-opacity="1" stop-color="rgb(49.598694%, 47.952271%, 97.239685%)" offset="0.300781"/><stop stop-opacity="1" stop-color="rgb(49.5224%, 48.181152%, 97.200012%)" offset="0.304688"/><stop stop-opacity="1" stop-color="rgb(49.446106%, 48.408508%, 97.158813%)" offset="0.308594"/><stop stop-opacity="1" stop-color="rgb(49.369812%, 48.63739%, 97.119141%)" offset="0.3125"/><stop stop-opacity="1" stop-color="rgb(49.293518%, 48.864746%, 97.079468%)" offset="0.316406"/><stop stop-opacity="1" stop-color="rgb(49.217224%, 49.092102%, 97.039795%)" offset="0.320312"/><stop stop-opacity="1" stop-color="rgb(49.139404%, 49.319458%, 97.000122%)" offset="0.324219"/><stop stop-opacity="1" stop-color="rgb(49.06311%, 49.54834%, 96.960449%)" offset="0.328125"/><stop stop-opacity="1" stop-color="rgb(48.986816%, 49.775696%, 96.920776%)" offset="0.332031"/><stop stop-opacity="1" stop-color="rgb(48.910522%, 50.004578%, 96.881104%)" offset="0.335938"/><stop stop-opacity="1" stop-color="rgb(48.834229%, 50.231934%, 96.841431%)" offset="0.339844"/><stop stop-opacity="1" stop-color="rgb(48.757935%, 50.460815%, 96.801758%)" offset="0.34375"/><stop stop-opacity="1" stop-color="rgb(48.680115%, 50.688171%, 96.760559%)" offset="0.347656"/><stop stop-opacity="1" stop-color="rgb(48.603821%, 50.917053%, 96.720886%)" offset="0.351562"/><stop stop-opacity="1" stop-color="rgb(48.527527%, 51.144409%, 96.681213%)" offset="0.355469"/><stop stop-opacity="1" stop-color="rgb(48.451233%, 51.371765%, 96.641541%)" offset="0.359375"/><stop stop-opacity="1" stop-color="rgb(48.374939%, 51.599121%, 96.601868%)" offset="0.363281"/><stop stop-opacity="1" stop-color="rgb(48.298645%, 51.828003%, 96.562195%)" offset="0.367188"/><stop stop-opacity="1" stop-color="rgb(48.222351%, 52.055359%, 96.522522%)" offset="0.371094"/><stop stop-opacity="1" stop-color="rgb(48.146057%, 52.284241%, 96.482849%)" offset="0.375"/><stop stop-opacity="1" stop-color="rgb(48.068237%, 52.511597%, 96.44165%)" offset="0.378906"/><stop stop-opacity="1" stop-color="rgb(47.991943%, 52.740479%, 96.401978%)" offset="0.382812"/><stop stop-opacity="1" stop-color="rgb(47.915649%, 52.967834%, 96.362305%)" offset="0.386719"/><stop stop-opacity="1" stop-color="rgb(47.839355%, 53.196716%, 96.322632%)" offset="0.390625"/><stop stop-opacity="1" stop-color="rgb(47.763062%, 53.424072%, 96.282959%)" offset="0.394531"/><stop stop-opacity="1" stop-color="rgb(47.686768%, 53.652954%, 96.243286%)" offset="0.398438"/><stop stop-opacity="1" stop-color="rgb(47.608948%, 53.88031%, 96.203613%)" offset="0.402344"/><stop stop-opacity="1" stop-color="rgb(47.532654%, 54.107666%, 96.16394%)" offset="0.40625"/><stop stop-opacity="1" stop-color="rgb(47.45636%, 54.335022%, 96.124268%)" offset="0.410156"/><stop stop-opacity="1" stop-color="rgb(47.380066%, 54.563904%, 96.084595%)" offset="0.414062"/><stop stop-opacity="1" stop-color="rgb(47.303772%, 54.79126%, 96.043396%)" offset="0.417969"/><stop stop-opacity="1" stop-color="rgb(47.227478%, 55.020142%, 96.003723%)" offset="0.421875"/><stop stop-opacity="1" stop-color="rgb(47.151184%, 55.247498%, 95.96405%)" offset="0.425781"/><stop stop-opacity="1" stop-color="rgb(47.07489%, 55.476379%, 95.924377%)" offset="0.429688"/><stop stop-opacity="1" stop-color="rgb(46.99707%, 55.703735%, 95.884705%)" offset="0.433594"/><stop stop-opacity="1" stop-color="rgb(46.920776%, 55.932617%, 95.845032%)" offset="0.4375"/><stop stop-opacity="1" stop-color="rgb(46.844482%, 56.159973%, 95.805359%)" offset="0.441406"/><stop stop-opacity="1" stop-color="rgb(46.768188%, 56.387329%, 95.765686%)" offset="0.445312"/><stop stop-opacity="1" stop-color="rgb(46.691895%, 56.614685%, 95.726013%)" offset="0.449219"/><stop stop-opacity="1" stop-color="rgb(46.615601%, 56.843567%, 95.68634%)" offset="0.453125"/><stop stop-opacity="1" stop-color="rgb(46.539307%, 57.070923%, 95.645142%)" offset="0.457031"/><stop stop-opacity="1" stop-color="rgb(46.463013%, 57.299805%, 95.605469%)" offset="0.460937"/><stop stop-opacity="1" stop-color="rgb(46.385193%, 57.527161%, 95.565796%)" offset="0.464844"/><stop stop-opacity="1" stop-color="rgb(46.308899%, 57.756042%, 95.526123%)" offset="0.46875"/><stop stop-opacity="1" stop-color="rgb(46.232605%, 57.983398%, 95.48645%)" offset="0.472656"/><stop stop-opacity="1" stop-color="rgb(46.156311%, 58.21228%, 95.446777%)" offset="0.476562"/><stop stop-opacity="1" stop-color="rgb(46.080017%, 58.439636%, 95.407104%)" offset="0.480469"/><stop stop-opacity="1" stop-color="rgb(46.003723%, 58.666992%, 95.367432%)" offset="0.484375"/><stop stop-opacity="1" stop-color="rgb(45.925903%, 58.894348%, 95.326233%)" offset="0.488281"/><stop stop-opacity="1" stop-color="rgb(45.849609%, 59.12323%, 95.28656%)" offset="0.492187"/><stop stop-opacity="1" stop-color="rgb(45.773315%, 59.350586%, 95.246887%)" offset="0.496094"/><stop stop-opacity="1" stop-color="rgb(45.697021%, 59.579468%, 95.207214%)" offset="0.5"/><stop stop-opacity="1" stop-color="rgb(45.620728%, 59.806824%, 95.167542%)" offset="0.503906"/><stop stop-opacity="1" stop-color="rgb(45.544434%, 60.035706%, 95.127869%)" offset="0.507812"/><stop stop-opacity="1" stop-color="rgb(45.46814%, 60.263062%, 95.088196%)" offset="0.511719"/><stop stop-opacity="1" stop-color="rgb(45.391846%, 60.491943%, 95.048523%)" offset="0.515625"/><stop stop-opacity="1" stop-color="rgb(45.314026%, 60.719299%, 95.00885%)" offset="0.519531"/><stop stop-opacity="1" stop-color="rgb(45.237732%, 60.946655%, 94.969177%)" offset="0.523437"/><stop stop-opacity="1" stop-color="rgb(45.161438%, 61.174011%, 94.927979%)" offset="0.527344"/><stop stop-opacity="1" stop-color="rgb(45.085144%, 61.402893%, 94.888306%)" offset="0.53125"/><stop stop-opacity="1" stop-color="rgb(45.00885%, 61.630249%, 94.848633%)" offset="0.535156"/><stop stop-opacity="1" stop-color="rgb(44.932556%, 61.859131%, 94.80896%)" offset="0.539062"/><stop stop-opacity="1" stop-color="rgb(44.854736%, 62.086487%, 94.769287%)" offset="0.542969"/><stop stop-opacity="1" stop-color="rgb(44.778442%, 62.315369%, 94.729614%)" offset="0.546875"/><stop stop-opacity="1" stop-color="rgb(44.702148%, 62.542725%, 94.689941%)" offset="0.550781"/><stop stop-opacity="1" stop-color="rgb(44.625854%, 62.771606%, 94.650269%)" offset="0.554687"/><stop stop-opacity="1" stop-color="rgb(44.549561%, 62.998962%, 94.60907%)" offset="0.558594"/><stop stop-opacity="1" stop-color="rgb(44.473267%, 63.226318%, 94.569397%)" offset="0.5625"/><stop stop-opacity="1" stop-color="rgb(44.396973%, 63.453674%, 94.529724%)" offset="0.566406"/><stop stop-opacity="1" stop-color="rgb(44.320679%, 63.682556%, 94.490051%)" offset="0.570312"/><stop stop-opacity="1" stop-color="rgb(44.242859%, 63.909912%, 94.450378%)" offset="0.574219"/><stop stop-opacity="1" stop-color="rgb(44.166565%, 64.138794%, 94.410706%)" offset="0.578125"/><stop stop-opacity="1" stop-color="rgb(44.090271%, 64.36615%, 94.371033%)" offset="0.582031"/><stop stop-opacity="1" stop-color="rgb(44.013977%, 64.595032%, 94.33136%)" offset="0.585937"/><stop stop-opacity="1" stop-color="rgb(43.937683%, 64.822388%, 94.291687%)" offset="0.589844"/><stop stop-opacity="1" stop-color="rgb(43.861389%, 65.05127%, 94.252014%)" offset="0.59375"/><stop stop-opacity="1" stop-color="rgb(43.785095%, 65.278625%, 94.210815%)" offset="0.597656"/><stop stop-opacity="1" stop-color="rgb(43.708801%, 65.505981%, 94.171143%)" offset="0.601562"/><stop stop-opacity="1" stop-color="rgb(43.630981%, 65.733337%, 94.13147%)" offset="0.605469"/><stop stop-opacity="1" stop-color="rgb(43.554688%, 65.962219%, 94.091797%)" offset="0.609375"/><stop stop-opacity="1" stop-color="rgb(43.478394%, 66.189575%, 94.052124%)" offset="0.613281"/><stop stop-opacity="1" stop-color="rgb(43.4021%, 66.418457%, 94.012451%)" offset="0.617187"/><stop stop-opacity="1" stop-color="rgb(43.325806%, 66.645813%, 93.972778%)" offset="0.621094"/><stop stop-opacity="1" stop-color="rgb(43.249512%, 66.874695%, 93.933105%)" offset="0.625"/><stop stop-opacity="1" stop-color="rgb(43.171692%, 67.102051%, 93.893433%)" offset="0.628906"/><stop stop-opacity="1" stop-color="rgb(43.095398%, 67.330933%, 93.85376%)" offset="0.632812"/><stop stop-opacity="1" stop-color="rgb(43.019104%, 67.558289%, 93.812561%)" offset="0.636719"/><stop stop-opacity="1" stop-color="rgb(42.94281%, 67.785645%, 93.772888%)" offset="0.640625"/><stop stop-opacity="1" stop-color="rgb(42.866516%, 68.013%, 93.733215%)" offset="0.644531"/><stop stop-opacity="1" stop-color="rgb(42.790222%, 68.241882%, 93.693542%)" offset="0.648437"/><stop stop-opacity="1" stop-color="rgb(42.713928%, 68.469238%, 93.65387%)" offset="0.652344"/><stop stop-opacity="1" stop-color="rgb(42.637634%, 68.69812%, 93.614197%)" offset="0.65625"/><stop stop-opacity="1" stop-color="rgb(42.559814%, 68.925476%, 93.574524%)" offset="0.660156"/><stop stop-opacity="1" stop-color="rgb(42.483521%, 69.154358%, 93.534851%)" offset="0.664062"/><stop stop-opacity="1" stop-color="rgb(42.407227%, 69.381714%, 93.493652%)" offset="0.667969"/><stop stop-opacity="1" stop-color="rgb(42.330933%, 69.610596%, 93.453979%)" offset="0.671875"/><stop stop-opacity="1" stop-color="rgb(42.254639%, 69.837952%, 93.414307%)" offset="0.675781"/><stop stop-opacity="1" stop-color="rgb(42.178345%, 70.065308%, 93.374634%)" offset="0.679687"/><stop stop-opacity="1" stop-color="rgb(42.102051%, 70.292664%, 93.334961%)" offset="0.683594"/><stop stop-opacity="1" stop-color="rgb(42.025757%, 70.521545%, 93.295288%)" offset="0.6875"/><stop stop-opacity="1" stop-color="rgb(41.947937%, 70.748901%, 93.255615%)" offset="0.691406"/><stop stop-opacity="1" stop-color="rgb(41.871643%, 70.977783%, 93.215942%)" offset="0.695312"/><stop stop-opacity="1" stop-color="rgb(41.795349%, 71.205139%, 93.17627%)" offset="0.699219"/><stop stop-opacity="1" stop-color="rgb(41.719055%, 71.434021%, 93.136597%)" offset="0.703125"/><stop stop-opacity="1" stop-color="rgb(41.642761%, 71.661377%, 93.095398%)" offset="0.707031"/><stop stop-opacity="1" stop-color="rgb(41.566467%, 71.890259%, 93.055725%)" offset="0.710937"/><stop stop-opacity="1" stop-color="rgb(41.488647%, 72.117615%, 93.016052%)" offset="0.714844"/><stop stop-opacity="1" stop-color="rgb(41.412354%, 72.346497%, 92.976379%)" offset="0.71875"/><stop stop-opacity="1" stop-color="rgb(41.33606%, 72.573853%, 92.936707%)" offset="0.722656"/><stop stop-opacity="1" stop-color="rgb(41.259766%, 72.801208%, 92.897034%)" offset="0.726562"/><stop stop-opacity="1" stop-color="rgb(41.183472%, 73.028564%, 92.857361%)" offset="0.730469"/><stop stop-opacity="1" stop-color="rgb(41.107178%, 73.257446%, 92.817688%)" offset="0.734375"/><stop stop-opacity="1" stop-color="rgb(41.030884%, 73.484802%, 92.778015%)" offset="0.738281"/><stop stop-opacity="1" stop-color="rgb(40.95459%, 73.713684%, 92.738342%)" offset="0.742187"/><stop stop-opacity="1" stop-color="rgb(40.87677%, 73.94104%, 92.697144%)" offset="0.746094"/><stop stop-opacity="1" stop-color="rgb(40.800476%, 74.169922%, 92.657471%)" offset="0.75"/><stop stop-opacity="1" stop-color="rgb(40.724182%, 74.397278%, 92.617798%)" offset="0.753906"/><stop stop-opacity="1" stop-color="rgb(40.647888%, 74.62616%, 92.578125%)" offset="0.757812"/><stop stop-opacity="1" stop-color="rgb(40.571594%, 74.853516%, 92.538452%)" offset="0.761719"/><stop stop-opacity="1" stop-color="rgb(40.4953%, 75.080872%, 92.498779%)" offset="0.765625"/><stop stop-opacity="1" stop-color="rgb(40.41748%, 75.308228%, 92.459106%)" offset="0.769531"/><stop stop-opacity="1" stop-color="rgb(40.341187%, 75.537109%, 92.419434%)" offset="0.773437"/><stop stop-opacity="1" stop-color="rgb(40.264893%, 75.764465%, 92.378235%)" offset="0.777344"/><stop stop-opacity="1" stop-color="rgb(40.188599%, 75.993347%, 92.338562%)" offset="0.78125"/><stop stop-opacity="1" stop-color="rgb(40.112305%, 76.220703%, 92.298889%)" offset="0.785156"/><stop stop-opacity="1" stop-color="rgb(40.036011%, 76.449585%, 92.259216%)" offset="0.789062"/><stop stop-opacity="1" stop-color="rgb(39.959717%, 76.676941%, 92.219543%)" offset="0.792969"/><stop stop-opacity="1" stop-color="rgb(39.883423%, 76.905823%, 92.179871%)" offset="0.796875"/><stop stop-opacity="1" stop-color="rgb(39.805603%, 77.133179%, 92.140198%)" offset="0.800781"/><stop stop-opacity="1" stop-color="rgb(39.729309%, 77.360535%, 92.100525%)" offset="0.804688"/><stop stop-opacity="1" stop-color="rgb(39.653015%, 77.587891%, 92.060852%)" offset="0.808594"/><stop stop-opacity="1" stop-color="rgb(39.576721%, 77.816772%, 92.021179%)" offset="0.8125"/><stop stop-opacity="1" stop-color="rgb(39.500427%, 78.044128%, 91.97998%)" offset="0.816406"/><stop stop-opacity="1" stop-color="rgb(39.424133%, 78.27301%, 91.940308%)" offset="0.820312"/><stop stop-opacity="1" stop-color="rgb(39.347839%, 78.500366%, 91.900635%)" offset="0.824219"/><stop stop-opacity="1" stop-color="rgb(39.271545%, 78.729248%, 91.860962%)" offset="0.828125"/><stop stop-opacity="1" stop-color="rgb(39.193726%, 78.956604%, 91.821289%)" offset="0.832031"/><stop stop-opacity="1" stop-color="rgb(39.117432%, 79.185486%, 91.781616%)" offset="0.835938"/><stop stop-opacity="1" stop-color="rgb(39.041138%, 79.412842%, 91.741943%)" offset="0.839844"/><stop stop-opacity="1" stop-color="rgb(38.964844%, 79.640198%, 91.702271%)" offset="0.84375"/><stop stop-opacity="1" stop-color="rgb(38.88855%, 79.867554%, 91.661072%)" offset="0.847656"/><stop stop-opacity="1" stop-color="rgb(38.812256%, 80.096436%, 91.621399%)" offset="0.851562"/><stop stop-opacity="1" stop-color="rgb(38.734436%, 80.323792%, 91.581726%)" offset="0.855469"/><stop stop-opacity="1" stop-color="rgb(38.658142%, 80.552673%, 91.542053%)" offset="0.859375"/><stop stop-opacity="1" stop-color="rgb(38.581848%, 80.780029%, 91.50238%)" offset="0.863281"/><stop stop-opacity="1" stop-color="rgb(38.505554%, 81.008911%, 91.462708%)" offset="0.867188"/><stop stop-opacity="1" stop-color="rgb(38.42926%, 81.236267%, 91.423035%)" offset="0.871094"/><stop stop-opacity="1" stop-color="rgb(38.352966%, 81.465149%, 91.383362%)" offset="0.875"/><stop stop-opacity="1" stop-color="rgb(38.276672%, 81.692505%, 91.343689%)" offset="0.878906"/><stop stop-opacity="1" stop-color="rgb(38.200378%, 81.919861%, 91.304016%)" offset="0.882812"/><stop stop-opacity="1" stop-color="rgb(38.122559%, 82.147217%, 91.262817%)" offset="0.886719"/><stop stop-opacity="1" stop-color="rgb(38.046265%, 82.376099%, 91.223145%)" offset="0.890625"/><stop stop-opacity="1" stop-color="rgb(37.969971%, 82.603455%, 91.183472%)" offset="0.894531"/><stop stop-opacity="1" stop-color="rgb(37.893677%, 82.832336%, 91.143799%)" offset="0.898438"/><stop stop-opacity="1" stop-color="rgb(37.817383%, 83.059692%, 91.104126%)" offset="0.902344"/><stop stop-opacity="1" stop-color="rgb(37.741089%, 83.288574%, 91.064453%)" offset="0.90625"/><stop stop-opacity="1" stop-color="rgb(37.663269%, 83.51593%, 91.02478%)" offset="0.910156"/><stop stop-opacity="1" stop-color="rgb(37.586975%, 83.744812%, 90.985107%)" offset="0.914062"/><stop stop-opacity="1" stop-color="rgb(37.510681%, 83.972168%, 90.945435%)" offset="0.917969"/><stop stop-opacity="1" stop-color="rgb(37.434387%, 84.199524%, 90.905762%)" offset="0.921875"/><stop stop-opacity="1" stop-color="rgb(37.358093%, 84.42688%, 90.864563%)" offset="0.925781"/><stop stop-opacity="1" stop-color="rgb(37.281799%, 84.655762%, 90.82489%)" offset="0.929688"/><stop stop-opacity="1" stop-color="rgb(37.205505%, 84.883118%, 90.785217%)" offset="0.933594"/><stop stop-opacity="1" stop-color="rgb(37.129211%, 85.112%, 90.745544%)" offset="0.9375"/><stop stop-opacity="1" stop-color="rgb(37.051392%, 85.339355%, 90.705872%)" offset="0.941406"/><stop stop-opacity="1" stop-color="rgb(36.975098%, 85.568237%, 90.666199%)" offset="0.945312"/><stop stop-opacity="1" stop-color="rgb(36.898804%, 85.795593%, 90.626526%)" offset="0.949219"/><stop stop-opacity="1" stop-color="rgb(36.82251%, 86.024475%, 90.586853%)" offset="0.953125"/><stop stop-opacity="1" stop-color="rgb(36.746216%, 86.251831%, 90.545654%)" offset="0.957031"/><stop stop-opacity="1" stop-color="rgb(36.669922%, 86.479187%, 90.505981%)" offset="0.960938"/><stop stop-opacity="1" stop-color="rgb(36.593628%, 86.706543%, 90.466309%)" offset="0.964844"/><stop stop-opacity="1" stop-color="rgb(36.517334%, 86.935425%, 90.426636%)" offset="0.96875"/><stop stop-opacity="1" stop-color="rgb(36.439514%, 87.162781%, 90.386963%)" offset="0.972656"/><stop stop-opacity="1" stop-color="rgb(36.36322%, 87.391663%, 90.34729%)" offset="0.976562"/><stop stop-opacity="1" stop-color="rgb(36.286926%, 87.619019%, 90.307617%)" offset="0.980469"/><stop stop-opacity="1" stop-color="rgb(36.210632%, 87.8479%, 90.267944%)" offset="0.984375"/><stop stop-opacity="1" stop-color="rgb(36.14502%, 88.043213%, 90.232849%)" offset="1"/></linearGradient><clipPath id="9363ddd341"><rect x="0" width="103" y="0" height="22"/></clipPath><clipPath id="14a318141b"><path d="M 0.632812 0.078125 L 102.128906 0.078125 L 102.128906 21.03125 L 0.632812 21.03125 Z M 0.632812 0.078125 " clip-rule="nonzero"/></clipPath><clipPath id="4fe7c1a5d8"><rect x="0" width="103" y="0" height="22"/></clipPath><clipPath id="560491bd1a"><rect x="0" width="103" y="0" height="22"/></clipPath><mask id="ecd73b3c16"><g filter="url(#838549d289)"><g transform="matrix(1, 0, 0, 1, 0.000000000000000222, 0.000000000000005329)"><g clip-path="url(#560491bd1a)"><g clip-path="url(#14a318141b)"><g transform="matrix(1, 0, 0, 1, 0.000000000000000222, 0.000000000000005329)"><g clip-path="url(#4fe7c1a5d8)"><g fill="#000000" fill-opacity="1"><g transform="translate(3.609262, 16.186737)"><g><path d="M 0.359375 0 L 0.359375 -3.765625 L 1.046875 -3.765625 L 1.046875 0 Z M 0.359375 0 "/></g></g></g><g fill="#000000" fill-opacity="1"><g transform="translate(6.100757, 16.186737)"><g><path d="M 0.359375 0 L 0.359375 -3.765625 L 1.046875 -3.765625 L 2.828125 -1.109375 L 2.828125 -3.765625 L 3.515625 -3.765625 L 3.515625 0 L 2.828125 0 L 1.046875 -2.640625 L 1.046875 0 Z M 0.359375 0 "/></g></g></g><g fill="#000000" fill-opacity="1"><g transform="translate(11.04616, 16.186737)"><g><path d="M 0.359375 0 L 0.359375 -3.765625 L 1.046875 -3.765625 L 2.828125 -1.109375 L 2.828125 -3.765625 L 3.515625 -3.765625 L 3.515625 0 L 2.828125 0 L 1.046875 -2.640625 L 1.046875 0 Z M 0.359375 0 "/></g></g></g><g fill="#000000" fill-opacity="1"><g transform="translate(15.991562, 16.186737)"><g><path d="M 2.125 0.0625 C 1.75 0.0625 1.421875 -0.0195312 1.140625 -0.1875 C 0.859375 -0.351562 0.632812 -0.582031 0.46875 -0.875 C 0.3125 -1.164062 0.234375 -1.5 0.234375 -1.875 C 0.234375 -2.257812 0.3125 -2.597656 0.46875 -2.890625 C 0.632812 -3.179688 0.859375 -3.410156 1.140625 -3.578125 C 1.421875 -3.742188 1.75 -3.828125 2.125 -3.828125 C 2.5 -3.828125 2.828125 -3.742188 3.109375 -3.578125 C 3.390625 -3.410156 3.609375 -3.179688 3.765625 -2.890625 C 3.929688 -2.597656 4.015625 -2.257812 4.015625 -1.875 C 4.015625 -1.5 3.929688 -1.164062 3.765625 -0.875 C 3.609375 -0.582031 3.390625 -0.351562 3.109375 -0.1875 C 2.828125 -0.0195312 2.5 0.0625 2.125 0.0625 Z M 2.125 -0.546875 C 2.488281 -0.546875 2.773438 -0.664062 2.984375 -0.90625 C 3.203125 -1.144531 3.3125 -1.46875 3.3125 -1.875 C 3.3125 -2.289062 3.203125 -2.613281 2.984375 -2.84375 C 2.773438 -3.082031 2.488281 -3.203125 2.125 -3.203125 C 1.769531 -3.203125 1.484375 -3.082031 1.265625 -2.84375 C 1.054688 -2.613281 0.953125 -2.289062 0.953125 -1.875 C 0.953125 -1.46875 1.054688 -1.144531 1.265625 -0.90625 C 1.484375 -0.664062 1.769531 -0.546875 2.125 -0.546875 Z M 2.125 -0.546875 "/></g></g></g><g fill="#000000" fill-opacity="1"><g transform="translate(21.18934, 16.186737)"><g><path d="M 1.453125 0 L 0.078125 -3.765625 L 0.8125 -3.765625 L 1.875 -0.703125 L 2.953125 -3.765625 L 3.671875 -3.765625 L 2.296875 0 Z M 1.453125 0 "/></g></g></g><g fill="#000000" fill-opacity="1"><g transform="translate(25.538726, 16.186737)"><g><path d="M 0.125 0 L 1.5 -3.765625 L 2.28125 -3.765625 L 3.65625 0 L 2.921875 0 L 2.625 -0.875 L 1.15625 -0.875 L 0.84375 0 Z M 1.34375 -1.40625 L 2.421875 -1.40625 L 1.875 -2.96875 Z M 1.34375 -1.40625 "/></g></g></g><g fill="#000000" fill-opacity="1"><g transform="translate(29.979392, 16.186737)"><g><path d="M 1.234375 0 L 1.234375 -3.203125 L 0.140625 -3.203125 L 0.140625 -3.765625 L 3.03125 -3.765625 L 3.03125 -3.203125 L 1.921875 -3.203125 L 1.921875 0 Z M 1.234375 0 "/></g></g></g><g fill="#000000" fill-opacity="1"><g transform="translate(34.226751, 16.186737)"><g><path d="M 0.359375 0 L 0.359375 -3.765625 L 2.828125 -3.765625 L 2.828125 -3.203125 L 1.046875 -3.203125 L 1.046875 -2.171875 L 2.65625 -2.171875 L 2.65625 -1.640625 L 1.046875 -1.640625 L 1.046875 -0.546875 L 2.828125 -0.546875 L 2.828125 0 Z M 0.359375 0 "/></g></g></g><g fill="#000000" fill-opacity="1"><g transform="translate(38.404302, 16.186737)"><g><path d="M 0.640625 0.03125 C 0.515625 0.03125 0.410156 -0.00390625 0.328125 -0.078125 C 0.253906 -0.160156 0.21875 -0.253906 0.21875 -0.359375 C 0.21875 -0.472656 0.253906 -0.570312 0.328125 -0.65625 C 0.410156 -0.738281 0.515625 -0.78125 0.640625 -0.78125 C 0.765625 -0.78125 0.867188 -0.738281 0.953125 -0.65625 C 1.035156 -0.570312 1.078125 -0.472656 1.078125 -0.359375 C 1.078125 -0.253906 1.035156 -0.160156 0.953125 -0.078125 C 0.867188 -0.00390625 0.765625 0.03125 0.640625 0.03125 Z M 0.640625 0.03125 "/></g></g></g><g fill="#000000" fill-opacity="1"><g transform="translate(40.766923, 16.186737)"><g/></g></g><g fill="#000000" fill-opacity="1"><g transform="translate(43.118803, 16.186737)"><g><path d="M 0.359375 0 L 0.359375 -3.765625 L 1.046875 -3.765625 L 1.046875 0 Z M 0.359375 0 "/></g></g></g><g fill="#000000" fill-opacity="1"><g transform="translate(45.610298, 16.186737)"><g><path d="M 0.359375 0 L 0.359375 -3.765625 L 1.046875 -3.765625 L 2.828125 -1.109375 L 2.828125 -3.765625 L 3.515625 -3.765625 L 3.515625 0 L 2.828125 0 L 1.046875 -2.640625 L 1.046875 0 Z M 0.359375 0 "/></g></g></g><g fill="#000000" fill-opacity="1"><g transform="translate(50.555701, 16.186737)"><g><path d="M 1.65625 0.0625 C 1.375 0.0625 1.128906 0.015625 0.921875 -0.078125 C 0.710938 -0.171875 0.546875 -0.304688 0.421875 -0.484375 C 0.296875 -0.660156 0.234375 -0.878906 0.234375 -1.140625 L 0.953125 -1.140625 C 0.960938 -0.960938 1.023438 -0.8125 1.140625 -0.6875 C 1.265625 -0.570312 1.429688 -0.515625 1.640625 -0.515625 C 1.828125 -0.515625 1.972656 -0.554688 2.078125 -0.640625 C 2.179688 -0.734375 2.234375 -0.851562 2.234375 -1 C 2.234375 -1.144531 2.1875 -1.257812 2.09375 -1.34375 C 2 -1.4375 1.875 -1.507812 1.71875 -1.5625 C 1.5625 -1.613281 1.394531 -1.671875 1.21875 -1.734375 C 0.925781 -1.835938 0.703125 -1.96875 0.546875 -2.125 C 0.398438 -2.28125 0.328125 -2.488281 0.328125 -2.75 C 0.316406 -2.96875 0.363281 -3.15625 0.46875 -3.3125 C 0.582031 -3.476562 0.734375 -3.601562 0.921875 -3.6875 C 1.117188 -3.78125 1.335938 -3.828125 1.578125 -3.828125 C 1.835938 -3.828125 2.0625 -3.78125 2.25 -3.6875 C 2.4375 -3.601562 2.582031 -3.476562 2.6875 -3.3125 C 2.800781 -3.15625 2.863281 -2.960938 2.875 -2.734375 L 2.140625 -2.734375 C 2.140625 -2.867188 2.085938 -2.988281 1.984375 -3.09375 C 1.890625 -3.195312 1.753906 -3.25 1.578125 -3.25 C 1.421875 -3.25 1.289062 -3.207031 1.1875 -3.125 C 1.09375 -3.050781 1.046875 -2.941406 1.046875 -2.796875 C 1.046875 -2.671875 1.082031 -2.570312 1.15625 -2.5 C 1.238281 -2.425781 1.347656 -2.363281 1.484375 -2.3125 C 1.617188 -2.257812 1.773438 -2.207031 1.953125 -2.15625 C 2.140625 -2.09375 2.304688 -2.015625 2.453125 -1.921875 C 2.609375 -1.835938 2.734375 -1.722656 2.828125 -1.578125 C 2.921875 -1.441406 2.96875 -1.265625 2.96875 -1.046875 C 2.96875 -0.847656 2.914062 -0.660156 2.8125 -0.484375 C 2.71875 -0.316406 2.570312 -0.179688 2.375 -0.078125 C 2.175781 0.015625 1.9375 0.0625 1.65625 0.0625 Z M 1.65625 0.0625 "/></g></g></g><g fill="#000000" fill-opacity="1"><g transform="translate(54.835273, 16.186737)"><g><path d="M 0.359375 0 L 0.359375 -3.765625 L 1.75 -3.765625 C 2.050781 -3.765625 2.300781 -3.710938 2.5 -3.609375 C 2.695312 -3.515625 2.84375 -3.378906 2.9375 -3.203125 C 3.039062 -3.023438 3.09375 -2.828125 3.09375 -2.609375 C 3.09375 -2.398438 3.046875 -2.207031 2.953125 -2.03125 C 2.859375 -1.863281 2.710938 -1.722656 2.515625 -1.609375 C 2.316406 -1.503906 2.0625 -1.453125 1.75 -1.453125 L 1.046875 -1.453125 L 1.046875 0 Z M 1.046875 -2.015625 L 1.71875 -2.015625 C 1.957031 -2.015625 2.128906 -2.066406 2.234375 -2.171875 C 2.335938 -2.273438 2.390625 -2.421875 2.390625 -2.609375 C 2.390625 -2.796875 2.335938 -2.941406 2.234375 -3.046875 C 2.128906 -3.148438 1.957031 -3.203125 1.71875 -3.203125 L 1.046875 -3.203125 Z M 1.046875 -2.015625 "/></g></g></g><g fill="#000000" fill-opacity="1"><g transform="translate(59.168545, 16.186737)"><g><path d="M 0.359375 0 L 0.359375 -3.765625 L 1.046875 -3.765625 L 1.046875 0 Z M 0.359375 0 "/></g></g></g><g fill="#000000" fill-opacity="1"><g transform="translate(61.66004, 16.186737)"><g><path d="M 0.359375 0 L 0.359375 -3.765625 L 1.75 -3.765625 C 2.050781 -3.765625 2.296875 -3.710938 2.484375 -3.609375 C 2.679688 -3.503906 2.828125 -3.363281 2.921875 -3.1875 C 3.023438 -3.019531 3.078125 -2.832031 3.078125 -2.625 C 3.078125 -2.394531 3.015625 -2.179688 2.890625 -1.984375 C 2.773438 -1.796875 2.585938 -1.660156 2.328125 -1.578125 L 3.109375 0 L 2.328125 0 L 1.625 -1.484375 L 1.046875 -1.484375 L 1.046875 0 Z M 1.046875 -1.984375 L 1.703125 -1.984375 C 1.929688 -1.984375 2.097656 -2.039062 2.203125 -2.15625 C 2.316406 -2.269531 2.375 -2.414062 2.375 -2.59375 C 2.375 -2.769531 2.316406 -2.910156 2.203125 -3.015625 C 2.097656 -3.128906 1.929688 -3.1875 1.703125 -3.1875 L 1.046875 -3.1875 Z M 1.046875 -1.984375 "/></g></g></g><g fill="#000000" fill-opacity="1"><g transform="translate(66.079226, 16.186737)"><g><path d="M 0.359375 0 L 0.359375 -3.765625 L 2.828125 -3.765625 L 2.828125 -3.203125 L 1.046875 -3.203125 L 1.046875 -2.171875 L 2.65625 -2.171875 L 2.65625 -1.640625 L 1.046875 -1.640625 L 1.046875 -0.546875 L 2.828125 -0.546875 L 2.828125 0 Z M 0.359375 0 "/></g></g></g><g fill="#000000" fill-opacity="1"><g transform="translate(70.256778, 16.186737)"><g><path d="M 0.640625 0.03125 C 0.515625 0.03125 0.410156 -0.00390625 0.328125 -0.078125 C 0.253906 -0.160156 0.21875 -0.253906 0.21875 -0.359375 C 0.21875 -0.472656 0.253906 -0.570312 0.328125 -0.65625 C 0.410156 -0.738281 0.515625 -0.78125 0.640625 -0.78125 C 0.765625 -0.78125 0.867188 -0.738281 0.953125 -0.65625 C 1.035156 -0.570312 1.078125 -0.472656 1.078125 -0.359375 C 1.078125 -0.253906 1.035156 -0.160156 0.953125 -0.078125 C 0.867188 -0.00390625 0.765625 0.03125 0.640625 0.03125 Z M 0.640625 0.03125 "/></g></g></g><g fill="#000000" fill-opacity="1"><g transform="translate(72.619398, 16.186737)"><g/></g></g><g fill="#000000" fill-opacity="1"><g transform="translate(74.971279, 16.186737)"><g><path d="M 0.359375 0 L 0.359375 -3.765625 L 1.046875 -3.765625 L 1.046875 0 Z M 0.359375 0 "/></g></g></g><g fill="#000000" fill-opacity="1"><g transform="translate(77.462774, 16.186737)"><g><path d="M 0.359375 0 L 0.359375 -3.765625 L 1.1875 -3.765625 L 2.375 -1.375 L 3.5625 -3.765625 L 4.375 -3.765625 L 4.375 0 L 3.6875 0 L 3.6875 -2.59375 L 2.640625 -0.53125 L 2.109375 -0.53125 L 1.046875 -2.59375 L 1.046875 0 Z M 0.359375 0 "/></g></g></g><g fill="#000000" fill-opacity="1"><g transform="translate(83.278055, 16.186737)"><g><path d="M 0.359375 0 L 0.359375 -3.765625 L 1.75 -3.765625 C 2.050781 -3.765625 2.300781 -3.710938 2.5 -3.609375 C 2.695312 -3.515625 2.84375 -3.378906 2.9375 -3.203125 C 3.039062 -3.023438 3.09375 -2.828125 3.09375 -2.609375 C 3.09375 -2.398438 3.046875 -2.207031 2.953125 -2.03125 C 2.859375 -1.863281 2.710938 -1.722656 2.515625 -1.609375 C 2.316406 -1.503906 2.0625 -1.453125 1.75 -1.453125 L 1.046875 -1.453125 L 1.046875 0 Z M 1.046875 -2.015625 L 1.71875 -2.015625 C 1.957031 -2.015625 2.128906 -2.066406 2.234375 -2.171875 C 2.335938 -2.273438 2.390625 -2.421875 2.390625 -2.609375 C 2.390625 -2.796875 2.335938 -2.941406 2.234375 -3.046875 C 2.128906 -3.148438 1.957031 -3.203125 1.71875 -3.203125 L 1.046875 -3.203125 Z M 1.046875 -2.015625 "/></g></g></g><g fill="#000000" fill-opacity="1"><g transform="translate(87.208612, 16.186737)"><g><path d="M 0.125 0 L 1.5 -3.765625 L 2.28125 -3.765625 L 3.65625 0 L 2.921875 0 L 2.625 -0.875 L 1.15625 -0.875 L 0.84375 0 Z M 1.34375 -1.40625 L 2.421875 -1.40625 L 1.875 -2.96875 Z M 1.34375 -1.40625 "/></g></g></g><g fill="#000000" fill-opacity="1"><g transform="translate(91.831846, 16.186737)"><g><path d="M 2.0625 0.0625 C 1.6875 0.0625 1.363281 -0.015625 1.09375 -0.171875 C 0.820312 -0.335938 0.609375 -0.566406 0.453125 -0.859375 C 0.304688 -1.148438 0.234375 -1.488281 0.234375 -1.875 C 0.234375 -2.257812 0.304688 -2.597656 0.453125 -2.890625 C 0.609375 -3.179688 0.820312 -3.410156 1.09375 -3.578125 C 1.363281 -3.742188 1.6875 -3.828125 2.0625 -3.828125 C 2.519531 -3.828125 2.890625 -3.710938 3.171875 -3.484375 C 3.460938 -3.265625 3.644531 -2.953125 3.71875 -2.546875 L 2.96875 -2.546875 C 2.914062 -2.753906 2.8125 -2.914062 2.65625 -3.03125 C 2.507812 -3.144531 2.3125 -3.203125 2.0625 -3.203125 C 1.707031 -3.203125 1.429688 -3.082031 1.234375 -2.84375 C 1.046875 -2.613281 0.953125 -2.289062 0.953125 -1.875 C 0.953125 -1.457031 1.046875 -1.128906 1.234375 -0.890625 C 1.429688 -0.660156 1.707031 -0.546875 2.0625 -0.546875 C 2.3125 -0.546875 2.507812 -0.597656 2.65625 -0.703125 C 2.8125 -0.816406 2.914062 -0.972656 2.96875 -1.171875 L 3.71875 -1.171875 C 3.644531 -0.785156 3.460938 -0.484375 3.171875 -0.265625 C 2.890625 -0.046875 2.519531 0.0625 2.0625 0.0625 Z M 2.0625 0.0625 "/></g></g></g><g fill="#000000" fill-opacity="1"><g transform="translate(96.814836, 16.186737)"><g><path d="M 1.234375 0 L 1.234375 -3.203125 L 0.140625 -3.203125 L 0.140625 -3.765625 L 3.03125 -3.765625 L 3.03125 -3.203125 L 1.921875 -3.203125 L 1.921875 0 Z M 1.234375 0 "/></g></g></g></g></g></g></g></g></g></mask><clipPath id="bd59b6fc64"><path d="M 0.632812 0.078125 L 102.128906 0.078125 L 102.128906 21.03125 L 0.632812 21.03125 Z M 0.632812 0.078125 " clip-rule="nonzero"/></clipPath><clipPath id="26516cb201"><rect x="0" width="103" y="0" height="22"/></clipPath><clipPath id="fd0f160813"><rect x="0" width="103" y="0" height="22"/></clipPath><clipPath id="32c124bbe7"><rect x="0" width="103" y="0" height="23"/></clipPath></defs><g clip-path="url(#142a3b9982)"><g transform="matrix(1, 0, 0, 1, 1, 0.000000000000005692)"><g clip-path="url(#464cb2c66c)"><g clip-path="url(#8824e863d0)"><g mask="url(#750a605d24)"><g transform="matrix(1, 0, 0, 1, 0.000000000000000222, 0.000000000000005692)"><g clip-path="url(#abd01b2a1b)"><g clip-path="url(#bec411a9a4)"><path fill="url(#d37b54712f)" d="M 4.847656 0 L 4.847656 29.03125 L 97.746094 29.03125 L 97.746094 0 Z M 4.847656 0 " fill-rule="nonzero"/></g></g></g></g></g></g></g></g><g clip-path="url(#5d00c4ca07)"><g transform="matrix(1, 0, 0, 1, 1, 7)"><g clip-path="url(#32c124bbe7)"><g clip-path="url(#09ed39bbee)"><g transform="matrix(1, 0, 0, 1, 0.000000000000000222, 1)"><g clip-path="url(#fd0f160813)"><g clip-path="url(#ffc1123113)"><g mask="url(#ecd73b3c16)"><g transform="matrix(1, 0, 0, 1, 0.000000000000000222, 0.000000000000005329)"><g clip-path="url(#26516cb201)"><g clip-path="url(#bd59b6fc64)"><path fill="url(#73ae3e4408)" d="M 0.632812 0.078125 L 0.632812 21.03125 L 102.128906 21.03125 L 102.128906 0.078125 Z M 0.632812 0.078125 " fill-rule="nonzero"/></g></g></g></g></g></g></g></g></g></g></g></svg>