<svg xmlns="http://www.w3.org/2000/svg" viewBox="0 0 320 200" fill="none">
  <rect width="320" height="200" fill="#faf5ff"/>
  <text x="160" y="22" text-anchor="middle" fill="#581c87" font-family="system-ui,sans-serif" font-size="11" font-weight="600">Tree</text>
  <rect x="130" y="36" width="60" height="32" rx="5" fill="#ede9fe" stroke="#7c3aed" stroke-width="2"/>
  <path d="M160 68v16" stroke="#6d28d9" stroke-width="2"/>
  <path d="M160 84L80 110M160 84L160 110M160 84L240 110" stroke="#6d28d9" stroke-width="2"/>
  <rect x="50" y="110" width="60" height="28" rx="4" fill="#f5f3ff" stroke="#8b5cf6" stroke-width="1.5"/>
  <rect x="130" y="110" width="60" height="28" rx="4" fill="#f5f3ff" stroke="#8b5cf6" stroke-width="1.5"/>
  <rect x="210" y="110" width="60" height="28" rx="4" fill="#f5f3ff" stroke="#8b5cf6" stroke-width="1.5"/>
  <path d="M110 138v12h-40v16M160 138v44M250 138v12h40v16" stroke="#7c3aed" stroke-width="1.5" opacity="0.6"/>
  <rect x="30" y="166" width="44" height="22" rx="3" fill="#ede9fe" stroke="#a78bfa"/><rect x="138" y="166" width="44" height="22" rx="3" fill="#ede9fe" stroke="#a78bfa"/><rect x="246" y="166" width="44" height="22" rx="3" fill="#ede9fe" stroke="#a78bfa"/>
</svg>
