<svg xmlns="http://www.w3.org/2000/svg" viewBox="0 0 320 200" fill="none">
  <rect width="320" height="200" fill="#faf5ff"/>
  <text x="160" y="22" text-anchor="middle" fill="#6b21a8" font-family="system-ui,sans-serif" font-size="11" font-weight="600">Pattern grid</text>
  <g stroke="#c4b5fd" stroke-width="1.5" fill="#ede9fe">
    <rect x="20" y="36" width="52" height="44" rx="5"/><rect x="82" y="36" width="52" height="44" rx="5"/><rect x="144" y="36" width="52" height="44" rx="5"/><rect x="206" y="36" width="52" height="44" rx="5"/><rect x="268" y="36" width="32" height="44" rx="5"/>
    <rect x="20" y="90" width="52" height="44" rx="5"/><rect x="82" y="90" width="52" height="44" rx="5"/><rect x="144" y="90" width="52" height="44" rx="5"/><rect x="206" y="90" width="52" height="44" rx="5"/><rect x="268" y="90" width="32" height="44" rx="5"/>
    <rect x="20" y="144" width="52" height="44" rx="5"/><rect x="82" y="144" width="52" height="44" rx="5"/><rect x="144" y="144" width="52" height="44" rx="5"/><rect x="206" y="144" width="52" height="44" rx="5"/><rect x="268" y="144" width="32" height="44" rx="5"/>
  </g>
</svg>
